SplineFontDB: 3.0
FontName: Ruslan-One
FullName: Ruslan One
FamilyName: Ruslan One
Weight: Normal
Copyright: Copyright (c) 2011 by Denis Masharov <denis.masharov@gmail.com>. All rights reserved.
Version: 001.001
ItalicAngle: 0
UnderlinePosition: -50
UnderlineWidth: 50
Ascent: 750
Descent: 250
sfntRevision: 0x00010000
LayerCount: 2
Layer: 0 0 "Back"  1
Layer: 1 0 "Fore"  0
XUID: [1021 288 713564382 15071687]
FSType: 0
OS2Version: 2
OS2_WeightWidthSlopeOnly: 0
OS2_UseTypoMetrics: 1
CreationTime: 1303145830
ModificationTime: 1304061216
PfmFamily: 81
TTFWeight: 400
TTFWidth: 5
LineGap: 0
VLineGap: 0
Panose: 0 0 0 0 0 0 0 0 0 0
OS2TypoAscent: 688
OS2TypoAOffset: 0
OS2TypoDescent: -397
OS2TypoDOffset: 0
OS2TypoLinegap: 0
OS2WinAscent: 688
OS2WinAOffset: 0
OS2WinDescent: 397
OS2WinDOffset: 0
HheadAscent: 688
HheadAOffset: 0
HheadDescent: -397
HheadDOffset: 0
OS2SubXSize: 700
OS2SubYSize: 650
OS2SubXOff: 0
OS2SubYOff: 140
OS2SupXSize: 700
OS2SupYSize: 650
OS2SupXOff: 0
OS2SupYOff: 477
OS2StrikeYSize: 50
OS2StrikeYPos: 250
OS2Vendor: 'pyrs'
OS2CodePages: 00000097.00000000
OS2UnicodeRanges: a000022f.0000004a.00000000.00000000
Lookup: 258 0 0 "'kern' Horizontal Kerning in Latin lookup 0"  {"'kern' Horizontal Kerning in Latin lookup 0 subtable"  } ['kern' ('latn' <'dflt' > ) ]
MarkAttachClasses: 1
DEI: 91125

StartChar: D
Encoding: 68 68 4
Width: 718
Flags: MW
HStem: -14 21G<259.5 343.5> 503 20G<278.5 379>
VStem: 445 227<266 328>
LayerCount: 2
Fore
SplineSet
80 500 m 1
 164 512 242 523 315 523 c 0
 443 523 551 506 629 475 c 1
 657 419 672 360 672 301 c 0
 672 231 649 161 595 105 c 1
 506 9 395 -14 292 -14 c 0
 227 -14 173 -7 113 1 c 1
 89 125 74 249 74 372 c 0
 74 416 76 454 80 500 c 1
345 448 m 1
 336 354 327 254 327 145 c 0
 327 113 328 80 330 46 c 1
 405 86 445 193 445 286 c 0
 445 370 413 441 345 448 c 1
EndSplineSet
EndChar

StartChar: E
Encoding: 69 69 5
Width: 671
Flags: MW
HStem: 0 66<381 390 390 417 381 575> 227 72<357.5 430> 348 152 435 65<401 410>
LayerCount: 2
Fore
SplineSet
78 500 m 1x00
 614 500 l 1
 607 459 594 387 582 348 c 1
 540 346 515 345 474 344 c 1
 480 361 482 375 482 387 c 0
 482 423 457 434 410 435 c 0xd0
 392 435 372 433 350 429 c 1
 337 374 325 318 316 262 c 1
 342 286 380 299 415 299 c 0
 445 299 478 293 509 293 c 0
 516 293 523 293 530 294 c 1
 483 206 l 1
 474 206 l 2
 437 206 401 226 370 227 c 0
 345 227 324 216 305 174 c 1
 302 141 300 108 299 76 c 1
 330 70 354 66 381 66 c 2
 390 66 l 2
 444 66 479 85 495 153 c 1
 615 148 l 1xe0
 605 90 594 47 575 0 c 1
 84 0 l 1
 72 81 64 179 64 280 c 0
 64 354 68 429 78 500 c 1x00
EndSplineSet
EndChar

StartChar: F
Encoding: 70 70 6
Width: 619
Flags: MW
HStem: 0 21G<85 302 85 85> 212 72<355 428.5> 343 156<474 474> 345 154
VStem: 66 234<50 317>
LayerCount: 2
Fore
SplineSet
315 247 m 1x00
 341 271 379 284 413 284 c 0
 444 284 477 278 508 278 c 0
 515 278 521 278 528 279 c 1
 481 191 l 1
 472 191 l 2
 435 191 399 211 368 212 c 0
 342 212 323 200 305 161 c 1
 302 127 300 94 300 60 c 0
 300 40 301 19 302 0 c 1
 85 0 l 1
 73 81 66 180 66 280 c 0
 66 354 70 429 80 499 c 1
 614 499 l 1
 607 458 594 386 582 348 c 1
 474 343 l 1xe8
 480 360 483 374 483 386 c 0
 483 421 457 433 410 434 c 0xd8
 393 434 373 433 351 429 c 1
 336 369 324 308 315 247 c 1x00
EndSplineSet
EndChar

StartChar: G
Encoding: 71 71 7
Width: 675
Flags: MW
HStem: -22 21G<222 286 222 222> 372 151
VStem: 29 249<304.5 322> 417 204<84.5 260>
LayerCount: 2
Fore
SplineSet
593 498 m 1
 584 462 568 411 554 378 c 1
 512 375 465 373 423 372 c 1
 430 393 436 418 439 439 c 1
 418 443 398 445 378 445 c 0xf0
 350 445 323 441 294 434 c 1
 283 387 278 347 278 311 c 0
 278 298 279 286 280 274 c 0
 291 179 339 90 416 49 c 1
 416 63 417 78 417 91 c 0
 417 147 413 195 405 260 c 1
 621 260 l 1
 621 171 618 93 607 0 c 1
 487 -17 402 -22 286 -22 c 2
 222 -22 l 1
 97 32 29 144 29 253 c 0
 29 391 139 523 388 523 c 0
 448 523 516 515 593 498 c 1
EndSplineSet
EndChar

StartChar: H
Encoding: 72 72 8
Width: 740
Flags: MW
HStem: 0 21G<68 295 68 68 422 661 422 422> 480 20G<63 327 327 327 437 697 697 697>
VStem: 81 246<181.5 500> 417 204
LayerCount: 2
Fore
SplineSet
437 500 m 1
 697 500 l 1
 698 472 699 444 699 417 c 0
 699 272 684 134 661 0 c 1
 422 0 l 1
 433 79 440 165 443 254 c 1
 412 273 364 289 327 293 c 1xe0
 323 192 312 95 295 0 c 1
 68 0 l 1xd0
 77 68 81 143 81 220 c 0xe0
 81 316 75 414 63 500 c 1
 327 500 l 1
 329 459 329 418 329 378 c 1
 371 365 409 348 444 329 c 1
 444 386 442 444 437 500 c 1
EndSplineSet
EndChar

StartChar: I
Encoding: 73 73 9
Width: 396
Flags: MW
HStem: 0 21G<68 308 68 68> 480 20G<71 341 341 341>
LayerCount: 2
Fore
SplineSet
71 500 m 1
 341 500 l 1
 341 473 l 2
 341 316 333 158 308 0 c 1
 68 0 l 1
 82 68 87 143 87 222 c 0
 87 312 80 406 71 500 c 1
EndSplineSet
EndChar

StartChar: J
Encoding: 74 74 10
Width: 531
Flags: MW
HStem: -115 21G 480 20G<176 446 446 446>
VStem: 199 249<99.5 402.5>
LayerCount: 2
Fore
SplineSet
192 -45 m 1
 197 11 199 69 199 130 c 0
 199 249 191 375 176 500 c 1
 446 500 l 1
 448 462 448 422 448 383 c 0
 448 252 439 116 420 0 c 1
 357 -60 286 -86 223 -115 c 1
 132 -108 69 -95 5 -70 c 1
 6 -28 8 14 11 52 c 1
 79 3 130 -24 192 -45 c 1
EndSplineSet
EndChar

StartChar: K
Encoding: 75 75 11
Width: 707
Flags: MW
HStem: 0 244 409 91 502 20G
VStem: 41 236<68 300.5>
LayerCount: 2
Fore
SplineSet
293 292 m 1
 348 382 408 453 505 502 c 1
 526 506 548 507 570 507 c 2
 603 507 l 2
 636 507 669 508 698 522 c 1
 671 482 643 444 613 409 c 1
 597 409 l 2
 563 409 531 414 498 425 c 1
 447 383 416 337 389 276 c 1
 457 259 530 248 625 244 c 1
 648 187 661 80 666 0 c 1
 407 0 l 1
 385 98 334 191 284 222 c 1
 280 175 277 128 277 82 c 0
 277 54 278 27 280 0 c 1
 60 0 l 1
 49 85 41 173 41 261 c 0
 41 340 48 420 56 500 c 1
 334 500 l 1
 317 429 302 359 293 292 c 1
EndSplineSet
EndChar

StartChar: L
Encoding: 76 76 12
Width: 602
Flags: MW
HStem: 0 66<349 364 349 550> 480 20G<54 342 342 342>
VStem: 40 234
LayerCount: 2
Fore
SplineSet
274 77 m 1
 308 69 334 66 364 66 c 0
 418 67 454 86 470 153 c 1
 590 149 l 1xe0
 580 91 569 46 550 0 c 1
 59 0 l 1
 47 81 40 180 40 281 c 0
 40 355 44 430 54 500 c 1
 342 500 l 1
 307 365 276 216 274 77 c 1
EndSplineSet
EndChar

StartChar: M
Encoding: 77 77 13
Width: 1052
Flags: MW
HStem: 0 21G<43 286 43 43 426 622 426 426 775 1006 775 775> 480 20G<234 550 550 550 649 934 934 934>
VStem: 36 236<93.5 119.5> 775 231<0 0>
LayerCount: 2
Fore
SplineSet
234 500 m 1
 550 500 l 1
 577 427 595 353 607 276 c 1
 637 332 657 403 657 454 c 0
 657 472 654 488 649 500 c 1
 934 500 l 1
 986 361 1005 144 1006 0 c 1
 775 0 l 1
 771 110 750 239 716 347 c 1
 665 247 628 143 622 0 c 1
 426 0 l 1
 409 130 377 244 326 348 c 1
 294 273 272 194 272 112 c 0
 272 75 276 38 286 0 c 1
 43 0 l 1
 38 29 36 61 36 91 c 0
 36 148 44 203 56 244 c 1
 148 271 247 341 289 418 c 1
 272 446 254 473 234 500 c 1
EndSplineSet
EndChar

StartChar: N
Encoding: 78 78 14
Width: 715
Flags: MW
HStem: 0 21G<76 193 76 76 546 642 546 546> 480 20G<23 307 307 307 527 646 646 646>
VStem: 96 102<112.5 272> 560 92<241.5 275.5>
LayerCount: 2
Fore
SplineSet
527 500 m 1
 646 500 l 1
 650 430 652 360 652 290 c 0
 652 193 648 97 642 0 c 1
 546 0 l 1
 404 76 275 189 190 283 c 1
 195 241 198 189 198 134 c 0
 198 91 196 45 193 0 c 1
 76 0 l 1
 89 80 96 166 96 245 c 0
 96 299 93 350 86 393 c 1
 64 426 50 445 23 500 c 1
 307 500 l 1
 364 401 475 288 560 232 c 1
 560 319 554 400 527 500 c 1
EndSplineSet
EndChar

StartChar: O
Encoding: 79 79 15
Width: 658
Flags: MW
HStem: -22 21G<239.5 261> 503 20G<390 416.5>
VStem: 34 206<241.5 244> 420 207<165 335>
LayerCount: 2
Fore
SplineSet
123 3 m 1
 62 81 34 159 34 232 c 0
 34 256 38 282 44 305 c 0
 80 433 212 522 390 523 c 0
 443 523 499 515 555 498 c 1
 605 435 627 367 627 303 c 0
 627 277 624 251 617 228 c 0
 578 88 436 -21 261 -22 c 0
 218 -22 170 -13 123 3 c 1
275 436 m 1
 250 393 240 343 240 293 c 0
 240 190 289 88 373 47 c 1
 405 88 420 139 420 191 c 0
 420 287 368 388 275 436 c 1
EndSplineSet
EndChar

StartChar: P
Encoding: 80 80 16
Width: 665
Flags: MW
HStem: 0 21G<79 299 79 79> 480 20G<49 591 591 591>
LayerCount: 2
Fore
SplineSet
294 145 m 1
 294 96 296 48 299 0 c 1
 79 0 l 1
 54 97 38 218 38 338 c 0
 38 393 41 448 49 500 c 1
 591 500 l 1
 612 419 621 346 623 231 c 1
 527 188 405 157 294 145 c 1
295 214 m 1
 328 218 379 233 402 246 c 1
 392 313 357 386 316 434 c 1
 304 360 298 287 295 214 c 1
EndSplineSet
EndChar

StartChar: Q
Encoding: 81 81 17
Width: 666
Flags: MW
HStem: -22 99 503 20G<306.5 422>
VStem: 40 205<241.5 244> 426 207<164.5 334>
LayerCount: 2
Fore
SplineSet
129 3 m 1
 68 81 40 160 40 232 c 0
 40 256 44 281 50 304 c 0
 87 432 217 523 396 523 c 0
 448 523 505 516 560 499 c 1
 611 435 633 366 633 302 c 0
 633 276 630 251 623 227 c 0
 605 161 563 103 508 59 c 1
 540 64 564 77 595 77 c 0
 607 77 620 75 635 70 c 1
 707 -23 l 2
 694 -5 669 1 640 1 c 0xf0
 585 1 512 -19 459 -22 c 1
 447 -17 429 -3 419 8 c 1
 373 -11 321 -22 267 -22 c 0
 223 -22 176 -13 129 3 c 1
281 435 m 1
 256 392 245 343 245 293 c 0
 245 190 295 88 379 47 c 1
 411 88 426 138 426 191 c 0
 426 287 374 388 281 435 c 1
EndSplineSet
EndChar

StartChar: R
Encoding: 82 82 18
Width: 706
Flags: MW
HStem: 0 202<587 608 587 679 420 608> 480 20G<77 599 599 599>
VStem: 63 245
LayerCount: 2
Fore
SplineSet
421 225 m 1
 481 209 531 202 587 202 c 2
 608 202 l 1
 642 152 668 84 679 0 c 1
 420 0 l 1
 407 93 363 165 305 189 c 1
 304 172 304 156 304 140 c 0
 304 93 306 47 310 0 c 1
 92 0 l 1
 73 95 63 194 63 293 c 0
 63 362 68 432 77 500 c 1
 599 500 l 1
 615 430 622 383 622 326 c 0
 622 315 621 304 621 292 c 1
 565 262 496 240 421 225 c 1
326 433 m 1
 318 374 312 316 308 260 c 1
 342 265 374 278 398 299 c 1
 383 353 361 389 326 433 c 1
EndSplineSet
EndChar

StartChar: S
Encoding: 83 83 19
Width: 635
Flags: MW
HStem: -112 21G -54 21 -54 101<62 115.5> 374 149<406 407 334 427> 446 77<334 351.5>
LayerCount: 2
Fore
SplineSet
575 499 m 1x00
 566 463 550 413 536 380 c 1
 494 377 448 374 406 374 c 1
 414 395 419 419 423 440 c 1
 396 444 366 446 337 446 c 0xa8
 309 446 278 444 249 440 c 1
 310 337 401 321 490 261 c 0
 537 230 615 150 631 61 c 1
 568 -21 453 -91 342 -112 c 1
 231 -103 154 -54 77 -54 c 0
 47 -54 18 -61 -14 -81 c 1
 1 -38 22 4 45 47 c 1
 53 47 l 2
 202 47 266 -32 361 -33 c 0xd0
 371 -33 383 -32 393 -29 c 1
 393 63 330 106 267 150 c 2
 250 162 l 2
 178 212 103 271 74 377 c 1
 91 415 119 470 137 500 c 1
 199 515 265 523 334 523 c 2
 378 523 l 2
 436 523 501 515 575 499 c 1x00
EndSplineSet
EndChar

StartChar: T
Encoding: 84 84 20
Width: 705
Flags: MW
HStem: 0 21G<236 454 236 236> 326 174<1 702 555 555> 435 65<472 496>
VStem: 202 244<122.5 357.5> 446 113
LayerCount: 2
Fore
SplineSet
472 435 m 1x00
 456 338 446 242 446 147 c 0
 446 98 449 48 454 0 c 1
 236 0 l 1
 212 112 202 227 202 342 c 0
 202 373 203 404 204 435 c 1xd0
 142 417 112 377 100 320 c 1
 1 326 l 1
 37 500 l 1
 702 500 l 1
 690 435 678 380 656 320 c 1
 555 326 l 1xa8
 558 338 559 348 559 358 c 0
 559 413 520 435 472 435 c 1x00
EndSplineSet
EndChar

StartChar: U
Encoding: 85 85 21
Width: 701
Flags: MW
HStem: -22 67<405.5 443.5> 480 20G<87 356 356 356 530 658 658 658>
VStem: 72 242 558 104<152.5 375.5>
LayerCount: 2
Fore
SplineSet
530 500 m 1
 658 500 l 1
 661 451 662 401 662 350 c 0
 662 247 657 142 646 45 c 1
 581 3 490 -22 397 -22 c 0
 270 -22 165 0 85 45 c 1
 76 120 72 185 72 251 c 0
 72 327 77 404 87 500 c 1
 356 500 l 1
 329 355 315 215 314 83 c 1
 333 66 373 45 438 45 c 0
 504 45 535 59 556 73 c 1
 558 106 558 137 558 168 c 0
 558 278 549 382 530 500 c 1
EndSplineSet
EndChar

StartChar: V
Encoding: 86 86 22
Width: 703
Flags: MW
HStem: 0 21G<220 471 220 220> 480 20G<8 281 281 281 403 670 670 670>
VStem: 429 242<305 463.5>
LayerCount: 2
Fore
SplineSet
471 0 m 1
 220 0 l 1
 103 149 34 329 8 500 c 1
 281 500 l 1xe0
 284 378 320 250 375 143 c 1
 411 203 429 269 429 341 c 0
 429 391 420 444 403 500 c 1
 670 500 l 1
 671 485 671 471 671 456 c 0
 671 377 660 301 637 245 c 1
 537 202 434 147 434 76 c 0
 434 53 445 27 471 0 c 1
EndSplineSet
EndChar

StartChar: W
Encoding: 87 87 23
Width: 1040
Flags: MW
HStem: 0 21G<218 469 218 218 578 830 578 578> 480 20G<14 280 280 280 402 640 640 640 761 1029 1029 1029>
VStem: 280 139<313 500> 785 245<309 463.5>
LayerCount: 2
Fore
SplineSet
402 500 m 1
 640 500 l 1
 650 377 682 249 734 143 c 1
 767 204 785 272 785 346 c 0
 785 395 778 446 761 500 c 1
 1029 500 l 1
 1030 485 1030 471 1030 456 c 0
 1030 377 1019 301 996 244 c 1
 912 220 836 179 804 131 c 0
 793 115 789 98 789 82 c 0
 789 52 806 24 830 0 c 1
 578 0 l 1
 534 66 500 138 473 213 c 1
 452 165 440 122 440 85 c 0
 440 52 449 24 469 0 c 1
 218 0 l 1
 114 138 39 329 14 500 c 1
 280 500 l 1
 290 375 315 249 368 143 c 1
 401 199 419 272 419 354 c 0
 419 400 413 449 402 500 c 1
EndSplineSet
EndChar

StartChar: X
Encoding: 88 88 24
Width: 701
Flags: MW
HStem: -147 21G 0 21G<376 625 376 376> 566 20G
LayerCount: 2
Fore
SplineSet
587 555 m 1
 635 570 690 559 731 586 c 1
 712 542 696 514 674 481 c 1
 654 476 634 473 614 473 c 0
 601 473 588 474 574 476 c 1
 521 438 475 388 432 339 c 1
 486 255 553 151 625 0 c 1
 376 0 l 1
 350 55 323 108 294 159 c 1
 226 62 163 -40 123 -121 c 1
 86 -130 46 -138 8 -147 c 1
 66 -43 162 93 259 217 c 1
 194 319 119 413 26 500 c 1
 337 500 l 1
 354 464 375 428 401 388 c 1
 454 448 510 527 587 555 c 1
EndSplineSet
EndChar

StartChar: uni0425
Encoding: 1061 1061 25
Width: 702
Flags: MW
HStem: -147 21G 0 21G<377 626 377 377> 566 20G
LayerCount: 2
Fore
SplineSet
588 555 m 1
 636 570 691 559 732 586 c 1
 713 542 697 514 675 481 c 1
 655 476 635 473 615 473 c 0
 602 473 589 474 575 476 c 1
 522 438 476 388 433 339 c 1
 487 255 554 151 626 0 c 1
 377 0 l 1
 351 55 324 108 295 159 c 1
 227 62 164 -40 124 -121 c 1
 87 -130 47 -138 9 -147 c 1
 67 -43 163 93 260 217 c 1
 195 319 120 413 27 500 c 1
 338 500 l 1
 355 464 376 428 402 388 c 1
 455 448 511 527 588 555 c 1
EndSplineSet
EndChar

StartChar: Y
Encoding: 89 89 26
Width: 688
Flags: MW
HStem: -397 21G 0 21G<117 324 117 117> 567 20G
LayerCount: 2
Fore
SplineSet
572 556 m 1
 620 571 675 560 716 587 c 1
 697 543 682 514 660 481 c 1
 639 476 619 473 599 473 c 0
 586 473 573 474 559 476 c 1
 493 397 461 257 438 146 c 0
 409 8 358 -224 286 -368 c 1
 250 -379 205 -389 162 -397 c 1
 243 -258 295 -105 324 0 c 1
 117 0 l 1
 67 162 37 331 35 500 c 1
 327 500 l 1
 313 438 306 377 306 316 c 0
 306 232 319 147 340 64 c 1
 400 292 437 509 572 556 c 1
EndSplineSet
EndChar

StartChar: Z
Encoding: 90 90 27
Width: 638
Flags: MW
HStem: 0 67<396 405 405 431.5 396 590> 435 65<223 268.5>
LayerCount: 2
Fore
SplineSet
312 77 m 1
 343 71 369 67 396 67 c 2
 405 67 l 2
 458 67 494 86 510 153 c 1
 551 152 588 151 630 149 c 1xc0
 620 91 609 47 590 0 c 1
 19 0 l 1
 93 133 194 289 315 430 c 1
 296 434 283 435 254 435 c 0
 192 435 142 399 130 342 c 1
 99 344 63 346 32 349 c 1
 63 500 l 1
 620 500 l 1
 500 370 398 229 312 77 c 1
EndSplineSet
EndChar

StartChar: one
Encoding: 49 49 28
Width: 432
Flags: MW
HStem: 0 21G<135 362 135 135> 480 20G<263 381 381 381>
VStem: 140 243<117.5 381.5>
LayerCount: 2
Fore
SplineSet
263 500 m 1
 381 500 l 1
 382 453 383 405 383 358 c 0
 383 239 378 120 362 0 c 1
 135 0 l 1
 138 50 140 95 140 140 c 0
 140 200 137 260 129 324 c 1
 111 310 89 295 62 278 c 1
 47 304 38 322 17 357 c 1
 96 387 194 442 263 500 c 1
EndSplineSet
EndChar

StartChar: zero
Encoding: 48 48 29
Width: 658
Flags: MW
HStem: -22 21G<239.5 261> 503 20G<390 416.5>
VStem: 34 206<241.5 244> 420 207<165 335>
LayerCount: 2
Fore
SplineSet
123 3 m 1
 62 81 34 159 34 232 c 0
 34 256 38 282 44 305 c 0
 80 433 212 522 390 523 c 0
 443 523 499 515 555 498 c 1
 605 435 627 367 627 303 c 0
 627 277 624 251 617 228 c 0
 578 88 436 -21 261 -22 c 0
 218 -22 170 -13 123 3 c 1
275 436 m 1
 250 393 240 343 240 293 c 0
 240 190 289 88 373 47 c 1
 405 88 420 139 420 191 c 0
 420 287 368 388 275 436 c 1
EndSplineSet
EndChar

StartChar: two
Encoding: 50 50 30
Width: 569
Flags: MW
HStem: 0 65<287 346 287 497> 480 20G<153 425 425 425>
LayerCount: 2
Fore
SplineSet
153 500 m 1
 425 500 l 1
 466 470 509 417 528 364 c 1
 478 267 357 158 201 71 c 1
 234 67 270 65 304 65 c 0
 388 65 422 99 442 153 c 1
 537 148 l 1xc0
 530 96 513 34 497 0 c 1
 22 0 l 1
 29 6 l 1
 98 74 255 229 255 348 c 0
 255 384 241 416 206 442 c 1
 174 419 146 388 129 348 c 1
 97 357 67 368 34 377 c 1
 69 431 113 475 153 500 c 1
EndSplineSet
EndChar

StartChar: three
Encoding: 51 51 31
Width: 508
Flags: MW
HStem: 0 21G<40 353 40 40> 357 143
LayerCount: 2
Fore
SplineSet
48 500 m 1
 492 500 l 1
 453 415 369 340 289 293 c 1
 356 275 448 236 500 198 c 1
 477 145 430 64 353 0 c 1
 40 0 l 1
 126 54 239 159 276 228 c 1
 249 248 190 276 151 284 c 1
 208 315 250 380 272 429 c 1
 261 433 228 435 212 435 c 0xc0
 116 435 110 402 102 364 c 2
 100 355 l 1
 76 355 43 356 16 357 c 1
 27 413 37 458 48 500 c 1
EndSplineSet
EndChar

StartChar: four
Encoding: 52 52 32
Width: 590
Flags: MW
HStem: 0 141<269 269 269 485 255 269> 75 66<40 269> 480 20G<189 407 407 407>
VStem: 269 240<141 276 157 276>
LayerCount: 2
Fore
SplineSet
500 142 m 1x00
 537 149 555 156 588 176 c 1
 569 130 560 109 544 75 c 1
 494 75 l 1
 485 0 l 1x70
 255 0 l 1
 260 24 263 49 265 75 c 1xb0
 40 75 l 1
 35 104 29 132 23 163 c 1
 110 252 173 393 189 500 c 1
 407 500 l 1
 356 373 220 256 125 174 c 1
 107 159 l 1
 148 148 219 142 269 141 c 1
 269 157 l 2
 269 203 265 225 258 276 c 1x70
 509 276 l 1
 508 218 505 201 500 142 c 1x00
EndSplineSet
EndChar

StartChar: five
Encoding: 53 53 33
Width: 485
Flags: MW
HStem: 0 21G<23 336 23 23> 272 228<9 360> 503 20G
LayerCount: 2
Fore
SplineSet
48 500 m 1
 360 500 l 2
 405 500 438 510 482 523 c 1
 462 488 455 473 437 440 c 1
 424 437 403 435 386 435 c 2
 234 435 l 1xe0
 219 406 205 359 198 316 c 1
 280 316 409 300 482 271 c 1
 456 175 403 71 336 0 c 1
 23 0 l 1
 126 66 195 143 238 234 c 1
 186 256 84 271 9 272 c 1
 9 279 l 2
 9 356 24 449 48 500 c 1
EndSplineSet
EndChar

StartChar: six
Encoding: 54 54 34
Width: 540
Flags: MW
HStem: 0 21G<86 493 86 86> 480 20G<132 432 432 432>
VStem: 32 230<169 171 138 265> 344 192
LayerCount: 2
Fore
SplineSet
493 0 m 1
 86 0 l 1
 55 40 32 123 32 215 c 0
 32 315 59 426 132 500 c 1
 432 500 l 1
 360 456 315 390 290 319 c 1
 380 315 462 293 516 276 c 1
 530 236 536 198 536 161 c 0
 536 105 521 52 493 0 c 1
274 264 m 1
 265 224 262 188 262 154 c 0
 262 122 265 92 271 65 c 1
 311 111 342 183 344 230 c 1
 325 247 300 257 274 264 c 1
EndSplineSet
EndChar

StartChar: seven
Encoding: 55 55 35
Width: 547
Flags: MW
HStem: 0 21G<41 41 41 352> 354 146<96 96> 355 145
LayerCount: 2
Fore
SplineSet
41 0 m 1x00
 160 118 246 275 304 429 c 1
 285 432 259 435 226 435 c 2
 210 435 l 2xc0
 137 435 109 417 96 354 c 1xa0
 12 357 l 1
 20 404 31 446 42 491 c 2
 44 500 l 1
 540 500 l 1
 494 321 419 119 352 0 c 1
 41 0 l 1x00
EndSplineSet
EndChar

StartChar: eight
Encoding: 56 56 36
Width: 532
Flags: MW
HStem: 0 21G<86 455 86 86> 435 65
LayerCount: 2
Fore
SplineSet
455 0 m 1
 86 0 l 1
 50 46 25 92 4 158 c 1
 41 203 91 246 136 274 c 1
 108 311 83 352 62 403 c 1
 84 438 107 469 141 500 c 1
 403 500 l 1
 439 466 462 422 469 382 c 1
 448 343 424 312 394 287 c 1
 450 260 503 202 527 142 c 1
 508 79 491 43 455 0 c 1
181 222 m 1
 175 205 172 189 172 175 c 0
 172 106 237 71 295 66 c 1
 287 114 244 176 181 222 c 1
331 313 m 1
 336 322 339 333 339 345 c 0
 339 384 310 430 222 435 c 1
 239 375 279 338 331 313 c 1
EndSplineSet
EndChar

StartChar: nine
Encoding: 57 57 37
Width: 553
Flags: MW
HStem: 0 21G<131 431 131 131> 480 20G<70 478 478 478>
VStem: 28 191 302 229<236 365.5>
LayerCount: 2
Fore
SplineSet
70 500 m 1
 478 500 l 1
 508 460 531 377 531 286 c 0
 531 186 504 75 431 0 c 1
 131 0 l 1
 203 45 248 111 273 181 c 1
 183 185 101 208 48 224 c 1
 34 264 28 303 28 340 c 0
 28 396 42 448 70 500 c 1
289 237 m 1
 298 278 302 316 302 350 c 0
 302 381 299 409 293 435 c 1
 253 390 222 317 219 271 c 1
 238 253 263 244 289 237 c 1
EndSplineSet
EndChar

StartChar: uni0410
Encoding: 1040 1040 38
Width: 767
Flags: MW
HStem: 0 21G<68 301 68 68 458 690 458 458> 480 20G<259 591 591 591>
VStem: 61 240<0 118.5>
LayerCount: 2
Fore
SplineSet
259 500 m 1
 591 500 l 1
 655 361 690 186 690 8 c 2
 690 0 l 1
 458 0 l 1
 455 41 449 80 441 118 c 1
 399 75 351 35 301 0 c 1
 68 0 l 1
 63 29 61 60 61 90 c 0
 61 147 69 203 81 244 c 1
 175 271 276 345 316 423 c 1
 299 450 280 476 259 500 c 1
423 191 m 1
 406 250 384 305 355 359 c 1
 324 267 306 181 301 98 c 1
 344 120 389 153 423 191 c 1
EndSplineSet
EndChar

StartChar: uni0412
Encoding: 1042 1042 39
Width: 695
Flags: MW
HStem: 0 21G<110 613 110 110> 434 66<466.5 490>
LayerCount: 2
Fore
SplineSet
322 65 m 1
 361 65 402 68 433 76 c 1
 420 156 385 206 331 241 c 1
 325 182 322 123 322 65 c 1
89 500 m 1
 644 500 l 1
 613 404 550 336 472 297 c 1
 545 271 605 237 656 183 c 1
 650 122 634 56 613 0 c 1
 110 0 l 1
 85 87 70 193 70 300 c 0
 70 367 76 435 89 500 c 1
339 310 m 1
 399 326 464 367 490 434 c 1
 443 434 400 433 360 429 c 1
 352 389 345 349 339 310 c 1
EndSplineSet
EndChar

StartChar: uni0415
Encoding: 1045 1045 40
Width: 671
Flags: MW
HStem: 0 66<381 390 390 417 381 575> 227 72<357.5 430> 348 152 435 65<401 410>
LayerCount: 2
Fore
SplineSet
78 500 m 1x00
 614 500 l 1
 607 459 594 387 582 348 c 1
 540 346 515 345 474 344 c 1
 480 361 482 375 482 387 c 0
 482 423 457 434 410 435 c 0xd0
 392 435 372 433 350 429 c 1
 337 374 325 318 316 262 c 1
 342 286 380 299 415 299 c 0
 445 299 478 293 509 293 c 0
 516 293 523 293 530 294 c 1
 483 206 l 1
 474 206 l 2
 437 206 401 226 370 227 c 0
 345 227 324 216 305 174 c 1
 302 141 300 108 299 76 c 1
 330 70 354 66 381 66 c 2
 390 66 l 2
 444 66 479 85 495 153 c 1
 615 148 l 1xe0
 605 90 594 47 575 0 c 1
 84 0 l 1
 72 81 64 179 64 280 c 0
 64 354 68 429 78 500 c 1x00
EndSplineSet
EndChar

StartChar: uni041A
Encoding: 1050 1050 41
Width: 707
Flags: MW
HStem: 0 244 409 91 502 20G
VStem: 41 236<68 300.5>
LayerCount: 2
Fore
SplineSet
293 292 m 1
 348 382 408 453 505 502 c 1
 526 506 548 507 570 507 c 2
 603 507 l 2
 636 507 669 508 698 522 c 1
 671 482 643 444 613 409 c 1
 597 409 l 2
 563 409 531 414 498 425 c 1
 447 383 416 337 389 276 c 1
 457 259 530 248 625 244 c 1
 648 187 661 80 666 0 c 1
 407 0 l 1
 385 98 334 191 284 222 c 1
 280 175 277 128 277 82 c 0
 277 54 278 27 280 0 c 1
 60 0 l 1
 49 85 41 173 41 261 c 0
 41 340 48 420 56 500 c 1
 334 500 l 1
 317 429 302 359 293 292 c 1
EndSplineSet
EndChar

StartChar: uni041C
Encoding: 1052 1052 42
Width: 1052
Flags: MW
HStem: 0 21G<43 286 43 43 426 622 426 426 775 1006 775 775> 480 20G<234 550 550 550 649 934 934 934>
VStem: 36 236<93.5 119.5> 775 231<0 0>
LayerCount: 2
Fore
SplineSet
234 500 m 1
 550 500 l 1
 577 427 595 353 607 276 c 1
 637 332 657 403 657 454 c 0
 657 472 654 488 649 500 c 1
 934 500 l 1
 986 361 1005 144 1006 0 c 1
 775 0 l 1
 771 110 750 239 716 347 c 1
 665 247 628 143 622 0 c 1
 426 0 l 1
 409 130 377 244 326 348 c 1
 294 273 272 194 272 112 c 0
 272 75 276 38 286 0 c 1
 43 0 l 1
 38 29 36 61 36 91 c 0
 36 148 44 203 56 244 c 1
 148 271 247 341 289 418 c 1
 272 446 254 473 234 500 c 1
EndSplineSet
EndChar

StartChar: uni2116
Encoding: 8470 8470 43
Width: 1007
Flags: MW
HStem: 1 21G<83 199 83 83 552 647 552 552> 167 56<811 857 811 857> 497 20G<820 881>
VStem: 103 101<113.5 275.5> 565 93<245 249 249 289.5> 702 104<394.5 417> 869 104<335.5 428.5>
LayerCount: 2
Fore
SplineSet
532 500 m 1
 652 500 l 1
 656 431 658 362 658 294 c 0
 658 196 654 98 647 1 c 1
 552 1 l 1
 410 77 282 190 197 284 c 1
 201 242 204 190 204 135 c 0
 204 92 203 47 199 1 c 1
 83 1 l 1
 96 82 103 169 103 249 c 0
 103 302 100 352 93 394 c 1
 71 426 57 446 30 500 c 1
 313 500 l 1
 371 401 481 289 565 232 c 1
 565 249 l 2
 565 330 558 408 532 500 c 1
699 161 m 1
 699 228 l 1
 744 225 789 223 833 223 c 0
 881 223 928 225 976 228 c 1
 976 161 l 1
 928 165 881 167 833 167 c 0
 788 167 744 165 699 161 c 1
743 267 m 1
 715 305 702 343 702 377 c 0
 702 457 770 517 870 517 c 0
 892 517 915 514 939 508 c 1
 962 477 973 444 973 413 c 0
 973 330 900 256 806 256 c 0
 786 256 765 260 743 267 c 1
813 475 m 1
 808 459 806 440 806 422 c 0
 806 367 826 310 858 289 c 1
 865 305 869 325 869 346 c 0
 869 396 849 450 813 475 c 1
EndSplineSet
EndChar

StartChar: exclam
Encoding: 33 33 44
Width: 302
Flags: MW
HStem: -6 98<125.5 223> 529 20G<15 15>
VStem: 88 195
LayerCount: 2
Fore
SplineSet
15 549 m 1
 283 517 l 1
 276 384 232 220 188 138 c 1
 160 140 112 147 88 154 c 1
 83 303 65 415 15 549 c 1
55 102 m 1
 101 94 144 92 190 92 c 2
 223 92 l 1
 215 60 205 27 188 -5 c 1
 177 -6 162 -6 145 -6 c 0
 106 -6 58 -4 33 0 c 1
 48 33 54 68 55 102 c 1
EndSplineSet
EndChar

StartChar: question
Encoding: 63 63 45
Width: 472
Flags: MW
HStem: -6 98<223.5 318> 480 69<195.5 211>
VStem: 274 195<405 407>
LayerCount: 2
Fore
SplineSet
15 526 m 1
 97 544 155 549 216 549 c 0
 404 549 469 484 469 405 c 1
 456 298 314 236 283 139 c 1
 246 143 220 145 183 154 c 1
 206 236 274 311 274 395 c 0
 274 419 268 445 254 471 c 1
 237 477 220 480 202 480 c 0
 189 480 177 478 164 475 c 1
 168 453 175 424 181 402 c 1
 140 402 94 405 53 409 c 1
 38 440 23 484 15 526 c 1
150 102 m 1
 149 68 143 34 128 0 c 1
 154 -4 203 -6 244 -6 c 0
 258 -6 272 -6 283 -5 c 1
 300 28 310 60 318 92 c 1
 261 92 207 92 150 102 c 1
EndSplineSet
EndChar

StartChar: comma
Encoding: 44 44 46
Width: 215
Flags: MW
HStem: -88 21G -6 21G<94.5 112> 82 20G
LayerCount: 2
Fore
SplineSet
38 102 m 1
 94 92 146 91 206 91 c 1
 195 30 170 -36 136 -88 c 1
 120 -86 104 -83 89 -79 c 1
 102 -57 112 -27 112 -6 c 1
 77 -6 38 -4 16 0 c 1
 31 33 37 68 38 102 c 1
EndSplineSet
EndChar

StartChar: period
Encoding: 46 46 47
Width: 219
Flags: MW
HStem: -88 21G
LayerCount: 2
Fore
SplineSet
40 102 m 1
 97 92 151 92 208 92 c 1x80
 200 60 190 28 173 -5 c 1
 162 -6 148 -6 134 -6 c 0
 93 -6 44 -4 18 0 c 1
 33 34 39 68 40 102 c 1
EndSplineSet
EndChar

StartChar: parenleft
Encoding: 40 40 48
Width: 203
Flags: MW
HStem: -114 21G 585 20G<102 169 169 169>
VStem: 5 126<222.5 300>
LayerCount: 2
Fore
SplineSet
102 605 m 1
 169 605 l 1
 143 502 131 397 131 294 c 0
 131 151 155 12 204 -114 c 1
 137 -105 151 -106 92 -94 c 1
 31 0 5 116 5 232 c 0
 5 368 41 505 102 605 c 1
EndSplineSet
EndChar

StartChar: parenright
Encoding: 41 41 49
Width: 207
Flags: MW
HStem: -114 21G<35 102 35 35> 585 20G
VStem: 73 126<191 268.5>
LayerCount: 2
Fore
SplineSet
102 -114 m 1
 35 -114 l 1
 61 -11 73 94 73 197 c 0
 73 340 49 479 0 605 c 1
 67 597 52 597 112 585 c 1
 173 492 199 375 199 259 c 0
 199 123 163 -14 102 -114 c 1
EndSplineSet
EndChar

StartChar: colon
Encoding: 58 58 50
Width: 205
Flags: MW
HStem: -6 98<100.5 198> 339 97<94.5 198> 427 20G
LayerCount: 2
Fore
SplineSet
30 102 m 1x00
 76 94 119 92 165 92 c 2
 198 92 l 1
 190 60 180 27 163 -5 c 1
 152 -6 137 -6 120 -6 c 0
 81 -6 33 -4 8 0 c 1
 23 33 29 68 30 102 c 1x00
30 447 m 1xa0
 79 438 123 436 172 436 c 2xc0
 198 436 l 1
 190 404 180 372 163 340 c 1
 151 339 133 339 113 339 c 0
 76 339 31 340 8 345 c 1
 23 378 29 412 30 447 c 1xa0
EndSplineSet
EndChar

StartChar: semicolon
Encoding: 59 59 51
Width: 207
Flags: MW
HStem: -87 21G -5 21G<91 109> 92 247<98 202> 427 20G
LayerCount: 2
Fore
SplineSet
34 447 m 1
 82 439 126 437 175 437 c 2xf0
 202 437 l 1
 195 405 184 373 167 341 c 1
 155 340 137 339 117 339 c 0
 79 339 36 341 12 346 c 1
 27 379 33 413 34 447 c 1
34 103 m 1
 91 93 142 92 202 92 c 1
 192 31 167 -35 132 -87 c 1
 116 -85 101 -82 85 -78 c 1
 98 -56 108 -26 109 -5 c 1
 73 -5 34 -3 12 1 c 1
 27 34 33 69 34 103 c 1
EndSplineSet
EndChar

StartChar: quotesinglbase
Encoding: 8218 8218 52
Width: 215
Flags: MW
HStem: -88 21G -6 21G<94.5 112> 82 20G
LayerCount: 2
Fore
SplineSet
38 102 m 1
 94 92 146 91 206 91 c 1
 195 30 170 -36 136 -88 c 1
 120 -86 104 -83 89 -79 c 1
 102 -57 112 -27 112 -6 c 1
 77 -6 38 -4 16 0 c 1
 31 33 37 68 38 102 c 1
EndSplineSet
EndChar

StartChar: quotedblbase
Encoding: 8222 8222 53
Width: 443
Flags: MW
HStem: -88 21G -6 21G<94.5 112 318.5 336> 82 20G
LayerCount: 2
Fore
SplineSet
38 102 m 1
 94 92 146 91 206 91 c 1
 195 30 170 -36 136 -88 c 1
 120 -86 104 -83 89 -79 c 1
 102 -57 112 -27 112 -6 c 1
 77 -6 38 -4 16 0 c 1
 31 33 37 68 38 102 c 1
262 102 m 1
 318 92 370 91 430 91 c 1
 419 30 394 -36 360 -88 c 1
 344 -86 328 -83 313 -79 c 1
 326 -57 336 -27 336 -6 c 1
 301 -6 262 -4 240 0 c 1
 255 33 261 68 262 102 c 1
EndSplineSet
EndChar

StartChar: ellipsis
Encoding: 8230 8230 54
Width: 657
Flags: MW
HStem: -88 21G -6 98<113.5 208>
LayerCount: 2
Fore
SplineSet
40 102 m 1
 97 92 151 92 208 92 c 1x80
 200 60 190 28 173 -5 c 1
 162 -6 148 -6 134 -6 c 0
 93 -6 44 -4 18 0 c 1
 33 34 39 68 40 102 c 1
259 102 m 1x40
 316 92 370 92 427 92 c 1x80
 419 60 409 28 392 -5 c 1
 381 -6 367 -6 353 -6 c 0
 312 -6 263 -4 237 0 c 1
 252 34 258 68 259 102 c 1x40
478 102 m 1x40
 535 92 589 92 646 92 c 1x80
 638 60 628 28 611 -5 c 1
 600 -6 586 -6 572 -6 c 0
 531 -6 482 -4 456 0 c 1
 471 34 477 68 478 102 c 1x40
EndSplineSet
EndChar

StartChar: asterisk
Encoding: 42 42 55
Width: 273
Flags: MW
HStem: 134 21G<97 97 180 180> 237 48 364 20G<97 97 180 180>
LayerCount: 2
Fore
SplineSet
9 232 m 1
 9 285 l 1
 39 283 69 282 99 282 c 1
 51 358 l 1
 97 384 l 1
 110 356 124 329 138 302 c 1
 153 329 167 356 180 384 c 1
 226 358 l 1
 209 333 194 307 178 282 c 1
 208 282 238 284 268 285 c 1
 268 232 l 1
 237 235 207 236 176 237 c 1
 192 211 208 185 226 160 c 1
 180 134 l 1
 167 160 153 187 138 213 c 1
 97 134 l 1
 81 142 66 151 51 160 c 1
 68 185 85 211 101 237 c 1
 70 236 40 235 9 232 c 1
EndSplineSet
EndChar

StartChar: plus
Encoding: 43 43 56
Width: 272
Flags: MW
HStem: 121 21G<109 162 109 109> 229 48 360 20G<109 162 162 162>
VStem: 113 44<229 229 273 273>
LayerCount: 2
Fore
SplineSet
6 224 m 1
 6 277 l 1
 42 275 77 274 113 273 c 1
 112 309 111 344 109 380 c 1
 162 380 l 1
 159 344 157 309 157 273 c 1
 193 274 229 275 265 277 c 1
 265 224 l 1
 229 227 193 229 157 229 c 1
 157 193 159 157 162 121 c 1
 109 121 l 1
 111 157 112 193 113 229 c 1
 77 229 42 227 6 224 c 1
EndSplineSet
EndChar

StartChar: equal
Encoding: 61 61 57
Width: 287
Flags: MW
HStem: 169 21G<13 13 272 272> 174 44<117.5 157.5 114.5 160.5> 271 44<121.5 163.5 120.5 164.5> 299 20G<13 13 272 272>
LayerCount: 2
Fore
SplineSet
13 169 m 1x00
 13 221 l 1
 54 219 94 218 135 218 c 0
 180 218 226 219 272 221 c 1
 272 169 l 1xa0
 227 172 183 174 138 174 c 0x60
 97 174 55 172 13 169 c 1x00
13 266 m 1
 13 319 l 1
 56 316 99 315 142 315 c 0x60
 185 315 228 316 272 319 c 1x90
 272 266 l 1
 229 269 186 271 143 271 c 0x60
 100 271 56 269 13 266 c 1
EndSplineSet
EndChar

StartChar: ampersand
Encoding: 38 38 58
Width: 745
Flags: MW
HStem: 0 21G<96 334 96 96 459 740 459 459> 517 20G<169 398 398 398>
LayerCount: 2
Fore
SplineSet
108 433 m 1
 123 471 144 508 169 537 c 1
 398 537 l 1
 422 508 440 474 450 438 c 1
 431 395 368 359 329 333 c 1
 357 293 397 251 438 214 c 1
 445 230 452 253 458 271 c 1
 565 271 l 1
 550 233 529 197 504 164 c 1
 571 107 656 47 740 0 c 1
 459 0 l 1
 439 13 417 30 395 49 c 1
 376 32 355 16 334 0 c 1
 96 0 l 1
 59 34 24 104 6 174 c 1
 43 226 121 278 180 308 c 1
 152 350 128 393 108 433 c 1
351 90 m 1
 305 137 258 195 216 254 c 1
 204 241 199 227 199 211 c 0
 199 155 264 88 312 54 c 1
 326 65 339 77 351 90 c 1
234 497 m 1
 248 455 268 414 297 374 c 1
 314 386 321 401 321 415 c 0
 321 451 277 488 234 497 c 1
EndSplineSet
EndChar

StartChar: hyphen
Encoding: 45 45 59
Width: 381
Flags: MW
HStem: 224 80<147 261 147 291> 299 20G
LayerCount: 2
Fore
SplineSet
12 245 m 1x00
 14 246 67 294 93 305 c 1
 111 305 134 304 160 304 c 0
 232 304 323 307 366 321 c 1x80
 341 281 324 259 291 224 c 1x40
 261 224 l 2x80
 191 224 87 229 12 245 c 1x00
EndSplineSet
EndChar

StartChar: uni00AD
Encoding: 173 173 60
Width: 381
Flags: MW
HStem: 224 80<147 261 147 291> 299 20G
LayerCount: 2
Fore
SplineSet
12 245 m 1x00
 14 246 67 294 93 305 c 1
 111 305 134 304 160 304 c 0
 232 304 323 307 366 321 c 1x80
 341 281 324 259 291 224 c 1x40
 261 224 l 2x80
 191 224 87 229 12 245 c 1x00
EndSplineSet
EndChar

StartChar: numbersign
Encoding: 35 35 61
Width: 383
Flags: MW
HStem: 50 172<53 190.5 53 190.5 184 190.5 177.5 252 184 184> 164 58 298 58<114 236 114 160> 298 59 298 171<160 198 131 236 160 160>
LayerCount: 2
Fore
SplineSet
7 160 m 1x00
 19 227 l 1
 90 224 l 1
 95 248 99 272 103 296 c 1
 81 295 58 294 35 292 c 1
 40 314 44 337 48 359 c 1
 114 356 l 1
 120 394 126 432 131 469 c 1x90
 198 469 l 1
 189 431 180 393 172 355 c 1
 184 354 196 354 208 354 c 0
 220 354 233 354 245 355 c 1
 252 393 257 431 263 469 c 1
 330 469 l 1
 321 432 312 394 304 356 c 1x60
 376 359 l 1
 372 337 368 314 363 292 c 1
 340 294 316 295 292 296 c 1
 287 272 282 248 278 224 c 1
 347 227 l 1
 335 160 l 1
 313 162 290 163 268 164 c 1
 262 126 256 88 252 50 c 1x88
 184 50 l 1
 194 88 202 127 210 166 c 1
 198 166 185 167 173 167 c 0
 161 167 148 166 136 166 c 1
 130 127 125 89 120 50 c 1
 53 50 l 1
 62 88 70 126 78 164 c 1xa0
 54 163 31 162 7 160 c 1x00
146 223 m 1
 158 222 171 222 184 222 c 0
 197 222 209 222 222 223 c 1
 226 248 231 273 236 298 c 1
 160 298 l 1
 155 273 150 248 146 223 c 1
EndSplineSet
EndChar

StartChar: slash
Encoding: 47 47 62
Width: 372
Flags: MW
HStem: -114 21G<-60 -36> 587 20G<391.5 418>
LayerCount: 2
Fore
SplineSet
284 587 m 1
 335 600 365 607 418 607 c 1
 287 376 177 142 73 -94 c 1
 63 -96 l 1
 18 -107 -12 -114 -60 -114 c 1
 71 118 181 351 284 587 c 1
EndSplineSet
EndChar

StartChar: guillemotleft
Encoding: 171 171 63
Width: 362
Flags: MW
HStem: 23 21G<113 113 113 195 271 352 271 271> 445 20G<113 195 195 195 271 352 352 352>
LayerCount: 2
Fore
SplineSet
113 23 m 1
 4 244 l 1
 113 465 l 1
 195 465 l 1
 119 244 l 1
 195 23 l 1
 113 23 l 1
271 23 m 1
 161 244 l 1
 271 465 l 1
 352 465 l 1
 277 244 l 1
 352 23 l 1
 271 23 l 1
EndSplineSet
EndChar

StartChar: guillemotright
Encoding: 187 187 64
Width: 362
Flags: MW
HStem: 23 21G<7 88 7 7 164 246 164 164> 445 20G<7 88 88 88 164 246 246 246>
LayerCount: 2
Fore
SplineSet
355 244 m 1
 246 23 l 1
 164 23 l 1
 240 244 l 1
 164 465 l 1
 246 465 l 1
 355 244 l 1
198 244 m 1
 88 23 l 1
 7 23 l 1
 82 244 l 1
 7 465 l 1
 88 465 l 1
 198 244 l 1
EndSplineSet
EndChar

StartChar: guilsinglleft
Encoding: 8249 8249 65
Width: 198
Flags: MW
HStem: 23 21G<113 113 113 195> 445 20G<113 195 195 195>
LayerCount: 2
Fore
SplineSet
113 23 m 1
 4 244 l 1
 113 465 l 1
 195 465 l 1
 119 244 l 1
 195 23 l 1
 113 23 l 1
EndSplineSet
EndChar

StartChar: guilsinglright
Encoding: 8250 8250 66
Width: 198
Flags: MW
HStem: 23 21G<4 86 4 4> 445 20G<4 86 86 86>
LayerCount: 2
Fore
SplineSet
195 244 m 1
 86 23 l 1
 4 23 l 1
 80 244 l 1
 4 465 l 1
 86 465 l 1
 195 244 l 1
EndSplineSet
EndChar

StartChar: a
Encoding: 97 97 67
Width: 709
Flags: MW
HStem: 0 21G<68 301 68 68 458 690 458 458> 480 20G<259 591 591 591>
VStem: 61 240<0 118.5>
LayerCount: 2
Fore
SplineSet
259 500 m 1
 591 500 l 1
 655 361 690 186 690 8 c 2
 690 0 l 1
 458 0 l 1
 455 41 449 80 441 118 c 1
 399 75 351 35 301 0 c 1
 68 0 l 1
 63 29 61 60 61 90 c 0
 61 147 69 203 81 244 c 1
 175 271 276 345 316 423 c 1
 299 450 280 476 259 500 c 1
423 191 m 1
 406 250 384 305 355 359 c 1
 324 267 306 181 301 98 c 1
 344 120 389 153 423 191 c 1
EndSplineSet
EndChar

StartChar: b
Encoding: 98 98 68
Width: 695
Flags: MW
HStem: 0 21G<110 613 110 110> 434 66<466.5 490>
LayerCount: 2
Fore
SplineSet
322 65 m 1
 361 65 402 68 433 76 c 1
 420 156 385 206 331 241 c 1
 325 182 322 123 322 65 c 1
89 500 m 1
 644 500 l 1
 613 404 550 336 472 297 c 1
 545 271 605 237 656 183 c 1
 650 122 634 56 613 0 c 1
 110 0 l 1
 85 87 70 193 70 300 c 0
 70 367 76 435 89 500 c 1
339 310 m 1
 399 326 464 367 490 434 c 1
 443 434 400 433 360 429 c 1
 352 389 345 349 339 310 c 1
EndSplineSet
EndChar

StartChar: c
Encoding: 99 99 69
Width: 632
Flags: MW
HStem: -21 21G<231 254 231 231> 445 78<372 395.5>
VStem: 38 250<252.5 254>
LayerCount: 2
Fore
SplineSet
602 498 m 1
 593 463 576 412 562 379 c 1
 520 375 474 373 432 373 c 1
 439 393 445 418 449 439 c 1
 426 443 406 445 385 445 c 0
 359 445 332 441 303 434 c 1
 292 388 288 347 288 311 c 0
 288 194 341 124 426 73 c 1
 490 115 542 163 592 225 c 1
 595 188 596 149 597 103 c 1
 520 43 425 -21 254 -21 c 2
 231 -21 l 1
 107 32 38 145 38 254 c 0
 39 392 149 523 397 523 c 0
 458 523 525 516 602 498 c 1
EndSplineSet
EndChar

StartChar: d
Encoding: 100 100 70
Width: 718
Flags: MW
HStem: -14 21G<259.5 343.5> 503 20G<278.5 379>
VStem: 445 227<266 328>
LayerCount: 2
Fore
SplineSet
80 500 m 1
 164 512 242 523 315 523 c 0
 443 523 551 506 629 475 c 1
 657 419 672 360 672 301 c 0
 672 231 649 161 595 105 c 1
 506 9 395 -14 292 -14 c 0
 227 -14 173 -7 113 1 c 1
 89 125 74 249 74 372 c 0
 74 416 76 454 80 500 c 1
345 448 m 1
 336 354 327 254 327 145 c 0
 327 113 328 80 330 46 c 1
 405 86 445 193 445 286 c 0
 445 370 413 441 345 448 c 1
EndSplineSet
EndChar

StartChar: e
Encoding: 101 101 71
Width: 671
Flags: MW
HStem: 0 66<381 390 390 417 381 575> 227 72<357.5 430> 348 152 435 65<401 410>
LayerCount: 2
Fore
SplineSet
78 500 m 1x00
 614 500 l 1
 607 459 594 387 582 348 c 1
 540 346 515 345 474 344 c 1
 480 361 482 375 482 387 c 0
 482 423 457 434 410 435 c 0xd0
 392 435 372 433 350 429 c 1
 337 374 325 318 316 262 c 1
 342 286 380 299 415 299 c 0
 445 299 478 293 509 293 c 0
 516 293 523 293 530 294 c 1
 483 206 l 1
 474 206 l 2
 437 206 401 226 370 227 c 0
 345 227 324 216 305 174 c 1
 302 141 300 108 299 76 c 1
 330 70 354 66 381 66 c 2
 390 66 l 2
 444 66 479 85 495 153 c 1
 615 148 l 1xe0
 605 90 594 47 575 0 c 1
 84 0 l 1
 72 81 64 179 64 280 c 0
 64 354 68 429 78 500 c 1x00
EndSplineSet
EndChar

StartChar: f
Encoding: 102 102 72
Width: 619
Flags: MW
HStem: 0 21G<85 302 85 85> 212 72<355 428.5> 343 156<474 474> 345 154
VStem: 66 234<50 317>
LayerCount: 2
Fore
SplineSet
315 247 m 1x00
 341 271 379 284 413 284 c 0
 444 284 477 278 508 278 c 0
 515 278 521 278 528 279 c 1
 481 191 l 1
 472 191 l 2
 435 191 399 211 368 212 c 0
 342 212 323 200 305 161 c 1
 302 127 300 94 300 60 c 0
 300 40 301 19 302 0 c 1
 85 0 l 1
 73 81 66 180 66 280 c 0
 66 354 70 429 80 499 c 1
 614 499 l 1
 607 458 594 386 582 348 c 1
 474 343 l 1xe8
 480 360 483 374 483 386 c 0
 483 421 457 433 410 434 c 0xd8
 393 434 373 433 351 429 c 1
 336 369 324 308 315 247 c 1x00
EndSplineSet
EndChar

StartChar: g
Encoding: 103 103 73
Width: 675
Flags: MW
HStem: -22 21G<222 286 222 222> 372 151
VStem: 29 249<304.5 322> 417 204<84.5 260>
LayerCount: 2
Fore
SplineSet
593 498 m 1
 584 462 568 411 554 378 c 1
 512 375 465 373 423 372 c 1
 430 393 436 418 439 439 c 1
 418 443 398 445 378 445 c 0xf0
 350 445 323 441 294 434 c 1
 283 387 278 347 278 311 c 0
 278 298 279 286 280 274 c 0
 291 179 339 90 416 49 c 1
 416 63 417 78 417 91 c 0
 417 147 413 195 405 260 c 1
 621 260 l 1
 621 171 618 93 607 0 c 1
 487 -17 402 -22 286 -22 c 2
 222 -22 l 1
 97 32 29 144 29 253 c 0
 29 391 139 523 388 523 c 0
 448 523 516 515 593 498 c 1
EndSplineSet
EndChar

StartChar: h
Encoding: 104 104 74
Width: 740
Flags: MW
HStem: 0 21G<68 295 68 68 422 661 422 422> 480 20G<63 327 327 327 437 697 697 697>
VStem: 81 246<181.5 500> 417 204
LayerCount: 2
Fore
SplineSet
437 500 m 1
 697 500 l 1
 698 472 699 444 699 417 c 0
 699 272 684 134 661 0 c 1
 422 0 l 1
 433 79 440 165 443 254 c 1
 412 273 364 289 327 293 c 1xe0
 323 192 312 95 295 0 c 1
 68 0 l 1xd0
 77 68 81 143 81 220 c 0xe0
 81 316 75 414 63 500 c 1
 327 500 l 1
 329 459 329 418 329 378 c 1
 371 365 409 348 444 329 c 1
 444 386 442 444 437 500 c 1
EndSplineSet
EndChar

StartChar: i
Encoding: 105 105 75
Width: 396
Flags: MW
HStem: 0 21G<68 308 68 68> 480 20G<71 341 341 341>
LayerCount: 2
Fore
SplineSet
71 500 m 1
 341 500 l 1
 341 473 l 2
 341 316 333 158 308 0 c 1
 68 0 l 1
 82 68 87 143 87 222 c 0
 87 312 80 406 71 500 c 1
EndSplineSet
EndChar

StartChar: j
Encoding: 106 106 76
Width: 531
Flags: MW
HStem: -115 21G 480 20G<176 446 446 446>
VStem: 199 249<99.5 402.5>
LayerCount: 2
Fore
SplineSet
192 -45 m 1
 197 11 199 69 199 130 c 0
 199 249 191 375 176 500 c 1
 446 500 l 1
 448 462 448 422 448 383 c 0
 448 252 439 116 420 0 c 1
 357 -60 286 -86 223 -115 c 1
 132 -108 69 -95 5 -70 c 1
 6 -28 8 14 11 52 c 1
 79 3 130 -24 192 -45 c 1
EndSplineSet
EndChar

StartChar: k
Encoding: 107 107 77
Width: 707
Flags: MW
HStem: 0 244 409 91 502 20G
VStem: 41 236<68 300.5>
LayerCount: 2
Fore
SplineSet
293 292 m 1
 348 382 408 453 505 502 c 1
 526 506 548 507 570 507 c 2
 603 507 l 2
 636 507 669 508 698 522 c 1
 671 482 643 444 613 409 c 1
 597 409 l 2
 563 409 531 414 498 425 c 1
 447 383 416 337 389 276 c 1
 457 259 530 248 625 244 c 1
 648 187 661 80 666 0 c 1
 407 0 l 1
 385 98 334 191 284 222 c 1
 280 175 277 128 277 82 c 0
 277 54 278 27 280 0 c 1
 60 0 l 1
 49 85 41 173 41 261 c 0
 41 340 48 420 56 500 c 1
 334 500 l 1
 317 429 302 359 293 292 c 1
EndSplineSet
EndChar

StartChar: l
Encoding: 108 108 78
Width: 602
Flags: MW
HStem: 0 66<349 364 349 550> 480 20G<54 342 342 342>
VStem: 40 234
LayerCount: 2
Fore
SplineSet
274 77 m 1
 308 69 334 66 364 66 c 0
 418 67 454 86 470 153 c 1
 590 149 l 1xe0
 580 91 569 46 550 0 c 1
 59 0 l 1
 47 81 40 180 40 281 c 0
 40 355 44 430 54 500 c 1
 342 500 l 1
 307 365 276 216 274 77 c 1
EndSplineSet
EndChar

StartChar: m
Encoding: 109 109 79
Width: 1052
Flags: MW
HStem: 0 21G<43 286 43 43 426 622 426 426 775 1006 775 775> 480 20G<234 550 550 550 649 934 934 934>
VStem: 36 236<93.5 119.5> 775 231<0 0>
LayerCount: 2
Fore
SplineSet
234 500 m 1
 550 500 l 1
 577 427 595 353 607 276 c 1
 637 332 657 403 657 454 c 0
 657 472 654 488 649 500 c 1
 934 500 l 1
 986 361 1005 144 1006 0 c 1
 775 0 l 1
 771 110 750 239 716 347 c 1
 665 247 628 143 622 0 c 1
 426 0 l 1
 409 130 377 244 326 348 c 1
 294 273 272 194 272 112 c 0
 272 75 276 38 286 0 c 1
 43 0 l 1
 38 29 36 61 36 91 c 0
 36 148 44 203 56 244 c 1
 148 271 247 341 289 418 c 1
 272 446 254 473 234 500 c 1
EndSplineSet
EndChar

StartChar: n
Encoding: 110 110 80
Width: 715
Flags: MW
HStem: 0 21G<76 193 76 76 546 642 546 546> 480 20G<23 307 307 307 527 646 646 646>
VStem: 96 102<112.5 272> 560 92<241.5 275.5>
LayerCount: 2
Fore
SplineSet
527 500 m 1
 646 500 l 1
 650 430 652 360 652 290 c 0
 652 193 648 97 642 0 c 1
 546 0 l 1
 404 76 275 189 190 283 c 1
 195 241 198 189 198 134 c 0
 198 91 196 45 193 0 c 1
 76 0 l 1
 89 80 96 166 96 245 c 0
 96 299 93 350 86 393 c 1
 64 426 50 445 23 500 c 1
 307 500 l 1
 364 401 475 288 560 232 c 1
 560 319 554 400 527 500 c 1
EndSplineSet
EndChar

StartChar: o
Encoding: 111 111 81
Width: 658
Flags: MW
HStem: -22 21G<239.5 261> 503 20G<390 416.5>
VStem: 34 206<241.5 244> 420 207<165 335>
LayerCount: 2
Fore
SplineSet
123 3 m 1
 62 81 34 159 34 232 c 0
 34 256 38 282 44 305 c 0
 80 433 212 522 390 523 c 0
 443 523 499 515 555 498 c 1
 605 435 627 367 627 303 c 0
 627 277 624 251 617 228 c 0
 578 88 436 -21 261 -22 c 0
 218 -22 170 -13 123 3 c 1
275 436 m 1
 250 393 240 343 240 293 c 0
 240 190 289 88 373 47 c 1
 405 88 420 139 420 191 c 0
 420 287 368 388 275 436 c 1
EndSplineSet
EndChar

StartChar: p
Encoding: 112 112 82
Width: 665
Flags: MW
HStem: 0 21G<79 299 79 79> 480 20G<49 591 591 591>
LayerCount: 2
Fore
SplineSet
294 145 m 1
 294 96 296 48 299 0 c 1
 79 0 l 1
 54 97 38 218 38 338 c 0
 38 393 41 448 49 500 c 1
 591 500 l 1
 612 419 621 346 623 231 c 1
 527 188 405 157 294 145 c 1
295 214 m 1
 328 218 379 233 402 246 c 1
 392 313 357 386 316 434 c 1
 304 360 298 287 295 214 c 1
EndSplineSet
EndChar

StartChar: q
Encoding: 113 113 83
Width: 666
Flags: MW
HStem: -22 99 503 20G<306.5 422>
VStem: 40 205<241.5 244> 426 207<164.5 334>
LayerCount: 2
Fore
SplineSet
129 3 m 1
 68 81 40 160 40 232 c 0
 40 256 44 281 50 304 c 0
 87 432 217 523 396 523 c 0
 448 523 505 516 560 499 c 1
 611 435 633 366 633 302 c 0
 633 276 630 251 623 227 c 0
 605 161 563 103 508 59 c 1
 540 64 564 77 595 77 c 0
 607 77 620 75 635 70 c 1
 707 -23 l 2
 694 -5 669 1 640 1 c 0xf0
 585 1 512 -19 459 -22 c 1
 447 -17 429 -3 419 8 c 1
 373 -11 321 -22 267 -22 c 0
 223 -22 176 -13 129 3 c 1
281 435 m 1
 256 392 245 343 245 293 c 0
 245 190 295 88 379 47 c 1
 411 88 426 138 426 191 c 0
 426 287 374 388 281 435 c 1
EndSplineSet
EndChar

StartChar: r
Encoding: 114 114 84
Width: 706
Flags: MW
HStem: 0 202<587 608 587 679 420 608> 480 20G<77 599 599 599>
VStem: 63 245
LayerCount: 2
Fore
SplineSet
421 225 m 1
 481 209 531 202 587 202 c 2
 608 202 l 1
 642 152 668 84 679 0 c 1
 420 0 l 1
 407 93 363 165 305 189 c 1
 304 172 304 156 304 140 c 0
 304 93 306 47 310 0 c 1
 92 0 l 1
 73 95 63 194 63 293 c 0
 63 362 68 432 77 500 c 1
 599 500 l 1
 615 430 622 383 622 326 c 0
 622 315 621 304 621 292 c 1
 565 262 496 240 421 225 c 1
326 433 m 1
 318 374 312 316 308 260 c 1
 342 265 374 278 398 299 c 1
 383 353 361 389 326 433 c 1
EndSplineSet
EndChar

StartChar: s
Encoding: 115 115 85
Width: 635
Flags: MW
HStem: -112 21G -54 21 -54 101<62 115.5> 374 149<406 407 334 427> 446 77<334 351.5>
LayerCount: 2
Fore
SplineSet
575 499 m 1x00
 566 463 550 413 536 380 c 1
 494 377 448 374 406 374 c 1
 414 395 419 419 423 440 c 1
 396 444 366 446 337 446 c 0xa8
 309 446 278 444 249 440 c 1
 310 337 401 321 490 261 c 0
 537 230 615 150 631 61 c 1
 568 -21 453 -91 342 -112 c 1
 231 -103 154 -54 77 -54 c 0
 47 -54 18 -61 -14 -81 c 1
 1 -38 22 4 45 47 c 1
 53 47 l 2
 202 47 266 -32 361 -33 c 0xd0
 371 -33 383 -32 393 -29 c 1
 393 63 330 106 267 150 c 2
 250 162 l 2
 178 212 103 271 74 377 c 1
 91 415 119 470 137 500 c 1
 199 515 265 523 334 523 c 2
 378 523 l 2
 436 523 501 515 575 499 c 1x00
EndSplineSet
EndChar

StartChar: t
Encoding: 116 116 86
Width: 705
Flags: MW
HStem: 0 21G<236 454 236 236> 326 174<1 702 555 555> 435 65<472 496>
VStem: 202 244<122.5 357.5> 446 113
LayerCount: 2
Fore
SplineSet
472 435 m 1x00
 456 338 446 242 446 147 c 0
 446 98 449 48 454 0 c 1
 236 0 l 1
 212 112 202 227 202 342 c 0
 202 373 203 404 204 435 c 1xd0
 142 417 112 377 100 320 c 1
 1 326 l 1
 37 500 l 1
 702 500 l 1
 690 435 678 380 656 320 c 1
 555 326 l 1xa8
 558 338 559 348 559 358 c 0
 559 413 520 435 472 435 c 1x00
EndSplineSet
EndChar

StartChar: u
Encoding: 117 117 87
Width: 701
Flags: MW
HStem: -22 67<405.5 443.5> 480 20G<87 356 356 356 530 658 658 658>
VStem: 72 242 558 104<152.5 375.5>
LayerCount: 2
Fore
SplineSet
530 500 m 1
 658 500 l 1
 661 451 662 401 662 350 c 0
 662 247 657 142 646 45 c 1
 581 3 490 -22 397 -22 c 0
 270 -22 165 0 85 45 c 1
 76 120 72 185 72 251 c 0
 72 327 77 404 87 500 c 1
 356 500 l 1
 329 355 315 215 314 83 c 1
 333 66 373 45 438 45 c 0
 504 45 535 59 556 73 c 1
 558 106 558 137 558 168 c 0
 558 278 549 382 530 500 c 1
EndSplineSet
EndChar

StartChar: v
Encoding: 118 118 88
Width: 703
Flags: MW
HStem: 0 21G<220 471 220 220> 480 20G<8 281 281 281 403 670 670 670>
VStem: 429 242<305 463.5>
LayerCount: 2
Fore
SplineSet
471 0 m 1
 220 0 l 1
 103 149 34 329 8 500 c 1
 281 500 l 1xe0
 284 378 320 250 375 143 c 1
 411 203 429 269 429 341 c 0
 429 391 420 444 403 500 c 1
 670 500 l 1
 671 485 671 471 671 456 c 0
 671 377 660 301 637 245 c 1
 537 202 434 147 434 76 c 0
 434 53 445 27 471 0 c 1
EndSplineSet
EndChar

StartChar: w
Encoding: 119 119 89
Width: 1040
Flags: MW
HStem: 0 21G<218 469 218 218 578 830 578 578> 480 20G<14 280 280 280 402 640 640 640 761 1029 1029 1029>
VStem: 280 139<313 500> 785 245<309 463.5>
LayerCount: 2
Fore
SplineSet
402 500 m 1
 640 500 l 1
 650 377 682 249 734 143 c 1
 767 204 785 272 785 346 c 0
 785 395 778 446 761 500 c 1
 1029 500 l 1
 1030 485 1030 471 1030 456 c 0
 1030 377 1019 301 996 244 c 1
 912 220 836 179 804 131 c 0
 793 115 789 98 789 82 c 0
 789 52 806 24 830 0 c 1
 578 0 l 1
 534 66 500 138 473 213 c 1
 452 165 440 122 440 85 c 0
 440 52 449 24 469 0 c 1
 218 0 l 1
 114 138 39 329 14 500 c 1
 280 500 l 1
 290 375 315 249 368 143 c 1
 401 199 419 272 419 354 c 0
 419 400 413 449 402 500 c 1
EndSplineSet
EndChar

StartChar: x
Encoding: 120 120 90
Width: 701
Flags: MW
HStem: -147 21G 0 21G<376 625 376 376> 566 20G
LayerCount: 2
Fore
SplineSet
587 555 m 1
 635 570 690 559 731 586 c 1
 712 542 696 514 674 481 c 1
 654 476 634 473 614 473 c 0
 601 473 588 474 574 476 c 1
 521 438 475 388 432 339 c 1
 486 255 553 151 625 0 c 1
 376 0 l 1
 350 55 323 108 294 159 c 1
 226 62 163 -40 123 -121 c 1
 86 -130 46 -138 8 -147 c 1
 66 -43 162 93 259 217 c 1
 194 319 119 413 26 500 c 1
 337 500 l 1
 354 464 375 428 401 388 c 1
 454 448 510 527 587 555 c 1
EndSplineSet
EndChar

StartChar: y
Encoding: 121 121 91
Width: 688
Flags: MW
HStem: -397 21G 0 21G<117 324 117 117> 567 20G
LayerCount: 2
Fore
SplineSet
572 556 m 1
 620 571 675 560 716 587 c 1
 697 543 682 514 660 481 c 1
 639 476 619 473 599 473 c 0
 586 473 573 474 559 476 c 1
 493 397 461 257 438 146 c 0
 409 8 358 -224 286 -368 c 1
 250 -379 205 -389 162 -397 c 1
 243 -258 295 -105 324 0 c 1
 117 0 l 1
 67 162 37 331 35 500 c 1
 327 500 l 1
 313 438 306 377 306 316 c 0
 306 232 319 147 340 64 c 1
 400 292 437 509 572 556 c 1
EndSplineSet
EndChar

StartChar: z
Encoding: 122 122 92
Width: 638
Flags: MW
HStem: 0 67<396 405 405 431.5 396 590> 435 65<223 268.5>
LayerCount: 2
Fore
SplineSet
312 77 m 1
 343 71 369 67 396 67 c 2
 405 67 l 2
 458 67 494 86 510 153 c 1
 551 152 588 151 630 149 c 1xc0
 620 91 609 47 590 0 c 1
 19 0 l 1
 93 133 194 289 315 430 c 1
 296 434 283 435 254 435 c 0
 192 435 142 399 130 342 c 1
 99 344 63 346 32 349 c 1
 63 500 l 1
 620 500 l 1
 500 370 398 229 312 77 c 1
EndSplineSet
EndChar

StartChar: percent
Encoding: 37 37 93
Width: 540
Flags: MW
HStem: -36 21G<124 124> -14 21G<355 412.5> 519 20G<403 403>
VStem: 4 104<396.5 418> 171 104<371.5 372> 262 103<126 146> 428 105<66.5 158.5>
LayerCount: 2
Fore
SplineSet
372 204 m 1x00
 368 188 365 171 365 153 c 0
 365 99 385 40 417 19 c 1
 424 35 428 56 428 77 c 0
 428 126 408 180 372 204 c 1x00
124 -36 m 1
 84 -13 l 1
 194 169 300 353 403 539 c 1
 443 516 l 1
 333 337 226 153 124 -36 c 1
115 476 m 1
 111 460 108 442 108 424 c 0
 108 369 128 311 160 290 c 1
 167 306 171 326 171 347 c 0xf6
 171 397 151 451 115 476 c 1
45 268 m 1
 17 306 4 344 4 378 c 0
 4 458 72 518 172 518 c 0
 194 518 217 515 241 509 c 1
 265 478 275 445 275 413 c 0
 275 330 203 257 109 257 c 0
 89 257 67 261 45 268 c 1
303 -4 m 1
 274 34 262 72 262 106 c 0
 262 186 331 247 431 247 c 0
 452 247 475 244 499 238 c 1
 522 207 533 174 533 143 c 0
 533 60 460 -14 365 -14 c 0xfa
 345 -14 324 -11 303 -4 c 1
EndSplineSet
EndChar

StartChar: braceleft
Encoding: 123 123 94
Width: 254
Flags: MW
HStem: -114 21G 585 20G<147 147 147 214 198 214>
LayerCount: 2
Fore
SplineSet
147 605 m 1
 147 605 l 1
 182 605 182 605 214 605 c 1
 196 529 184 452 179 375 c 0
 176 332 169 259 135 246 c 1
 169 233 182 174 186 138 c 0
 198 51 219 -34 249 -114 c 1
 183 -105 197 -106 137 -94 c 1
 93 -26 67 55 56 138 c 0
 51 174 55 233 5 246 c 1
 55 257 56 334 63 376 c 0
 79 461 108 541 147 605 c 1
EndSplineSet
EndChar

StartChar: braceright
Encoding: 125 125 95
Width: 252
Flags: MW
HStem: -114 21G<40 107 40 56 107 107> 585 20G
LayerCount: 2
Fore
SplineSet
107 -114 m 1
 107 -114 l 1
 73 -114 72 -114 40 -114 c 1
 59 -37 71 40 76 116 c 0
 78 159 85 233 119 246 c 1
 85 258 73 318 68 353 c 0
 57 441 36 526 5 605 c 1
 72 597 58 597 117 585 c 1
 162 517 188 437 199 353 c 0
 203 318 200 259 250 246 c 1
 199 234 199 158 191 116 c 0
 176 31 146 -49 107 -114 c 1
EndSplineSet
EndChar

StartChar: bracketleft
Encoding: 91 91 96
Width: 249
Flags: MW
HStem: -116 98 595 20G
VStem: 58 109
LayerCount: 2
Fore
SplineSet
234 605 m 1
 226 573 216 540 199 507 c 1
 191 506 180 506 167 506 c 1
 155 329 153 156 156 -17 c 1
 181 -18 206 -19 234 -18 c 1
 226 -50 216 -83 199 -116 c 1
 89 -120 40 -111 41 -109 c 0
 64 133 66 374 58 615 c 1
 121 605 180 604 234 605 c 1
 234 605 l 1
EndSplineSet
EndChar

StartChar: bracketright
Encoding: 93 93 97
Width: 248
Flags: MW
HStem: 595 20G
VStem: 37 148 81 104
LayerCount: 2
Fore
SplineSet
208 605 m 1x00
 184 364 180 127 185 -113 c 1
 132 -115 63 -119 15 -111 c 1
 30 -77 36 -42 37 -7 c 1
 52 -9 67 -12 81 -14 c 1xa0
 94 162 96 334 93 506 c 1
 63 506 33 508 15 512 c 1
 30 547 36 581 37 615 c 1xc0
 65 606 207 603 208 605 c 1
 208 605 l 1x00
EndSplineSet
EndChar

StartChar: daggerdbl
Encoding: 8225 8225 98
Width: 403
Flags: MW
HStem: -114 21G<166 233 166 177> 63 63 354 67<14 14 384 384> 585 20G<166 233 221.5 233>
VStem: 14 219 170 63 170 214<126 131 354 360>
LayerCount: 2
Fore
SplineSet
14 421 m 1x00
 66 418 118 416 169 416 c 1
 168 479 167 542 166 605 c 1
 188 605 210 605 233 605 c 1
 231 542 229 479 228 416 c 1
 280 417 332 418 384 421 c 1xf4
 384 398 384 376 384 354 c 1
 332 357 280 359 227 360 c 1
 226 282 226 204 227 126 c 1
 279 126 332 128 384 131 c 1
 384 108 384 86 384 63 c 1
 332 67 280 69 228 70 c 1
 229 9 231 -52 233 -114 c 1xf8
 210 -114 188 -114 166 -114 c 1
 167 -52 168 9 169 70 c 1
 118 69 66 67 14 63 c 1
 14 86 14 108 14 131 c 1
 66 128 118 126 170 126 c 1xf2
 171 204 171 282 170 360 c 1
 118 359 66 357 14 354 c 1xf8
 14 376 14 398 14 421 c 1
 14 421 l 1x00
EndSplineSet
EndChar

StartChar: dagger
Encoding: 8224 8224 99
Width: 418
Flags: MW
HStem: -114 21G<171 238 171 182> 354 67<19 19 389 389> 585 20G<171 238 226.5 238>
VStem: 175 63
LayerCount: 2
Fore
SplineSet
19 421 m 1
 71 418 123 416 174 416 c 1
 173 479 172 542 171 605 c 1
 193 605 215 605 238 605 c 1
 236 542 234 479 233 416 c 1
 285 417 337 418 389 421 c 1
 389 398 389 376 389 354 c 1
 337 357 285 359 232 360 c 1
 230 203 232 45 238 -114 c 1
 215 -114 193 -114 171 -114 c 1
 175 44 176 202 175 360 c 1
 123 359 71 357 19 354 c 1
 19 376 19 398 19 421 c 1
 19 421 l 1
EndSplineSet
EndChar

StartChar: plusminus
Encoding: 177 177 100
Width: 284
Flags: MW
HStem: 64 53<12 270> 266 49 401 20G<115 168 159 168>
VStem: 12 151<64 271 117 271 117 271 266 271 315 318 318 318 318 318> 118 45<253 271 315 332.5> 118 152<266 271 315 318>
LayerCount: 2
Fore
SplineSet
12 318 m 1x00
 47 316 83 315 118 315 c 1xe8
 118 350 117 386 115 421 c 1
 132 421 150 421 168 421 c 1
 165 386 163 350 163 315 c 1
 199 315 235 316 270 318 c 1xe4
 270 301 270 283 270 266 c 1
 235 268 199 270 163 271 c 1xe8
 163 235 165 199 168 163 c 1
 150 163 132 163 115 163 c 1
 117 199 118 235 118 271 c 1
 83 270 47 268 12 266 c 1xf0
 12 283 12 301 12 318 c 1
 12 318 l 1x00
12 117 m 1
 98 111 184 112 270 117 c 1xe4
 270 99 270 81 270 64 c 1
 185 70 99 71 12 64 c 1xf0
 12 81 12 99 12 117 c 1
 12 117 l 1
EndSplineSet
EndChar

StartChar: uni0406
Encoding: 1030 1030 101
Width: 396
Flags: MW
HStem: 0 21G<68 308 68 68> 480 20G<71 341 341 341>
LayerCount: 2
Fore
SplineSet
71 500 m 1
 341 500 l 1
 341 473 l 2
 341 316 333 158 308 0 c 1
 68 0 l 1
 82 68 87 143 87 222 c 0
 87 312 80 406 71 500 c 1
EndSplineSet
EndChar

StartChar: uni0456
Encoding: 1110 1110 102
Width: 396
Flags: MW
HStem: 0 21G<68 308 68 68> 480 20G<71 341 341 341>
LayerCount: 2
Fore
SplineSet
71 500 m 1
 341 500 l 1
 341 473 l 2
 341 316 333 158 308 0 c 1
 68 0 l 1
 82 68 87 143 87 222 c 0
 87 312 80 406 71 500 c 1
EndSplineSet
EndChar

StartChar: uni0405
Encoding: 1029 1029 103
Width: 635
Flags: MW
HStem: -112 21G -54 21 -54 101<62 115.5> 374 149<406 407 334 427> 446 77<334 351.5>
LayerCount: 2
Fore
SplineSet
575 499 m 1x00
 566 463 550 413 536 380 c 1
 494 377 448 374 406 374 c 1
 414 395 419 419 423 440 c 1
 396 444 366 446 337 446 c 0xa8
 309 446 278 444 249 440 c 1
 310 337 401 321 490 261 c 0
 537 230 615 150 631 61 c 1
 568 -21 453 -91 342 -112 c 1
 231 -103 154 -54 77 -54 c 0
 47 -54 18 -61 -14 -81 c 1
 1 -38 22 4 45 47 c 1
 53 47 l 2
 202 47 266 -32 361 -33 c 0xd0
 371 -33 383 -32 393 -29 c 1
 393 63 330 106 267 150 c 2
 250 162 l 2
 178 212 103 271 74 377 c 1
 91 415 119 470 137 500 c 1
 199 515 265 523 334 523 c 2
 378 523 l 2
 436 523 501 515 575 499 c 1x00
EndSplineSet
EndChar

StartChar: uni0455
Encoding: 1109 1109 104
Width: 635
Flags: MW
HStem: -112 21G -54 21 -54 101<62 115.5> 374 149<406 407 334 427> 446 77<334 351.5>
LayerCount: 2
Fore
SplineSet
575 499 m 1x00
 566 463 550 413 536 380 c 1
 494 377 448 374 406 374 c 1
 414 395 419 419 423 440 c 1
 396 444 366 446 337 446 c 0xa8
 309 446 278 444 249 440 c 1
 310 337 401 321 490 261 c 0
 537 230 615 150 631 61 c 1
 568 -21 453 -91 342 -112 c 1
 231 -103 154 -54 77 -54 c 0
 47 -54 18 -61 -14 -81 c 1
 1 -38 22 4 45 47 c 1
 53 47 l 2
 202 47 266 -32 361 -33 c 0xd0
 371 -33 383 -32 393 -29 c 1
 393 63 330 106 267 150 c 2
 250 162 l 2
 178 212 103 271 74 377 c 1
 91 415 119 470 137 500 c 1
 199 515 265 523 334 523 c 2
 378 523 l 2
 436 523 501 515 575 499 c 1x00
EndSplineSet
EndChar

StartChar: uni0408
Encoding: 1032 1032 105
Width: 531
Flags: MW
HStem: -115 21G 480 20G<176 446 446 446>
VStem: 199 249<99.5 402.5>
LayerCount: 2
Fore
SplineSet
192 -45 m 1
 197 11 199 69 199 130 c 0
 199 249 191 375 176 500 c 1
 446 500 l 1
 448 462 448 422 448 383 c 0
 448 252 439 116 420 0 c 1
 357 -60 286 -86 223 -115 c 1
 132 -108 69 -95 5 -70 c 1
 6 -28 8 14 11 52 c 1
 79 3 130 -24 192 -45 c 1
EndSplineSet
EndChar

StartChar: uni0458
Encoding: 1112 1112 106
Width: 531
Flags: MW
HStem: -115 21G 480 20G<176 446 446 446>
VStem: 199 249<99.5 402.5>
LayerCount: 2
Fore
SplineSet
192 -45 m 1
 197 11 199 69 199 130 c 0
 199 249 191 375 176 500 c 1
 446 500 l 1
 448 462 448 422 448 383 c 0
 448 252 439 116 420 0 c 1
 357 -60 286 -86 223 -115 c 1
 132 -108 69 -95 5 -70 c 1
 6 -28 8 14 11 52 c 1
 79 3 130 -24 192 -45 c 1
EndSplineSet
EndChar

StartChar: dollar
Encoding: 36 36 107
Width: 652
Flags: MW
HStem: -58 102<236 275 213.5 300 236 247 213.5 417 213.5 364.5> -43 20G<299 308> -22 66 -22 159 374 148 456 66 456 104<354 410.5> 503 20G<345.5 355>
LayerCount: 2
Fore
SplineSet
120 499 m 1x00
 158 507 197 513 238 517 c 1
 237 531 237 545 236 560 c 1
 258 560 279 560 300 560 c 1
 299 547 299 534 299 521 c 1
 317 522 336 523 355 523 c 1x58
 354 535 354 547 354 560 c 1x88
 375 560 396 560 417 560 c 1
 417 547 416 534 416 522 c 1x68
 481 519 548 512 613 499 c 1
 605 459 595 412 583 379 c 1
 534 377 503 376 454 374 c 1
 482 446 448 456 373 456 c 0x84
 326 456 283 453 248 445 c 1
 344 305 517 324 642 183 c 1
 626 113 606 61 568 1 c 1
 530 -9 476 -16 416 -20 c 1
 416 -33 416 -46 417 -58 c 1
 396 -58 375 -58 354 -58 c 1
 354 -46 354 -34 355 -22 c 1x88
 336 -23 317 -23 299 -23 c 1
 299 -35 299 -47 300 -58 c 1x82
 279 -58 258 -58 236 -58 c 1
 237 -46 237 -34 238 -22 c 1x81
 152 -20 69 -12 12 1 c 1
 21 43 34 100 46 133 c 1
 95 135 126 136 175 137 c 1
 147 65 176 44 251 44 c 0x82
 299 44 355 48 398 55 c 1
 310 151 111 209 54 388 c 1
 73 426 100 471 120 499 c 1
 120 499 l 1x00
EndSplineSet
EndChar

StartChar: Euro
Encoding: 8364 8364 108
Width: 650
Flags: MW
HStem: 180 54<5 25> 284 50
LayerCount: 2
Fore
SplineSet
640 499 m 1
 631 462 615 411 600 378 c 1
 559 374 512 372 470 371 c 1
 477 393 483 418 487 439 c 1
 435 447 392 446 341 434 c 1
 333 396 328 361 326 331 c 1
 389 331 451 332 513 334 c 1
 496 279 l 1
 439 281 383 283 327 284 c 1
 328 265 331 248 336 231 c 1
 383 232 431 232 479 234 c 1
 461 180 l 1
 426 181 390 183 354 183 c 1
 378 136 417 101 464 72 c 1
 527 113 580 163 630 225 c 1
 633 187 635 148 636 102 c 1
 556 40 454 -28 269 -22 c 1
 171 19 108 98 85 183 c 1
 59 182 32 181 5 180 c 1
 25 234 l 1
 42 233 60 233 77 232 c 1
 77 240 76 247 76 254 c 0
 76 263 77 272 78 282 c 1
 54 281 29 280 5 279 c 1
 25 334 l 1
 46 333 68 333 88 332 c 1
 135 469 308 572 640 499 c 1
 640 499 l 1
EndSplineSet
EndChar

StartChar: uni041D
Encoding: 1053 1053 109
Width: 740
Flags: MW
HStem: 0 21G<68 295 68 68 422 661 422 422> 480 20G<63 327 327 327 437 697 697 697>
VStem: 81 246<181.5 500> 118 45
LayerCount: 2
Fore
SplineSet
437 500 m 1x00
 697 500 l 1
 698 472 699 444 699 417 c 0
 699 272 684 134 661 0 c 1
 422 0 l 1
 433 79 440 165 443 254 c 1
 412 273 364 289 327 293 c 1xe0
 323 192 312 95 295 0 c 1
 68 0 l 1xd0
 77 68 81 143 81 220 c 0xe0
 81 316 75 414 63 500 c 1
 327 500 l 1
 329 459 329 418 329 378 c 1
 371 365 409 348 444 329 c 1
 444 386 442 444 437 500 c 1x00
EndSplineSet
EndChar

StartChar: uni041E
Encoding: 1054 1054 110
Width: 658
Flags: MW
HStem: -22 21G<239.5 261> 503 20G<390 416.5>
VStem: 34 206<241.5 244> 420 207<165 335>
LayerCount: 2
Fore
SplineSet
123 3 m 1
 62 81 34 159 34 232 c 0
 34 256 38 282 44 305 c 0
 80 433 212 522 390 523 c 0
 443 523 499 515 555 498 c 1
 605 435 627 367 627 303 c 0
 627 277 624 251 617 228 c 0
 578 88 436 -21 261 -22 c 0
 218 -22 170 -13 123 3 c 1
275 436 m 1
 250 393 240 343 240 293 c 0
 240 190 289 88 373 47 c 1
 405 88 420 139 420 191 c 0
 420 287 368 388 275 436 c 1
EndSplineSet
EndChar

StartChar: uni0420
Encoding: 1056 1056 111
Width: 665
Flags: MW
HStem: 0 21G<79 299 79 79> 480 20G<49 591 591 591>
LayerCount: 2
Fore
SplineSet
294 145 m 1
 294 96 296 48 299 0 c 1
 79 0 l 1
 54 97 38 218 38 338 c 0
 38 393 41 448 49 500 c 1
 591 500 l 1
 612 419 621 346 623 231 c 1
 527 188 405 157 294 145 c 1
295 214 m 1
 328 218 379 233 402 246 c 1
 392 313 357 386 316 434 c 1
 304 360 298 287 295 214 c 1
EndSplineSet
EndChar

StartChar: uni0421
Encoding: 1057 1057 112
Width: 632
Flags: MW
HStem: -21 21G<231 254 231 231> 445 78<372 395.5>
VStem: 38 250<252.5 254>
LayerCount: 2
Fore
SplineSet
602 498 m 1
 593 463 576 412 562 379 c 1
 520 375 474 373 432 373 c 1
 439 393 445 418 449 439 c 1
 426 443 406 445 385 445 c 0
 359 445 332 441 303 434 c 1
 292 388 288 347 288 311 c 0
 288 194 341 124 426 73 c 1
 490 115 542 163 592 225 c 1
 595 188 596 149 597 103 c 1
 520 43 425 -21 254 -21 c 2
 231 -21 l 1
 107 32 38 145 38 254 c 0
 39 392 149 523 397 523 c 0
 458 523 525 516 602 498 c 1
EndSplineSet
EndChar

StartChar: uni0422
Encoding: 1058 1058 113
Width: 705
Flags: MW
HStem: 0 21G<236 454 236 236> 326 174<1 702 555 555> 435 65<472 496>
VStem: 202 244<122.5 357.5> 446 113
LayerCount: 2
Fore
SplineSet
472 435 m 1x00
 456 338 446 242 446 147 c 0
 446 98 449 48 454 0 c 1
 236 0 l 1
 212 112 202 227 202 342 c 0
 202 373 203 404 204 435 c 1xd0
 142 417 112 377 100 320 c 1
 1 326 l 1
 37 500 l 1
 702 500 l 1
 690 435 678 380 656 320 c 1
 555 326 l 1xa8
 558 338 559 348 559 358 c 0
 559 413 520 435 472 435 c 1x00
EndSplineSet
EndChar

StartChar: uni0411
Encoding: 1041 1041 114
Width: 706
Flags: MW
HStem: 0 21G<94 596 94 177.5> 435 65<485.5 512>
LayerCount: 2
Fore
SplineSet
315 250 m 1
 315 250 l 1
 308 188 305 127 305 66 c 1
 340 66 382 68 417 77 c 1
 406 160 364 211 315 250 c 1
72 500 m 1
 72 500 l 1
 272 500 471 500 671 500 c 1
 663 459 653 418 639 379 c 1
 591 378 548 376 500 375 c 1xc0
 506 394 511 416 512 435 c 1
 459 435 398 434 343 429 c 1
 335 393 329 356 323 319 c 1
 445 304 562 271 639 220 c 1
 632 146 619 69 596 0 c 1
 429 0 261 0 94 0 c 1
 54 141 37 330 72 500 c 1
EndSplineSet
EndChar

StartChar: uni0413
Encoding: 1043 1043 115
Width: 603
Flags: MW
HStem: 0 21G<71 288 71 105.5> 348 152
LayerCount: 2
Fore
SplineSet
600 500 m 1
 593 459 579 387 568 348 c 1
 526 347 501 346 460 344 c 1
 483 414 458 434 396 435 c 0xc0
 379 435 358 433 336 429 c 1
 302 288 278 137 288 0 c 1
 219 0 140 0 71 0 c 1
 50 141 42 334 65 500 c 1
 243 500 422 500 600 500 c 1
 600 500 l 1
EndSplineSet
EndChar

StartChar: uni0414
Encoding: 1044 1044 116
Width: 743
Flags: MW
HStem: -111 177 480 20G<243 574 519 574>
LayerCount: 2
Fore
SplineSet
6 77 m 1
 6 77 l 1
 27 75 48 74 69 73 c 1
 67 136 75 199 88 244 c 1
 183 272 261 345 300 423 c 1
 283 450 264 476 243 500 c 1
 353 500 464 500 574 500 c 1
 632 377 665 226 672 69 c 1
 693 68 718 67 740 66 c 1
 728 1 715 -55 694 -115 c 1
 658 -113 620 -111 584 -109 c 1
 613 -35 579 0 511 0 c 0
 411 0 317 0 217 0 c 0xc0
 150 0 127 -44 134 -114 c 1
 93 -113 85 -113 44 -111 c 1
 32 -72 12 35 6 77 c 1
339 356 m 1
 339 356 l 1
 300 266 276 168 290 77 c 1
 338 70 378 67 426 66 c 1
 413 173 384 269 339 356 c 1
EndSplineSet
EndChar

StartChar: uni0416
Encoding: 1046 1046 117
Width: 1049
Flags: MW
HStem: 0 245 501 20G
LayerCount: 2
Fore
SplineSet
640 293 m 1
 695 384 754 452 851 501 c 1
 917 513 986 494 1044 521 c 1
 1017 481 989 442 959 407 c 1
 920 405 882 411 844 424 c 1
 793 382 763 338 736 276 c 1
 804 260 877 249 971 245 c 1
 994 188 1008 81 1013 0 c 1
 935 0 832 0 754 0 c 1
 732 99 680 192 632 223 c 1
 624 147 623 73 627 0 c 1
 554 0 481 0 409 0 c 1
 399 73 394 148 393 223 c 1
 344 192 277 104 279 0 c 1
 201 0 98 0 21 0 c 1
 25 81 39 188 62 245 c 1
 156 249 230 260 297 277 c 1
 273 338 245 382 196 424 c 1
 157 411 119 405 80 407 c 1
 52 442 25 481 0 521 c 1
 57 494 127 513 192 501 c 1
 287 452 342 384 393 294 c 1
 394 363 398 431 405 500 c 1
 497 500 582 500 681 500 c 1
 663 428 650 360 640 293 c 1
 640 293 l 1
EndSplineSet
EndChar

StartChar: uni0417
Encoding: 1047 1047 118
Width: 622
Flags: MW
HStem: -112 78 373 150
LayerCount: 2
Fore
SplineSet
89 499 m 1
 89 499 l 1
 143 511 224 523 307 523 c 0
 379 523 451 514 497 499 c 0
 543 484 547 450 533 423 c 0
 504 368 472 322 435 286 c 1
 548 257 600 165 611 60 c 1
 548 -22 433 -91 322 -112 c 1
 168 -100 79 -12 -35 -82 c 1
 -19 -38 2 5 25 46 c 1xc0
 180 50 244 -33 341 -34 c 0
 351 -34 363 -32 373 -29 c 1
 381 7 374 61 360 111 c 0
 341 175 309 232 281 231 c 1
 235 219 205 214 190 217 c 1
 205 247 221 276 238 306 c 1
 285 307 326 306 363 301 c 1
 380 343 387 389 384 440 c 1
 357 448 267 448 241 440 c 1
 245 419 251 394 258 373 c 1
 216 374 170 376 129 379 c 1
 114 412 98 463 89 499 c 1
EndSplineSet
EndChar

StartChar: uni0418
Encoding: 1048 1048 119
Width: 775
Flags: MW
HStem: 0 21G<76 276 76 109 276 276 434 472.5 434 673> 480 20G<71 335 291 335 450 709 665 709>
VStem: 460 249
LayerCount: 2
Fore
SplineSet
276 0 m 1
 276 0 l 1
 209 0 142 0 76 0 c 1
 96 153 93 345 71 500 c 1
 159 500 247 500 335 500 c 1xe0
 339 404 332 294 318 197 c 1
 363 238 421 306 461 369 c 1
 460 413 456 457 450 500 c 1
 537 500 621 500 709 500 c 1
 717 326 701 159 673 0 c 1
 597 0 511 0 434 0 c 1
 445 75 455 157 460 242 c 1
 414 170 339 76 276 0 c 1
EndSplineSet
EndChar

StartChar: at
Encoding: 64 64 120
Width: 540
Flags: MW
HStem: 0 29<208.5 295.5 208.5 299.5> 109 47<369.5 463> 126 249<202 223 107 367> 472 28<208.5 331>
VStem: 20 28<189 311.5 189 319> 491 29<237 311.5>
LayerCount: 2
Fore
SplineSet
202 375 m 1x00
 257 375 312 375 367 375 c 1
 384 334 395 287 405 237 c 0
 413 194 417 156 446 156 c 0xdc
 480 156 491 224 491 250 c 0
 491 373 392 472 270 472 c 0
 147 472 48 373 48 250 c 0
 48 128 147 29 270 29 c 0
 321 29 368 47 406 76 c 1
 426 55 l 1
 383 21 329 0 270 0 c 0
 132 0 20 112 20 250 c 0
 20 388 132 500 270 500 c 0
 408 500 520 388 520 250 c 0
 520 221 511 177 492 152 c 0
 471 123 441 109 395 109 c 0
 344 109 310 133 293 184 c 1
 296 183 234 129 223 126 c 1xbc
 184 126 145 126 107 126 c 1
 100 167 103 216 113 247 c 1
 160 261 211 297 231 337 c 1
 222 350 212 363 202 375 c 1
 202 375 l 1x00
284 221 m 1
 275 250 264 278 250 304 c 1
 234 259 226 216 223 174 c 1
 244 185 266 202 284 221 c 1
 284 221 l 1
EndSplineSet
EndChar

StartChar: registered
Encoding: 174 174 121
Width: 549
Flags: MW
HStem: 1 29<211 333 211 341> 30 443<211 333> 127 249<137 246 137 137 301 390 130 430 301 301> 438 35
VStem: 22 29<190 312.5 190 320> 243 29 493 29<190 312.5>
LayerCount: 2
Fore
SplineSet
301 239 m 1x00
 335 230 362 227 395 227 c 1
 412 203 425 168 430 127 c 1
 301 127 l 1
 294 173 272 209 243 221 c 1
 242 189 243 158 246 127 c 1
 137 127 l 1
 121 207 118 293 130 376 c 1
 390 376 l 1
 400 334 402 309 401 272 c 1
 373 257 338 246 301 239 c 1x00
272 473 m 0xbe
 150 473 51 374 51 251 c 0
 51 129 150 30 272 30 c 0
 394 30 493 129 493 251 c 0
 493 374 394 473 272 473 c 0xbe
272 501 m 0x4e
 410 501 522 389 522 251 c 0
 522 113 410 1 272 1 c 0
 134 1 22 113 22 251 c 0
 22 389 134 501 272 501 c 0x4e
254 342 m 1
 250 313 247 284 245 256 c 1
 262 259 278 265 290 276 c 1
 282 302 271 321 254 342 c 1
EndSplineSet
EndChar

StartChar: copyright
Encoding: 169 169 122
Width: 541
Flags: MW
HStem: 29 443<202 324.5>
VStem: 13 29<189 311.5 189 319> 263 187 485 28<189 311.5>
LayerCount: 2
Fore
SplineSet
393 371 m 1
 389 354 381 329 374 313 c 1
 353 311 331 310 310 310 c 1
 314 320 316 332 318 342 c 1
 293 347 272 346 247 340 c 1
 225 244 254 196 307 164 c 1
 338 184 364 208 388 238 c 1
 391 178 l 1
 352 148 302 115 212 118 c 1
 152 144 118 199 118 252 c 0
 119 335 201 414 393 371 c 1
263 472 m 0
 141 472 42 373 42 250 c 0
 42 128 141 29 263 29 c 0
 386 29 485 128 485 250 c 0
 485 373 386 472 263 472 c 0
263 500 m 0xf0
 401 500 513 388 513 250 c 0
 513 112 401 0 263 0 c 0
 125 0 13 112 13 250 c 0
 13 388 125 500 263 500 c 0xf0
EndSplineSet
EndChar

StartChar: uni041B
Encoding: 1051 1051 123
Width: 705
Flags: MW
HStem: 0 21G<44 304 44 79.5 434 665 434 472.5> 480 20G<235 566 235 235 511 566>
LayerCount: 2
Fore
SplineSet
235 500 m 1
 345 500 456 500 566 500 c 1
 632 359 666 181 665 0 c 1
 588 0 511 0 434 0 c 1
 422 134 388 253 332 357 c 1
 281 241 256 113 304 0 c 1
 232 0 115 0 44 0 c 1
 30 84 38 181 56 244 c 1
 151 272 252 345 292 423 c 1
 275 450 255 476 235 500 c 1
 235 500 l 1
EndSplineSet
EndChar

StartChar: uni041F
Encoding: 1055 1055 124
Width: 740
Flags: MW
HStem: 0 21G<50 278 50 88.5 404 643 404 442.5> 480 20G<46 679 679 679 679 679>
VStem: 312 112
LayerCount: 2
Fore
SplineSet
679 500 m 1
 686 326 671 159 643 0 c 1
 567 0 481 0 404 0 c 1
 423 132 432 286 424 435 c 1
 392 436 342 434 312 429 c 1
 314 280 302 137 278 0 c 1
 201 0 127 0 50 0 c 1
 71 153 67 345 46 500 c 1
 257 500 468 500 679 500 c 1
 679 500 l 1
EndSplineSet
EndChar

StartChar: uni0424
Encoding: 1060 1060 125
Width: 879
Flags: MW
HStem: 0 21G<304 557 304 304> 591 20G
LayerCount: 2
Fore
SplineSet
309 151 m 1
 201 161 109 183 22 225 c 1
 21 242 20 260 20 276 c 0
 20 362 35 435 64 500 c 1
 284 500 l 1
 279 537 273 574 267 611 c 1
 363 595 459 579 555 562 c 1
 556 541 559 521 560 500 c 1
 825 500 l 1
 847 444 859 386 859 321 c 0
 859 291 856 259 851 225 c 1
 764 183 673 161 566 151 c 1
 564 100 561 50 557 0 c 1
 304 0 l 1
 307 50 309 100 309 151 c 1
293 432 m 1
 258 388 225 304 215 241 c 1
 245 229 275 224 308 221 c 1
 306 291 301 361 293 432 c 1
564 432 m 1
 566 379 567 327 567 274 c 2
 567 221 l 1
 600 224 629 229 658 241 c 1
 648 304 599 388 564 432 c 1
EndSplineSet
EndChar

StartChar: uni0426
Encoding: 1062 1062 126
Width: 750
Flags: MW
HStem: -115 21G<699 699> -112 177 -109 174<400.5 589> 0 65<400.5 417 400.5 515> 480 20G<51 315 315 315 424 684 684 684>
VStem: 69 248<185 415>
LayerCount: 2
Fore
SplineSet
515 0 m 2x00
 55 0 l 1x4c
 65 69 69 146 69 224 c 0
 69 319 62 415 51 500 c 1
 315 500 l 1
 316 466 317 432 317 398 c 0
 317 287 310 180 295 76 c 1
 325 69 384 65 417 65 c 1
 426 146 432 233 432 321 c 0
 432 381 429 441 424 500 c 1
 684 500 l 1
 685 471 686 442 686 414 c 0
 686 295 676 181 659 70 c 1
 684 68 715 66 744 65 c 1x9c
 733 0 720 -55 699 -115 c 1x2c
 589 -109 l 1x9c
 596 -91 599 -75 599 -62 c 0
 599 -20 567 0 515 0 c 2x00
EndSplineSet
EndChar

StartChar: uni0427
Encoding: 1063 1063 127
Width: 725
Flags: MW
HStem: 0 21G<439 658 439 439> 480 20G<41 296 296 296 412 688 688 688>
VStem: 296 109<318 500>
LayerCount: 2
Fore
SplineSet
409 218 m 1
 406 258 405 298 405 338 c 0
 405 392 407 446 412 500 c 1
 688 500 l 1
 664 380 651 262 651 146 c 0xe0
 651 97 653 48 658 0 c 1
 439 0 l 1
 430 45 422 92 417 138 c 1
 384 159 321 170 245 170 c 0
 210 170 171 168 131 163 c 1
 84 268 55 381 41 500 c 1
 296 500 l 1
 296 327 332 234 409 218 c 1
EndSplineSet
EndChar

StartChar: uni0428
Encoding: 1064 1064 128
Width: 1073
Flags: MW
HStem: 0 66<402.5 419 736.5 753> 480 20G<54 318 318 318 407 671 671 671 760 1020 1020 1020>
VStem: 72 248<182.5 415> 425 247<197 457.5>
LayerCount: 2
Fore
SplineSet
760 500 m 1
 1020 500 l 1
 1021 470 1022 444 1022 417 c 0
 1022 276 1007 133 984 0 c 1
 59 0 l 1
 68 68 72 144 72 221 c 0
 72 317 66 414 54 500 c 1
 318 500 l 1
 319 466 320 432 320 398 c 0
 320 287 313 181 298 77 c 1
 328 70 386 66 419 66 c 1
 423 117 425 170 425 224 c 0
 425 318 419 415 407 500 c 1
 671 500 l 1
 672 483 672 466 672 449 c 0
 672 326 657 187 634 76 c 1
 664 70 720 66 753 66 c 1
 762 148 767 235 767 324 c 0
 767 383 765 442 760 500 c 1
EndSplineSet
EndChar

StartChar: uni0429
Encoding: 1065 1065 129
Width: 1054
Flags: MW
HStem: -115 21G<1008 1008> -112 177 -109 174 0 65<375.5 392 710.5 727> 480 20G<28 292 292 292 381 644 644 644 733 993 993 993>
VStem: 46 248<185 414> 399 246<198 452.5>
LayerCount: 2
Fore
SplineSet
825 0 m 2x00
 32 0 l 1x4e
 42 69 46 146 46 224 c 0
 46 318 39 415 28 500 c 1
 292 500 l 1
 293 466 294 431 294 397 c 0
 294 286 287 180 272 76 c 1
 302 69 359 65 392 65 c 1
 397 116 399 171 399 225 c 0
 399 319 392 415 381 500 c 1
 644 500 l 1
 645 482 645 462 645 443 c 0
 645 321 629 185 607 76 c 1
 637 69 694 65 727 65 c 1
 736 146 741 232 741 318 c 0
 741 379 738 441 733 500 c 1
 993 500 l 1
 994 471 995 441 995 413 c 0
 995 295 985 181 968 70 c 1
 993 68 1024 66 1054 65 c 1x9e
 1042 0 1029 -55 1008 -115 c 1x2e
 898 -109 l 1x9e
 905 -91 908 -75 908 -62 c 0
 908 -20 876 0 825 0 c 2x00
EndSplineSet
EndChar

StartChar: uni042A
Encoding: 1066 1066 130
Width: 758
Flags: MW
HStem: 0 21G<198 707 198 198> 347 153 350 150<10 449>
LayerCount: 2
Fore
SplineSet
41 500 m 1
 449 500 l 1
 440 447 432 389 428 330 c 1
 551 316 645 290 738 242 c 1
 736 144 730 84 707 0 c 1
 198 0 l 1
 182 67 174 156 174 243 c 0
 174 311 179 378 188 435 c 1
 139 421 118 399 109 344 c 1
 10 350 l 1
 41 500 l 1
426 261 m 1
 426 196 433 131 451 67 c 1
 487 112 508 167 517 235 c 1
 492 247 460 258 426 261 c 1
EndSplineSet
EndChar

StartChar: uni042B
Encoding: 1067 1067 131
Width: 955
Flags: MW
HStem: 0 21G<63 573 63 63 654 654 654 881> 480 20G<68 315 315 315 649 913 913 913>
VStem: 667 248<181.5 415>
LayerCount: 2
Fore
SplineSet
294 329 m 1
 417 315 511 288 605 241 c 1
 603 143 596 85 573 0 c 1
 63 0 l 1
 47 67 40 153 40 239 c 0
 40 337 49 435 68 500 c 1
 315 500 l 1
 306 446 298 388 294 329 c 1
292 260 m 1
 292 195 299 129 317 66 c 1
 353 110 374 165 383 233 c 1
 358 246 326 257 292 260 c 1
649 500 m 1
 913 500 l 1
 914 466 915 432 915 398 c 0
 915 260 904 128 881 0 c 1
 654 0 l 1
 663 68 667 143 667 220 c 0
 667 316 661 414 649 500 c 1
EndSplineSet
EndChar

StartChar: uni042C
Encoding: 1068 1068 132
Width: 629
Flags: MW
HStem: 0 21G<77 587 77 77> 480 20G<82 328 328 328>
LayerCount: 2
Fore
SplineSet
307 330 m 1
 430 316 524 289 618 242 c 1
 616 144 609 84 587 0 c 1
 77 0 l 1
 61 67 53 154 53 240 c 0
 53 338 63 435 82 500 c 1
 328 500 l 1
 319 447 311 389 307 330 c 1
305 261 m 1
 305 196 312 131 330 67 c 1
 366 112 387 166 396 234 c 1
 371 247 339 258 305 261 c 1
EndSplineSet
EndChar

StartChar: uni042D
Encoding: 1069 1069 133
Width: 640
Flags: MW
HStem: -22 21G<317 403 403 426> 241 92<182 262> 378 145
VStem: 369 250<198.5 330>
LayerCount: 2
Fore
SplineSet
54 498 m 1
 131 515 199 523 259 523 c 0
 507 523 618 391 619 253 c 0
 619 144 549 31 426 -22 c 1
 403 -22 l 2
 231 -22 136 43 59 103 c 1
 60 147 62 188 65 225 c 1
 115 163 167 114 230 73 c 1
 284 105 325 144 348 199 c 1
 326 241 302 250 274 250 c 0
 246 250 215 241 184 241 c 0
 180 241 176 242 171 242 c 1
 122 331 l 1
 131 330 141 330 150 330 c 0
 181 330 209 333 237 333 c 0
 287 333 330 323 366 269 c 1
 368 283 369 297 369 312 c 0
 369 348 364 387 353 433 c 1
 325 440 298 444 271 444 c 0xf0
 250 444 230 442 207 438 c 1
 211 417 217 392 224 372 c 1
 183 373 136 375 94 378 c 1
 79 411 63 462 54 498 c 1
EndSplineSet
EndChar

StartChar: uni0404
Encoding: 1028 1028 134
Width: 617
Flags: MW
HStem: -22 21G<219 242 219 219> 250 83<383 385> 378 145
VStem: 26 250<198.5 330>
LayerCount: 2
Fore
SplineSet
591 498 m 1
 582 462 566 411 551 378 c 1
 509 375 462 373 421 372 c 1
 428 392 434 417 438 438 c 1
 415 442 395 444 374 444 c 0xf0
 347 444 320 440 292 433 c 1
 281 387 276 348 276 312 c 0
 276 297 277 283 279 269 c 1
 315 323 358 333 408 333 c 0
 436 333 464 330 495 330 c 0
 504 330 514 330 523 331 c 1
 474 242 l 1
 469 242 465 241 461 241 c 0
 430 241 399 250 371 250 c 0
 343 250 319 241 297 199 c 1
 320 144 361 105 415 73 c 1
 478 114 530 163 580 225 c 1
 583 188 585 147 586 103 c 1
 509 43 414 -22 242 -22 c 2
 219 -22 l 1
 96 31 26 144 26 253 c 0
 27 391 138 523 386 523 c 0
 446 523 514 515 591 498 c 1
EndSplineSet
EndChar

StartChar: uni0454
Encoding: 1108 1108 135
Width: 617
Flags: MW
HStem: -22 21G<219 242 219 219> 250 83<383 385> 378 145
VStem: 26 250<198.5 330>
LayerCount: 2
Fore
SplineSet
591 498 m 1
 582 462 566 411 551 378 c 1
 509 375 462 373 421 372 c 1
 428 392 434 417 438 438 c 1
 415 442 395 444 374 444 c 0xf0
 347 444 320 440 292 433 c 1
 281 387 276 348 276 312 c 0
 276 297 277 283 279 269 c 1
 315 323 358 333 408 333 c 0
 436 333 464 330 495 330 c 0
 504 330 514 330 523 331 c 1
 474 242 l 1
 469 242 465 241 461 241 c 0
 430 241 399 250 371 250 c 0
 343 250 319 241 297 199 c 1
 320 144 361 105 415 73 c 1
 478 114 530 163 580 225 c 1
 583 188 585 147 586 103 c 1
 509 43 414 -22 242 -22 c 2
 219 -22 l 1
 96 31 26 144 26 253 c 0
 27 391 138 523 386 523 c 0
 446 523 514 515 591 498 c 1
EndSplineSet
EndChar

StartChar: uni042E
Encoding: 1070 1070 136
Width: 961
Flags: MW
HStem: -22 21G<568 674.5> 0 21G<40 267 40 40> 503 20G<641 741.5>
VStem: 54 247<183.5 406.5> 367 201 744 203<165.5 334.5>
LayerCount: 2
Fore
SplineSet
454 2 m 1
 395 78 368 159 367 228 c 1
 344 228 318 228 296 227 c 1
 290 150 280 74 267 0 c 1
 40 0 l 1
 49 68 54 145 54 222 c 0
 54 317 47 414 35 500 c 1
 299 500 l 1
 301 462 301 425 301 388 c 0
 301 358 301 327 300 297 c 1
 326 297 352 296 375 293 c 1
 410 444 566 523 716 523 c 0
 767 523 822 514 876 498 c 1
 925 435 947 367 947 302 c 0
 947 276 944 251 937 227 c 0
 900 90 760 -22 589 -22 c 0
 547 -22 500 -13 454 2 c 1
603 430 m 1
 579 388 568 339 568 291 c 0
 568 190 617 90 699 51 c 1
 729 90 744 140 744 191 c 0
 744 285 694 384 603 430 c 1
EndSplineSet
EndChar

StartChar: uni042F
Encoding: 1071 1071 137
Width: 656
Flags: MW
HStem: 0 197 480 20G<91 613 613 613>
VStem: 386 241<117.5 328.5>
LayerCount: 2
Fore
SplineSet
269 225 m 1
 195 240 125 263 69 292 c 1
 69 321 l 2
 69 380 75 427 91 500 c 1
 613 500 l 1
 622 432 627 363 627 294 c 0
 627 195 617 95 598 0 c 1
 380 0 l 1
 384 47 386 94 386 141 c 0
 386 157 386 173 385 190 c 1
 327 165 292 93 279 0 c 1
 21 0 l 1
 27 81 36 130 62 197 c 1
 150 201 206 209 269 225 c 1
364 433 m 1
 330 389 308 353 293 299 c 1
 316 278 348 265 382 260 c 1
 378 316 372 374 364 433 c 1
EndSplineSet
EndChar

StartChar: uni0430
Encoding: 1072 1072 138
Width: 767
Flags: MW
HStem: 0 21G<68 301 68 68 458 690 458 458> 480 20G<259 591 591 591>
VStem: 61 240<0 118.5>
LayerCount: 2
Fore
SplineSet
259 500 m 1
 591 500 l 1
 655 361 690 186 690 8 c 2
 690 0 l 1
 458 0 l 1
 455 41 449 80 441 118 c 1
 399 75 351 35 301 0 c 1
 68 0 l 1
 63 29 61 60 61 90 c 0
 61 147 69 203 81 244 c 1
 175 271 276 345 316 423 c 1
 299 450 280 476 259 500 c 1
423 191 m 1
 406 250 384 305 355 359 c 1
 324 267 306 181 301 98 c 1
 344 120 389 153 423 191 c 1
EndSplineSet
EndChar

StartChar: uni0431
Encoding: 1073 1073 139
Width: 706
Flags: MW
HStem: 435 65<485.5 512> 480 20G<72 72 72 671 571 671>
LayerCount: 2
Fore
SplineSet
315 250 m 1
 315 250 l 1
 308 188 305 127 305 66 c 1
 340 66 382 68 417 77 c 1
 406 160 364 211 315 250 c 1
72 500 m 1
 72 500 l 1
 272 500 471 500 671 500 c 1
 663 459 653 418 639 379 c 1
 591 378 548 376 500 375 c 1
 506 394 511 416 512 435 c 1
 459 435 398 434 343 429 c 1
 335 393 329 356 323 319 c 1
 445 304 562 271 639 220 c 1
 632 146 619 69 596 0 c 1
 429 0 261 0 94 0 c 1
 54 141 37 330 72 500 c 1
EndSplineSet
EndChar

StartChar: uni0432
Encoding: 1074 1074 140
Width: 695
Flags: MW
HStem: 0 21G<110 613 110 110> 434 66<466.5 490>
LayerCount: 2
Fore
SplineSet
322 65 m 1
 361 65 402 68 433 76 c 1
 420 156 385 206 331 241 c 1
 325 182 322 123 322 65 c 1
89 500 m 1
 644 500 l 1
 613 404 550 336 472 297 c 1
 545 271 605 237 656 183 c 1
 650 122 634 56 613 0 c 1
 110 0 l 1
 85 87 70 193 70 300 c 0
 70 367 76 435 89 500 c 1
339 310 m 1
 399 326 464 367 490 434 c 1
 443 434 400 433 360 429 c 1
 352 389 345 349 339 310 c 1
EndSplineSet
EndChar

StartChar: uni0433
Encoding: 1075 1075 141
Width: 603
Flags: MW
HStem: 0 21G<71 288 71 105.5> 348 152
LayerCount: 2
Fore
SplineSet
600 500 m 1
 593 459 579 387 568 348 c 1
 526 347 501 346 460 344 c 1
 483 414 458 434 396 435 c 0xc0
 379 435 358 433 336 429 c 1
 302 288 278 137 288 0 c 1
 219 0 140 0 71 0 c 1
 50 141 42 334 65 500 c 1
 243 500 422 500 600 500 c 1
 600 500 l 1
EndSplineSet
EndChar

StartChar: uni0434
Encoding: 1076 1076 142
Width: 743
Flags: MW
HStem: -111 177 480 20G<243 574 519 574>
LayerCount: 2
Fore
SplineSet
6 77 m 1
 6 77 l 1
 27 75 48 74 69 73 c 1
 67 136 75 199 88 244 c 1
 183 272 261 345 300 423 c 1
 283 450 264 476 243 500 c 1
 353 500 464 500 574 500 c 1
 632 377 665 226 672 69 c 1
 693 68 718 67 740 66 c 1
 728 1 715 -55 694 -115 c 1
 658 -113 620 -111 584 -109 c 1
 613 -35 579 0 511 0 c 0
 411 0 317 0 217 0 c 0xc0
 150 0 127 -44 134 -114 c 1
 93 -113 85 -113 44 -111 c 1
 32 -72 12 35 6 77 c 1
339 356 m 1
 339 356 l 1
 300 266 276 168 290 77 c 1
 338 70 378 67 426 66 c 1
 413 173 384 269 339 356 c 1
EndSplineSet
EndChar

StartChar: uni0435
Encoding: 1077 1077 143
Width: 671
Flags: MW
HStem: 0 66<381 390 390 417 381 575> 227 72<357.5 430> 348 152 435 65<401 410>
LayerCount: 2
Fore
SplineSet
78 500 m 1x00
 614 500 l 1
 607 459 594 387 582 348 c 1
 540 346 515 345 474 344 c 1
 480 361 482 375 482 387 c 0
 482 423 457 434 410 435 c 0xd0
 392 435 372 433 350 429 c 1
 337 374 325 318 316 262 c 1
 342 286 380 299 415 299 c 0
 445 299 478 293 509 293 c 0
 516 293 523 293 530 294 c 1
 483 206 l 1
 474 206 l 2
 437 206 401 226 370 227 c 0
 345 227 324 216 305 174 c 1
 302 141 300 108 299 76 c 1
 330 70 354 66 381 66 c 2
 390 66 l 2
 444 66 479 85 495 153 c 1
 615 148 l 1xe0
 605 90 594 47 575 0 c 1
 84 0 l 1
 72 81 64 179 64 280 c 0
 64 354 68 429 78 500 c 1x00
EndSplineSet
EndChar

StartChar: uni0436
Encoding: 1078 1078 144
Width: 1049
Flags: MW
HStem: 0 245 501 20G
LayerCount: 2
Fore
SplineSet
640 293 m 1
 695 384 754 452 851 501 c 1
 917 513 986 494 1044 521 c 1
 1017 481 989 442 959 407 c 1
 920 405 882 411 844 424 c 1
 793 382 763 338 736 276 c 1
 804 260 877 249 971 245 c 1
 994 188 1008 81 1013 0 c 1
 935 0 832 0 754 0 c 1
 732 99 680 192 632 223 c 1
 624 147 623 73 627 0 c 1
 554 0 481 0 409 0 c 1
 399 73 394 148 393 223 c 1
 344 192 277 104 279 0 c 1
 201 0 98 0 21 0 c 1
 25 81 39 188 62 245 c 1
 156 249 230 260 297 277 c 1
 273 338 245 382 196 424 c 1
 157 411 119 405 80 407 c 1
 52 442 25 481 0 521 c 1
 57 494 127 513 192 501 c 1
 287 452 342 384 393 294 c 1
 394 363 398 431 405 500 c 1
 497 500 582 500 681 500 c 1
 663 428 650 360 640 293 c 1
 640 293 l 1
EndSplineSet
EndChar

StartChar: uni0437
Encoding: 1079 1079 145
Width: 622
Flags: MW
HStem: -112 78 373 150
LayerCount: 2
Fore
SplineSet
89 499 m 1
 89 499 l 1
 143 511 224 523 307 523 c 0
 379 523 451 514 497 499 c 0
 543 484 547 450 533 423 c 0
 504 368 472 322 435 286 c 1
 548 257 600 165 611 60 c 1
 548 -22 433 -91 322 -112 c 1
 168 -100 79 -12 -35 -82 c 1
 -19 -38 2 5 25 46 c 1xc0
 180 50 244 -33 341 -34 c 0
 351 -34 363 -32 373 -29 c 1
 381 7 374 61 360 111 c 0
 341 175 309 232 281 231 c 1
 235 219 205 214 190 217 c 1
 205 247 221 276 238 306 c 1
 285 307 326 306 363 301 c 1
 380 343 387 389 384 440 c 1
 357 448 267 448 241 440 c 1
 245 419 251 394 258 373 c 1
 216 374 170 376 129 379 c 1
 114 412 98 463 89 499 c 1
EndSplineSet
EndChar

StartChar: uni0438
Encoding: 1080 1080 146
Width: 775
Flags: MW
HStem: 0 21G<76 276 76 109 276 276 434 472.5 434 673> 480 20G<71 335 291 335 450 709 665 709>
VStem: 460 249
LayerCount: 2
Fore
SplineSet
276 0 m 1
 276 0 l 1
 209 0 142 0 76 0 c 1
 96 153 93 345 71 500 c 1
 159 500 247 500 335 500 c 1xe0
 339 404 332 294 318 197 c 1
 363 238 421 306 461 369 c 1
 460 413 456 457 450 500 c 1
 537 500 621 500 709 500 c 1
 717 326 701 159 673 0 c 1
 597 0 511 0 434 0 c 1
 445 75 455 157 460 242 c 1
 414 170 339 76 276 0 c 1
EndSplineSet
EndChar

StartChar: uni043A
Encoding: 1082 1082 147
Width: 707
Flags: MW
HStem: 0 244 409 91 502 20G
VStem: 41 236<68 300.5>
LayerCount: 2
Fore
SplineSet
293 292 m 1
 348 382 408 453 505 502 c 1
 526 506 548 507 570 507 c 2
 603 507 l 2
 636 507 669 508 698 522 c 1
 671 482 643 444 613 409 c 1
 597 409 l 2
 563 409 531 414 498 425 c 1
 447 383 416 337 389 276 c 1
 457 259 530 248 625 244 c 1
 648 187 661 80 666 0 c 1
 407 0 l 1
 385 98 334 191 284 222 c 1
 280 175 277 128 277 82 c 0
 277 54 278 27 280 0 c 1
 60 0 l 1
 49 85 41 173 41 261 c 0
 41 340 48 420 56 500 c 1
 334 500 l 1
 317 429 302 359 293 292 c 1
EndSplineSet
EndChar

StartChar: uni043B
Encoding: 1083 1083 148
Width: 705
Flags: MW
HStem: 0 21G<44 304 44 79.5 434 665 434 472.5> 480 20G<235 566 235 235 511 566>
LayerCount: 2
Fore
SplineSet
235 500 m 1
 345 500 456 500 566 500 c 1
 632 359 666 181 665 0 c 1
 588 0 511 0 434 0 c 1
 422 134 388 253 332 357 c 1
 281 241 256 113 304 0 c 1
 232 0 115 0 44 0 c 1
 30 84 38 181 56 244 c 1
 151 272 252 345 292 423 c 1
 275 450 255 476 235 500 c 1
 235 500 l 1
EndSplineSet
EndChar

StartChar: uni043C
Encoding: 1084 1084 149
Width: 1052
Flags: MW
HStem: 0 21G<43 286 43 43 426 622 426 426 775 1006 775 775> 480 20G<234 550 550 550 649 934 934 934>
VStem: 36 236<93.5 119.5> 775 231<0 0>
LayerCount: 2
Fore
SplineSet
234 500 m 1
 550 500 l 1
 577 427 595 353 607 276 c 1
 637 332 657 403 657 454 c 0
 657 472 654 488 649 500 c 1
 934 500 l 1
 986 361 1005 144 1006 0 c 1
 775 0 l 1
 771 110 750 239 716 347 c 1
 665 247 628 143 622 0 c 1
 426 0 l 1
 409 130 377 244 326 348 c 1
 294 273 272 194 272 112 c 0
 272 75 276 38 286 0 c 1
 43 0 l 1
 38 29 36 61 36 91 c 0
 36 148 44 203 56 244 c 1
 148 271 247 341 289 418 c 1
 272 446 254 473 234 500 c 1
EndSplineSet
EndChar

StartChar: uni043D
Encoding: 1085 1085 150
Width: 740
Flags: MW
HStem: 0 21G<68 295 68 68 422 661 422 422> 480 20G<63 327 327 327 437 697 697 697>
VStem: 81 246<181.5 500> 775 231
LayerCount: 2
Fore
SplineSet
437 500 m 1
 697 500 l 1
 698 472 699 444 699 417 c 0
 699 272 684 134 661 0 c 1
 422 0 l 1
 433 79 440 165 443 254 c 1
 412 273 364 289 327 293 c 1xe0
 323 192 312 95 295 0 c 1
 68 0 l 1xd0
 77 68 81 143 81 220 c 0xe0
 81 316 75 414 63 500 c 1
 327 500 l 1
 329 459 329 418 329 378 c 1
 371 365 409 348 444 329 c 1
 444 386 442 444 437 500 c 1
EndSplineSet
EndChar

StartChar: uni043E
Encoding: 1086 1086 151
Width: 658
Flags: MW
HStem: -22 21G<239.5 261> 503 20G<390 416.5>
VStem: 34 206<241.5 244> 420 207<165 335>
LayerCount: 2
Fore
SplineSet
123 3 m 1
 62 81 34 159 34 232 c 0
 34 256 38 282 44 305 c 0
 80 433 212 522 390 523 c 0
 443 523 499 515 555 498 c 1
 605 435 627 367 627 303 c 0
 627 277 624 251 617 228 c 0
 578 88 436 -21 261 -22 c 0
 218 -22 170 -13 123 3 c 1
275 436 m 1
 250 393 240 343 240 293 c 0
 240 190 289 88 373 47 c 1
 405 88 420 139 420 191 c 0
 420 287 368 388 275 436 c 1
EndSplineSet
EndChar

StartChar: uni043F
Encoding: 1087 1087 152
Width: 740
Flags: MW
HStem: 0 21G<50 278 50 88.5 404 643 404 442.5> 480 20G<46 679 679 679 679 679>
VStem: 312 112
LayerCount: 2
Fore
SplineSet
679 500 m 1
 686 326 671 159 643 0 c 1
 567 0 481 0 404 0 c 1
 423 132 432 286 424 435 c 1
 392 436 342 434 312 429 c 1
 314 280 302 137 278 0 c 1
 201 0 127 0 50 0 c 1
 71 153 67 345 46 500 c 1
 257 500 468 500 679 500 c 1
 679 500 l 1
EndSplineSet
EndChar

StartChar: uni0440
Encoding: 1088 1088 153
Width: 665
Flags: MW
HStem: 0 21G<79 299 79 79> 480 20G<49 591 591 591>
LayerCount: 2
Fore
SplineSet
294 145 m 1
 294 96 296 48 299 0 c 1
 79 0 l 1
 54 97 38 218 38 338 c 0
 38 393 41 448 49 500 c 1
 591 500 l 1
 612 419 621 346 623 231 c 1
 527 188 405 157 294 145 c 1
295 214 m 1
 328 218 379 233 402 246 c 1
 392 313 357 386 316 434 c 1
 304 360 298 287 295 214 c 1
EndSplineSet
EndChar

StartChar: uni0441
Encoding: 1089 1089 154
Width: 632
Flags: MW
HStem: -21 21G<231 254 231 231> 445 78<372 395.5>
VStem: 38 250<252.5 254>
LayerCount: 2
Fore
SplineSet
602 498 m 1
 593 463 576 412 562 379 c 1
 520 375 474 373 432 373 c 1
 439 393 445 418 449 439 c 1
 426 443 406 445 385 445 c 0
 359 445 332 441 303 434 c 1
 292 388 288 347 288 311 c 0
 288 194 341 124 426 73 c 1
 490 115 542 163 592 225 c 1
 595 188 596 149 597 103 c 1
 520 43 425 -21 254 -21 c 2
 231 -21 l 1
 107 32 38 145 38 254 c 0
 39 392 149 523 397 523 c 0
 458 523 525 516 602 498 c 1
EndSplineSet
EndChar

StartChar: uni0442
Encoding: 1090 1090 155
Width: 705
Flags: MW
HStem: 0 21G<236 454 236 236> 326 174<1 702 555 555> 435 65<472 496>
VStem: 202 244<122.5 357.5> 446 113
LayerCount: 2
Fore
SplineSet
472 435 m 1x00
 456 338 446 242 446 147 c 0
 446 98 449 48 454 0 c 1
 236 0 l 1
 212 112 202 227 202 342 c 0
 202 373 203 404 204 435 c 1xd0
 142 417 112 377 100 320 c 1
 1 326 l 1
 37 500 l 1
 702 500 l 1
 690 435 678 380 656 320 c 1
 555 326 l 1xa8
 558 338 559 348 559 358 c 0
 559 413 520 435 472 435 c 1x00
EndSplineSet
EndChar

StartChar: uni0443
Encoding: 1091 1091 156
Width: 683
Flags: MW
HStem: -397 21G 0 21G<112 319 112 112> 567 20G
LayerCount: 2
Fore
SplineSet
567 556 m 1
 615 571 670 560 711 587 c 1
 692 543 677 514 655 481 c 1
 634 476 614 473 594 473 c 0
 581 473 568 474 554 476 c 1
 488 397 456 257 433 146 c 0
 404 8 353 -224 281 -368 c 1
 245 -379 200 -389 157 -397 c 1
 238 -258 290 -105 319 0 c 1
 112 0 l 1
 62 162 32 331 30 500 c 1
 322 500 l 1
 308 438 301 377 301 316 c 0
 301 232 314 147 335 64 c 1
 395 292 432 509 567 556 c 1
EndSplineSet
EndChar

StartChar: uni0444
Encoding: 1092 1092 157
Width: 910
Flags: MW
HStem: 0 21G<328 581 328 328> 591 20G
LayerCount: 2
Fore
SplineSet
333 151 m 1
 225 161 133 183 46 225 c 1
 45 242 44 260 44 276 c 0
 44 362 59 435 88 500 c 1
 308 500 l 1
 303 537 297 574 291 611 c 1
 387 595 483 579 579 562 c 1
 580 541 583 521 584 500 c 1
 849 500 l 1
 871 444 883 386 883 321 c 0
 883 291 880 259 875 225 c 1
 788 183 697 161 590 151 c 1
 588 100 585 50 581 0 c 1
 328 0 l 1
 331 50 333 100 333 151 c 1
317 432 m 1
 282 388 249 304 239 241 c 1
 269 229 299 224 332 221 c 1
 330 291 325 361 317 432 c 1
588 432 m 1
 590 379 591 327 591 274 c 2
 591 221 l 1
 624 224 653 229 682 241 c 1
 672 304 623 388 588 432 c 1
EndSplineSet
EndChar

StartChar: uni0445
Encoding: 1093 1093 158
Width: 702
Flags: MW
HStem: -147 21G 0 21G<377 626 377 377> 566 20G
LayerCount: 2
Fore
SplineSet
588 555 m 1
 636 570 691 559 732 586 c 1
 713 542 697 514 675 481 c 1
 655 476 635 473 615 473 c 0
 602 473 589 474 575 476 c 1
 522 438 476 388 433 339 c 1
 487 255 554 151 626 0 c 1
 377 0 l 1
 351 55 324 108 295 159 c 1
 227 62 164 -40 124 -121 c 1
 87 -130 47 -138 9 -147 c 1
 67 -43 163 93 260 217 c 1
 195 319 120 413 27 500 c 1
 338 500 l 1
 355 464 376 428 402 388 c 1
 455 448 511 527 588 555 c 1
EndSplineSet
EndChar

StartChar: uni0446
Encoding: 1094 1094 159
Width: 750
Flags: MW
HStem: -115 21G<699 699> -112 177 -109 174<400.5 589> 0 65<400.5 417 400.5 515> 480 20G<51 315 315 315 424 684 684 684>
VStem: 69 248<185 415>
LayerCount: 2
Fore
SplineSet
515 0 m 2x00
 55 0 l 1x4c
 65 69 69 146 69 224 c 0
 69 319 62 415 51 500 c 1
 315 500 l 1
 316 466 317 432 317 398 c 0
 317 287 310 180 295 76 c 1
 325 69 384 65 417 65 c 1
 426 146 432 233 432 321 c 0
 432 381 429 441 424 500 c 1
 684 500 l 1
 685 471 686 442 686 414 c 0
 686 295 676 181 659 70 c 1
 684 68 715 66 744 65 c 1x9c
 733 0 720 -55 699 -115 c 1x2c
 589 -109 l 1x9c
 596 -91 599 -75 599 -62 c 0
 599 -20 567 0 515 0 c 2x00
EndSplineSet
EndChar

StartChar: uni0447
Encoding: 1095 1095 160
Width: 725
Flags: MW
HStem: 0 21G<439 658 439 439> 480 20G<41 296 296 296 412 688 688 688>
VStem: 296 109<318 500>
LayerCount: 2
Fore
SplineSet
409 218 m 1
 406 258 405 298 405 338 c 0
 405 392 407 446 412 500 c 1
 688 500 l 1
 664 380 651 262 651 146 c 0xe0
 651 97 653 48 658 0 c 1
 439 0 l 1
 430 45 422 92 417 138 c 1
 384 159 321 170 245 170 c 0
 210 170 171 168 131 163 c 1
 84 268 55 381 41 500 c 1
 296 500 l 1
 296 327 332 234 409 218 c 1
EndSplineSet
EndChar

StartChar: uni0448
Encoding: 1096 1096 161
Width: 1073
Flags: MW
HStem: 0 66<402.5 419 736.5 753> 480 20G<54 318 318 318 407 671 671 671 760 1020 1020 1020>
VStem: 72 248<182.5 415> 425 247<197 457.5>
LayerCount: 2
Fore
SplineSet
760 500 m 1
 1020 500 l 1
 1021 470 1022 444 1022 417 c 0
 1022 276 1007 133 984 0 c 1
 59 0 l 1
 68 68 72 144 72 221 c 0
 72 317 66 414 54 500 c 1
 318 500 l 1
 319 466 320 432 320 398 c 0
 320 287 313 181 298 77 c 1
 328 70 386 66 419 66 c 1
 423 117 425 170 425 224 c 0
 425 318 419 415 407 500 c 1
 671 500 l 1
 672 483 672 466 672 449 c 0
 672 326 657 187 634 76 c 1
 664 70 720 66 753 66 c 1
 762 148 767 235 767 324 c 0
 767 383 765 442 760 500 c 1
EndSplineSet
EndChar

StartChar: uni0449
Encoding: 1097 1097 162
Width: 1054
Flags: MW
HStem: -115 21G<1008 1008> -112 177 -109 174 0 65<375.5 392 710.5 727> 480 20G<28 292 292 292 381 644 644 644 733 993 993 993>
VStem: 46 248<185 414> 399 246<198 452.5>
LayerCount: 2
Fore
SplineSet
825 0 m 2x00
 32 0 l 1x4e
 42 69 46 146 46 224 c 0
 46 318 39 415 28 500 c 1
 292 500 l 1
 293 466 294 431 294 397 c 0
 294 286 287 180 272 76 c 1
 302 69 359 65 392 65 c 1
 397 116 399 171 399 225 c 0
 399 319 392 415 381 500 c 1
 644 500 l 1
 645 482 645 462 645 443 c 0
 645 321 629 185 607 76 c 1
 637 69 694 65 727 65 c 1
 736 146 741 232 741 318 c 0
 741 379 738 441 733 500 c 1
 993 500 l 1
 994 471 995 441 995 413 c 0
 995 295 985 181 968 70 c 1
 993 68 1024 66 1054 65 c 1x9e
 1042 0 1029 -55 1008 -115 c 1x2e
 898 -109 l 1x9e
 905 -91 908 -75 908 -62 c 0
 908 -20 876 0 825 0 c 2x00
EndSplineSet
EndChar

StartChar: uni044A
Encoding: 1098 1098 163
Width: 758
Flags: MW
HStem: 0 21G<198 707 198 198> 347 153 350 150<10 449>
LayerCount: 2
Fore
SplineSet
41 500 m 1
 449 500 l 1
 440 447 432 389 428 330 c 1
 551 316 645 290 738 242 c 1
 736 144 730 84 707 0 c 1
 198 0 l 1
 182 67 174 156 174 243 c 0
 174 311 179 378 188 435 c 1
 139 421 118 399 109 344 c 1
 10 350 l 1
 41 500 l 1
426 261 m 1
 426 196 433 131 451 67 c 1
 487 112 508 167 517 235 c 1
 492 247 460 258 426 261 c 1
EndSplineSet
EndChar

StartChar: uni044B
Encoding: 1099 1099 164
Width: 955
Flags: MW
HStem: 0 21G<63 573 63 63 654 654 654 881> 480 20G<68 315 315 315 649 913 913 913>
VStem: 667 248<181.5 415>
LayerCount: 2
Fore
SplineSet
294 329 m 1
 417 315 511 288 605 241 c 1
 603 143 596 85 573 0 c 1
 63 0 l 1
 47 67 40 153 40 239 c 0
 40 337 49 435 68 500 c 1
 315 500 l 1
 306 446 298 388 294 329 c 1
292 260 m 1
 292 195 299 129 317 66 c 1
 353 110 374 165 383 233 c 1
 358 246 326 257 292 260 c 1
649 500 m 1
 913 500 l 1
 914 466 915 432 915 398 c 0
 915 260 904 128 881 0 c 1
 654 0 l 1
 663 68 667 143 667 220 c 0
 667 316 661 414 649 500 c 1
EndSplineSet
EndChar

StartChar: uni044C
Encoding: 1100 1100 165
Width: 629
Flags: MW
HStem: 0 21G<77 587 77 77> 480 20G<82 328 328 328>
LayerCount: 2
Fore
SplineSet
307 330 m 1
 430 316 524 289 618 242 c 1
 616 144 609 84 587 0 c 1
 77 0 l 1
 61 67 53 154 53 240 c 0
 53 338 63 435 82 500 c 1
 328 500 l 1
 319 447 311 389 307 330 c 1
305 261 m 1
 305 196 312 131 330 67 c 1
 366 112 387 166 396 234 c 1
 371 247 339 258 305 261 c 1
EndSplineSet
EndChar

StartChar: uni044D
Encoding: 1101 1101 166
Width: 640
Flags: MW
HStem: -22 21G<317 403 403 426> 241 92<182 262> 378 145
VStem: 369 250<198.5 330>
LayerCount: 2
Fore
SplineSet
54 498 m 1
 131 515 199 523 259 523 c 0
 507 523 618 391 619 253 c 0
 619 144 549 31 426 -22 c 1
 403 -22 l 2
 231 -22 136 43 59 103 c 1
 60 147 62 188 65 225 c 1
 115 163 167 114 230 73 c 1
 284 105 325 144 348 199 c 1
 326 241 302 250 274 250 c 0
 246 250 215 241 184 241 c 0
 180 241 176 242 171 242 c 1
 122 331 l 1
 131 330 141 330 150 330 c 0
 181 330 209 333 237 333 c 0
 287 333 330 323 366 269 c 1
 368 283 369 297 369 312 c 0
 369 348 364 387 353 433 c 1
 325 440 298 444 271 444 c 0xf0
 250 444 230 442 207 438 c 1
 211 417 217 392 224 372 c 1
 183 373 136 375 94 378 c 1
 79 411 63 462 54 498 c 1
EndSplineSet
EndChar

StartChar: uni044E
Encoding: 1102 1102 167
Width: 961
Flags: MW
HStem: -22 21G<568 674.5> 0 21G<40 267 40 40> 503 20G<641 741.5>
VStem: 54 247<183.5 406.5> 367 201 744 203<165.5 334.5>
LayerCount: 2
Fore
SplineSet
454 2 m 1
 395 78 368 159 367 228 c 1
 344 228 318 228 296 227 c 1
 290 150 280 74 267 0 c 1
 40 0 l 1
 49 68 54 145 54 222 c 0
 54 317 47 414 35 500 c 1
 299 500 l 1
 301 462 301 425 301 388 c 0
 301 358 301 327 300 297 c 1
 326 297 352 296 375 293 c 1
 410 444 566 523 716 523 c 0
 767 523 822 514 876 498 c 1
 925 435 947 367 947 302 c 0
 947 276 944 251 937 227 c 0
 900 90 760 -22 589 -22 c 0
 547 -22 500 -13 454 2 c 1
603 430 m 1
 579 388 568 339 568 291 c 0
 568 190 617 90 699 51 c 1
 729 90 744 140 744 191 c 0
 744 285 694 384 603 430 c 1
EndSplineSet
EndChar

StartChar: uni044F
Encoding: 1103 1103 168
Width: 656
Flags: MW
HStem: 0 197 480 20G<91 613 613 613>
VStem: 386 241<117.5 328.5>
LayerCount: 2
Fore
SplineSet
269 225 m 1
 195 240 125 263 69 292 c 1
 69 321 l 2
 69 380 75 427 91 500 c 1
 613 500 l 1
 622 432 627 363 627 294 c 0
 627 195 617 95 598 0 c 1
 380 0 l 1
 384 47 386 94 386 141 c 0
 386 157 386 173 385 190 c 1
 327 165 292 93 279 0 c 1
 21 0 l 1
 27 81 36 130 62 197 c 1
 150 201 206 209 269 225 c 1
364 433 m 1
 330 389 308 353 293 299 c 1
 316 278 348 265 382 260 c 1
 378 316 372 374 364 433 c 1
EndSplineSet
EndChar

StartChar: uni0409
Encoding: 1033 1033 169
Width: 964
Flags: MW
HStem: 0 21G<15 275 15 15 407 917 407 407> 480 20G<412 659 659 659>
VStem: 269 114<56 253.5>
LayerCount: 2
Fore
SplineSet
638 330 m 1
 760 316 855 289 948 242 c 1
 946 144 940 84 917 0 c 1
 407 0 l 1
 391 67 383 155 383 242 c 0
 383 265 384 287 385 309 c 1
 299 254 269 155 269 68 c 0
 269 44 271 21 275 0 c 1
 15 0 l 1
 21 73 38 178 59 244 c 1
 176 277 302 334 396 420 c 1
 400 450 406 477 412 500 c 1
 659 500 l 1
 650 447 642 389 638 330 c 1
636 261 m 1
 636 196 643 131 661 67 c 1
 697 112 718 166 726 234 c 1
 702 247 670 258 636 261 c 1
EndSplineSet
EndChar

StartChar: uni0459
Encoding: 1113 1113 170
Width: 964
Flags: MW
HStem: 0 21G<15 275 15 15 407 917 407 407> 480 20G<412 659 659 659>
VStem: 269 114<56 253.5>
LayerCount: 2
Fore
SplineSet
638 330 m 1
 760 316 855 289 948 242 c 1
 946 144 940 84 917 0 c 1
 407 0 l 1
 391 67 383 155 383 242 c 0
 383 265 384 287 385 309 c 1
 299 254 269 155 269 68 c 0
 269 44 271 21 275 0 c 1
 15 0 l 1
 21 73 38 178 59 244 c 1
 176 277 302 334 396 420 c 1
 400 450 406 477 412 500 c 1
 659 500 l 1
 650 447 642 389 638 330 c 1
636 261 m 1
 636 196 643 131 661 67 c 1
 697 112 718 166 726 234 c 1
 702 247 670 258 636 261 c 1
EndSplineSet
EndChar

StartChar: uni040A
Encoding: 1034 1034 171
Width: 990
Flags: MW
HStem: 1 21G<46 273 46 46 400 910 400 400> 480 20G<42 305 305 305 415 674 674 674>
VStem: 60 245<186 500> 421 250
LayerCount: 2
Fore
SplineSet
415 500 m 1
 674 500 l 1
 676 488 676 458 676 426 c 0
 676 383 675 336 674 330 c 1
 797 316 889 290 982 242 c 1
 977 150 949 62 910 1 c 1
 400 1 l 1
 411 80 419 166 421 255 c 1
 390 274 342 290 305 294 c 1
 301 193 290 96 273 1 c 1
 46 1 l 1
 56 70 60 147 60 225 c 0
 60 319 53 415 42 500 c 1
 305 500 l 1
 306 470 307 440 307 411 c 2
 307 379 l 1
 349 365 388 349 422 330 c 1
 422 387 420 444 415 500 c 1
671 261 m 1
 666 195 659 131 649 67 c 1
 699 102 751 167 760 235 c 1
 736 247 704 258 671 261 c 1
EndSplineSet
EndChar

StartChar: uni045A
Encoding: 1114 1114 172
Width: 990
Flags: MW
HStem: 1 21G<46 273 46 46 400 910 400 400> 480 20G<42 305 305 305 415 674 674 674>
VStem: 60 245<186 500> 421 250
LayerCount: 2
Fore
SplineSet
415 500 m 1
 674 500 l 1
 676 488 676 458 676 426 c 0
 676 383 675 336 674 330 c 1
 797 316 889 290 982 242 c 1
 977 150 949 62 910 1 c 1
 400 1 l 1
 411 80 419 166 421 255 c 1
 390 274 342 290 305 294 c 1
 301 193 290 96 273 1 c 1
 46 1 l 1
 56 70 60 147 60 225 c 0
 60 319 53 415 42 500 c 1
 305 500 l 1
 306 470 307 440 307 411 c 2
 307 379 l 1
 349 365 388 349 422 330 c 1
 422 387 420 444 415 500 c 1
671 261 m 1
 666 195 659 131 649 67 c 1
 699 102 751 167 760 235 c 1
 736 247 704 258 671 261 c 1
EndSplineSet
EndChar

StartChar: uni0490
Encoding: 1168 1168 173
Width: 595
Flags: MW
HStem: 0 21G<61 278 61 61> 435 65<377.5 386 386 402 402 427 55 569> 567 20G
VStem: 41 235<52.5 318>
LayerCount: 2
Fore
SplineSet
55 500 m 1
 402 500 l 2
 452 500 486 522 501 587 c 1
 542 586 568 585 609 583 c 1xf0
 599 525 588 481 569 435 c 1
 386 435 l 2
 369 435 349 434 326 430 c 1
 298 310 276 182 276 63 c 0
 276 42 276 21 278 0 c 1
 61 0 l 1
 49 81 41 180 41 281 c 0
 41 355 45 430 55 500 c 1
EndSplineSet
EndChar

StartChar: uni0491
Encoding: 1169 1169 174
Width: 595
Flags: MW
HStem: 0 21G<61 278 61 61> 435 65<377.5 386 386 402 402 427 55 569> 567 20G
VStem: 41 235<52.5 318>
LayerCount: 2
Fore
SplineSet
55 500 m 1
 402 500 l 2
 452 500 486 522 501 587 c 1
 542 586 568 585 609 583 c 1xf0
 599 525 588 481 569 435 c 1
 386 435 l 2
 369 435 349 434 326 430 c 1
 298 310 276 182 276 63 c 0
 276 42 276 21 278 0 c 1
 61 0 l 1
 49 81 41 180 41 281 c 0
 41 355 45 430 55 500 c 1
EndSplineSet
EndChar

StartChar: uni040B
Encoding: 1035 1035 175
Width: 838
Flags: MW
HStem: 0 21G<253 471 253 253 564 819 564 564> 326 174<19 719 572 572> 435 65<489 513>
VStem: 219 245<126 357.5>
LayerCount: 2
Fore
SplineSet
489 435 m 1x00
 481 387 475 339 471 292 c 1
 551 264 618 254 703 254 c 0
 719 254 735 254 752 255 c 1
 789 177 810 96 819 0 c 1
 564 0 l 1
 564 170 540 200 465 216 c 1
 464 194 464 173 464 151 c 0
 464 101 466 50 471 0 c 1
 253 0 l 1
 229 113 219 227 219 342 c 0
 219 373 220 404 221 435 c 1xd0
 159 417 129 377 118 320 c 1
 19 326 l 1
 54 500 l 1
 719 500 l 1
 708 435 695 380 674 320 c 1
 572 326 l 1xb0
 575 338 576 348 576 358 c 0
 576 413 537 435 489 435 c 1x00
EndSplineSet
EndChar

StartChar: uni045B
Encoding: 1115 1115 176
Width: 838
Flags: MW
HStem: 0 21G<253 471 253 253 564 819 564 564> 326 174<19 719 572 572> 435 65<489 513>
VStem: 219 245<126 357.5>
LayerCount: 2
Fore
SplineSet
489 435 m 1x00
 481 387 475 339 471 292 c 1
 551 264 618 254 703 254 c 0
 719 254 735 254 752 255 c 1
 789 177 810 96 819 0 c 1
 564 0 l 1
 564 170 540 200 465 216 c 1
 464 194 464 173 464 151 c 0
 464 101 466 50 471 0 c 1
 253 0 l 1
 229 113 219 227 219 342 c 0
 219 373 220 404 221 435 c 1xd0
 159 417 129 377 118 320 c 1
 19 326 l 1
 54 500 l 1
 719 500 l 1
 708 435 695 380 674 320 c 1
 572 326 l 1xb0
 575 338 576 348 576 358 c 0
 576 413 537 435 489 435 c 1x00
EndSplineSet
EndChar

StartChar: uni040F
Encoding: 1039 1039 177
Width: 652
Flags: MW
HStem: -96 21G<332 346> 2 61 480 20G<63 321 321 321 488 610 610 610>
VStem: 49 232<99 297.5> 515 99<159.5 377>
LayerCount: 2
Fore
SplineSet
488 500 m 1
 610 500 l 1
 613 452 614 402 614 352 c 0
 614 254 609 155 599 63 c 1
 541 27 463 4 380 0 c 1
 377 -31 371 -63 364 -95 c 1
 358 -96 350 -96 342 -96 c 0
 322 -96 296 -94 283 -89 c 1
 290 -59 293 -29 294 2 c 1
 202 8 123 29 61 63 c 1
 53 135 49 197 49 261 c 0
 49 334 54 409 63 500 c 1
 321 500 l 1
 295 361 281 227 281 99 c 1
 299 84 337 63 399 63 c 0
 463 63 493 77 513 90 c 1
 514 118 515 146 515 173 c 0
 515 281 506 385 488 500 c 1
EndSplineSet
EndChar

StartChar: uni045F
Encoding: 1119 1119 178
Width: 652
Flags: MW
HStem: -96 21G<332 346> 2 61 480 20G<63 321 321 321 488 610 610 610>
VStem: 49 232<99 297.5> 515 99<159.5 377>
LayerCount: 2
Fore
SplineSet
488 500 m 1
 610 500 l 1
 613 452 614 402 614 352 c 0
 614 254 609 155 599 63 c 1
 541 27 463 4 380 0 c 1
 377 -31 371 -63 364 -95 c 1
 358 -96 350 -96 342 -96 c 0
 322 -96 296 -94 283 -89 c 1
 290 -59 293 -29 294 2 c 1
 202 8 123 29 61 63 c 1
 53 135 49 197 49 261 c 0
 49 334 54 409 63 500 c 1
 321 500 l 1
 295 361 281 227 281 99 c 1
 299 84 337 63 399 63 c 0
 463 63 493 77 513 90 c 1
 514 118 515 146 515 173 c 0
 515 281 506 385 488 500 c 1
EndSplineSet
EndChar

StartChar: uni0407
Encoding: 1031 1031 179
Width: 396
Flags: MW
HStem: 0 21G<71 298 71 71> 576 96 658 20G
VStem: 85 247<183.5 415>
LayerCount: 2
Fore
SplineSet
66 500 m 1x00
 330 500 l 1
 331 466 332 432 332 398 c 0
 332 260 321 128 298 0 c 1
 71 0 l 1
 80 69 85 145 85 222 c 0
 85 317 78 414 66 500 c 1x00
71 678 m 1xb0
 106 675 140 673 175 672 c 1xd0
 168 640 157 607 140 575 c 1
 107 575 73 575 40 576 c 1
 54 610 66 645 71 678 c 1xb0
254 678 m 1
 289 675 323 673 359 672 c 1xb0
 351 640 340 607 324 575 c 1
 290 575 257 575 223 576 c 1
 237 610 249 645 254 678 c 1
EndSplineSet
EndChar

StartChar: uni0457
Encoding: 1111 1111 180
Width: 396
Flags: MW
HStem: 0 21G<71 298 71 71> 576 96 658 20G
VStem: 85 247<183.5 415>
LayerCount: 2
Fore
SplineSet
66 500 m 1x00
 330 500 l 1
 331 466 332 432 332 398 c 0
 332 260 321 128 298 0 c 1
 71 0 l 1
 80 69 85 145 85 222 c 0
 85 317 78 414 66 500 c 1x00
71 678 m 1xb0
 106 675 140 673 175 672 c 1xd0
 168 640 157 607 140 575 c 1
 107 575 73 575 40 576 c 1
 54 610 66 645 71 678 c 1xb0
254 678 m 1
 289 675 323 673 359 672 c 1xb0
 351 640 340 607 324 575 c 1
 290 575 257 575 223 576 c 1
 237 610 249 645 254 678 c 1
EndSplineSet
EndChar

StartChar: uni0401
Encoding: 1025 1025 181
Width: 643
Flags: MW
HStem: 0 66<355 370 355 550> 0 149<73 589> 227 72<338 409.5> 348 152 434 66<373 380 380 389> 575 97 658 20G
LayerCount: 2
Fore
SplineSet
67 500 m 1x00
 588 500 l 1
 581 458 568 387 557 348 c 1
 516 346 492 345 452 344 c 1
 458 361 460 375 460 387 c 0
 460 422 435 434 389 434 c 2xac
 380 434 l 2
 366 434 349 432 331 429 c 1
 318 374 307 318 299 262 c 1
 324 286 361 299 395 299 c 0
 424 299 456 293 487 293 c 0
 494 293 500 293 507 294 c 1
 461 206 l 1
 452 206 l 2
 416 206 381 226 351 227 c 0
 325 227 305 214 288 174 c 1
 285 141 283 109 282 77 c 1
 315 69 340 66 370 66 c 0
 422 67 457 85 472 153 c 1
 589 149 l 1xb4
 579 90 569 46 550 0 c 1
 73 0 l 1
 61 81 54 181 54 282 c 0
 54 355 58 430 67 500 c 1x00
210 678 m 1x72
 245 675 278 673 312 672 c 1xb4
 305 640 295 608 278 576 c 1
 265 576 252 575 238 575 c 0
 219 575 199 576 180 577 c 1
 194 610 206 645 210 678 c 1x72
389 678 m 1xb2
 423 675 456 673 491 672 c 1xb4
 483 640 473 608 457 576 c 1
 443 576 429 575 416 575 c 0
 397 575 378 576 359 577 c 1
 372 610 384 645 389 678 c 1xb2
EndSplineSet
EndChar

StartChar: uni0451
Encoding: 1105 1105 182
Width: 643
Flags: MW
HStem: 0 66<355 370 355 550> 0 149<73 589> 227 72<338 409.5> 348 152 434 66<373 380 380 389> 575 97 658 20G
LayerCount: 2
Fore
SplineSet
67 500 m 1x00
 588 500 l 1
 581 458 568 387 557 348 c 1
 516 346 492 345 452 344 c 1
 458 361 460 375 460 387 c 0
 460 422 435 434 389 434 c 2xac
 380 434 l 2
 366 434 349 432 331 429 c 1
 318 374 307 318 299 262 c 1
 324 286 361 299 395 299 c 0
 424 299 456 293 487 293 c 0
 494 293 500 293 507 294 c 1
 461 206 l 1
 452 206 l 2
 416 206 381 226 351 227 c 0
 325 227 305 214 288 174 c 1
 285 141 283 109 282 77 c 1
 315 69 340 66 370 66 c 0
 422 67 457 85 472 153 c 1
 589 149 l 1xb4
 579 90 569 46 550 0 c 1
 73 0 l 1
 61 81 54 181 54 282 c 0
 54 355 58 430 67 500 c 1x00
210 678 m 1x72
 245 675 278 673 312 672 c 1xb4
 305 640 295 608 278 576 c 1
 265 576 252 575 238 575 c 0
 219 575 199 576 180 577 c 1
 194 610 206 645 210 678 c 1x72
389 678 m 1xb2
 423 675 456 673 491 672 c 1xb4
 483 640 473 608 457 576 c 1
 443 576 429 575 416 575 c 0
 397 575 378 576 359 577 c 1
 372 610 384 645 389 678 c 1xb2
EndSplineSet
EndChar

StartChar: section
Encoding: 167 167 183
Width: 546
Flags: MW
HStem: -115 60<192 278.5 246 248> -115 130<196 196 196 229 196 248> 479 129<257 322> 481 127 547 61<265.5 279 279 286.5>
LayerCount: 2
Fore
SplineSet
128 594 m 1x00
 157 601 191 607 257 608 c 1
 279 608 l 2
 352 608 419 599 469 588 c 1
 458 550 446 515 434 484 c 1
 322 479 l 1x50
 329 498 334 517 336 537 c 1
 316 544 296 547 277 547 c 0x88
 254 547 232 543 211 533 c 1
 282 413 405 426 497 305 c 1
 482 253 445 186 420 153 c 1
 411 151 397 149 380 147 c 1
 419 125 460 97 494 51 c 1
 481 3 442 -66 418 -100 c 1
 385 -108 315 -113 248 -115 c 1
 229 -115 l 2
 155 -115 100 -105 49 -94 c 1
 59 -56 70 -21 83 9 c 1
 196 15 l 1xa0
 188 -4 182 -24 180 -43 c 1
 201 -51 231 -55 261 -55 c 0x90
 296 -55 330 -50 351 -39 c 1
 283 42 101 91 59 246 c 1
 76 277 111 323 125 341 c 1
 139 344 153 347 170 349 c 1
 122 388 79 434 61 499 c 1
 79 530 113 577 128 594 c 1x00
286 197 m 1
 316 199 344 203 360 208 c 1
 338 235 287 270 248 296 c 1
 232 295 211 290 195 285 c 1
 219 251 259 217 286 197 c 1
EndSplineSet
EndChar

StartChar: trademark
Encoding: 8482 8482 184
Width: 877
Flags: MW
HStem: 251 249<146 255 146 146 345 379 440 466 466 466 535 598 47 633 710 790>
VStem: 129 123<310 430.5> 252 55 341 118<298.5 312.5> 633 77<251 251> 710 116<251 251>
LayerCount: 2
Fore
SplineSet
264 468 m 1x00
 256 419 252 370 252 322 c 0
 252 298 253 275 255 251 c 1
 146 251 l 1
 134 308 129 365 129 423 c 0xb8
 129 438 129 453 130 468 c 1
 99 459 85 439 79 410 c 1
 69 410 l 1
 56 411 41 412 29 414 c 1
 47 500 l 1
 379 500 l 1
 373 468 367 441 356 410 c 1
 338 412 323 412 305 414 c 1
 306 420 307 426 307 431 c 0
 307 457 288 468 264 468 c 1x00
440 500 m 1
 450 487 459 473 467 459 c 1
 446 421 397 386 351 373 c 1
 345 353 341 326 341 299 c 0
 341 283 342 267 345 251 c 1
 466 251 l 1
 461 270 459 289 459 308 c 0
 459 349 470 387 486 425 c 1
 511 373 527 316 535 251 c 1
 633 251 l 1xd4
 636 322 655 374 681 424 c 1
 697 370 708 306 710 251 c 1
 826 251 l 1
 825 323 815 431 790 500 c 1
 647 500 l 1
 650 494 651 486 651 477 c 0
 651 451 641 416 626 389 c 1
 620 427 611 464 598 500 c 1
 440 500 l 1
EndSplineSet
EndChar

StartChar: uni0402
Encoding: 1026 1026 185
Width: 774
Flags: MW
HStem: -168 21G 0 21G<242 460 242 242> 320 180 434 66<478 502.5>
VStem: 208 247 537 221<124.5 131>
LayerCount: 2
Fore
SplineSet
478 434 m 1x00
 470 387 464 339 460 293 c 1
 582 279 664 256 757 208 c 1
 757 194 758 179 758 165 c 0
 758 84 750 -2 727 -69 c 1
 665 -112 602 -143 536 -168 c 1
 477 -155 440 -144 389 -124 c 1
 389 -82 391 -51 394 -14 c 1
 436 -52 478 -81 512 -98 c 1
 528 -40 537 37 537 118 c 0
 537 144 536 170 534 197 c 1
 511 209 486 220 455 223 c 1
 451 148 453 74 460 0 c 1
 242 0 l 1
 218 113 208 226 208 341 c 0
 208 372 209 403 210 434 c 1xec
 148 417 119 377 107 320 c 1
 76 322 39 324 8 327 c 1
 44 500 l 1
 708 500 l 1
 696 434 684 380 663 320 c 1xdc
 627 322 597 324 561 327 c 1
 564 339 565 349 565 359 c 0
 565 412 527 434 478 434 c 1x00
EndSplineSet
EndChar

StartChar: uni045C
Encoding: 1116 1116 186
Width: 707
Flags: MW
HStem: 0 244 409 91 660 20G<354 354>
VStem: 41 236<68 300.5>
LayerCount: 2
Fore
SplineSet
293 292 m 1
 348 382 408 453 505 502 c 1
 526 506 548 507 570 507 c 2
 603 507 l 2
 636 507 669 508 698 522 c 1
 671 482 643 444 613 409 c 1
 597 409 l 2
 563 409 531 414 498 425 c 1
 447 383 416 337 389 276 c 1
 457 259 530 248 625 244 c 1
 648 187 661 80 666 0 c 1
 407 0 l 1
 385 98 334 191 284 222 c 1
 280 175 277 128 277 82 c 0
 277 54 278 27 280 0 c 1
 60 0 l 1
 49 85 41 173 41 261 c 0
 41 340 48 420 56 500 c 1
 334 500 l 1
 317 429 302 359 293 292 c 1
354 680 m 1
 465 666 l 1
 436 608 377 578 317 550 c 1xf0
 251 550 l 1
 302 583 334 626 354 680 c 1
EndSplineSet
EndChar

StartChar: underscore
Encoding: 95 95 187
Width: 532
Flags: MW
HStem: 1 21G<16 16 513 513> 8 56<223.5 305.5 222.5 306.5> 49 20G<16 16 513 513>
LayerCount: 2
Fore
SplineSet
16 1 m 1x00
 16 69 l 1
 98 65 181 64 264 64 c 0xa0
 347 64 430 65 513 69 c 1x40
 513 1 l 1
 430 5 348 8 265 8 c 0xa0
 182 8 99 5 16 1 c 1x00
EndSplineSet
EndChar

StartChar: grave
Encoding: 96 96 188
Width: 273
Flags: MW
HStem: 550 21G<179 245 179 179> 660 20G<142 142>
LayerCount: 2
Fore
SplineSet
142 680 m 1
 162 626 194 583 245 550 c 1
 179 550 l 1
 119 578 60 608 31 666 c 1
 142 680 l 1
EndSplineSet
EndChar

StartChar: breve
Encoding: 728 728 189
Width: 303
Flags: MW
HStem: 538 55<120 206.5> 550 21G
LayerCount: 2
Fore
SplineSet
43 569 m 1x00
 29 577 l 1
 36 613 60 682 62 680 c 1
 85 621 137 593 190 593 c 0x80
 223 593 256 604 281 626 c 0
 282 626 249 550 177 540 c 0x40
 165 539 156 538 146 538 c 0x80
 94 538 67 554 43 569 c 1x00
EndSplineSet
EndChar

StartChar: perthousand
Encoding: 8240 8240 190
Width: 839
Flags: MW
HStem: -36 21G<124 124> -14 21G<355 412.5 655 712.5> 519 20G<403 403>
VStem: 4 104<396.5 418> 171 104<371.5 372> 262 103<126 146> 428 105<66.5 158.5> 562 103<126 146> 728 105<66.5 158.5>
LayerCount: 2
Fore
SplineSet
372 204 m 1x00
 368 188 365 171 365 153 c 0
 365 99 385 40 417 19 c 1
 424 35 428 56 428 77 c 0
 428 126 408 180 372 204 c 1x00
124 -36 m 1
 84 -13 l 1
 194 169 300 353 403 539 c 1
 443 516 l 1
 333 337 226 153 124 -36 c 1
115 476 m 1
 111 460 108 442 108 424 c 0
 108 369 128 311 160 290 c 1
 167 306 171 326 171 347 c 0xf780
 171 397 151 451 115 476 c 1
45 268 m 1
 17 306 4 344 4 378 c 0
 4 458 72 518 172 518 c 0
 194 518 217 515 241 509 c 1
 265 478 275 445 275 413 c 0
 275 330 203 257 109 257 c 0
 89 257 67 261 45 268 c 1
303 -4 m 1
 274 34 262 72 262 106 c 0
 262 186 331 247 431 247 c 0
 452 247 475 244 499 238 c 1
 522 207 533 174 533 143 c 0
 533 60 460 -14 365 -14 c 0xfb80
 345 -14 324 -11 303 -4 c 1
672 204 m 1
 668 188 665 171 665 153 c 0
 665 99 685 40 717 19 c 1
 724 35 728 56 728 77 c 0
 728 126 708 180 672 204 c 1
603 -4 m 1
 574 34 562 72 562 106 c 0
 562 186 631 247 731 247 c 0
 752 247 775 244 799 238 c 1
 822 207 833 174 833 143 c 0
 833 60 760 -14 665 -14 c 0
 645 -14 624 -11 603 -4 c 1
EndSplineSet
EndChar

StartChar: circumflex
Encoding: 710 710 191
Width: 261
Flags: MW
HStem: 558 21G<17 17 17 49 214 214 214 246> 653 20G<107 156 156 156>
LayerCount: 2
Fore
SplineSet
17 558 m 1
 107 673 l 1
 156 673 l 1
 246 558 l 1
 214 558 l 1
 131 620 l 1
 49 558 l 1
 17 558 l 1
EndSplineSet
EndChar

StartChar: dieresis
Encoding: 168 168 192
Width: 344
Flags: MW
HStem: 575 97 576 21G<109.5 116 288 295> 658 20G
LayerCount: 2
Fore
SplineSet
48 678 m 1x00
 83 675 116 673 150 672 c 1x60
 143 640 133 608 116 576 c 1x80
 103 576 90 575 76 575 c 0x60
 57 575 37 576 18 577 c 1
 32 610 44 645 48 678 c 1x00
227 678 m 1x80
 261 675 294 673 329 672 c 1x60
 321 640 311 608 295 576 c 1x80
 281 576 267 575 254 575 c 0x60
 235 575 216 576 197 577 c 1
 210 610 222 645 227 678 c 1x80
EndSplineSet
EndChar

StartChar: cedilla
Encoding: 184 184 193
Width: 183
Flags: MW
HStem: -185 21G<42 42> 2 20G<65 101 101 101>
LayerCount: 2
Fore
SplineSet
65 22 m 1
 101 22 l 1
 77 -48 l 2
 78 -48 80 -46 81 -46 c 0
 94 -43 107 -41 120 -41 c 0
 124 -41 128 -42 132 -42 c 0
 149 -44 166 -60 168 -75 c 1
 168 -80 l 2
 168 -101 158 -130 136 -148 c 1
 117 -168 77 -184 42 -185 c 1
 36 -164 l 1
 80 -164 99 -138 99 -117 c 0
 99 -114 99 -111 98 -109 c 0
 94 -98 83 -91 67 -91 c 0
 56 -91 37 -100 21 -106 c 1
 65 22 l 1
EndSplineSet
EndChar

StartChar: tilde
Encoding: 732 732 194
Width: 311
Flags: MW
HStem: 575 63<192 210> 616 44<81 93 81 98> 665 20G
LayerCount: 2
Fore
SplineSet
301 685 m 1x00
 285 649 278 630 265 598 c 1
 249 585 228 575 192 575 c 0
 140 576 116 616 80 616 c 0x60
 52 616 30 601 14 583 c 1
 27 623 l 1
 41 640 69 660 93 660 c 0
 144 659 156 638 202 638 c 0xa0
 242 638 274 657 301 685 c 1x00
EndSplineSet
EndChar

StartChar: acute
Encoding: 180 180 195
Width: 273
Flags: MW
HStem: 550 21G<35 101 35 35> 660 20G<138 138>
LayerCount: 2
Fore
SplineSet
138 680 m 1
 249 666 l 1
 220 608 161 578 101 550 c 1
 35 550 l 1
 86 583 118 626 138 680 c 1
EndSplineSet
EndChar

StartChar: caron
Encoding: 711 711 197
Width: 261
Flags: MW
HStem: 554 21G<107 107 107 156> 649 20G<17 49 49 49 214 246 246 246>
LayerCount: 2
Fore
SplineSet
107 554 m 1
 17 669 l 1
 49 669 l 1
 131 607 l 1
 214 669 l 1
 246 669 l 1
 156 554 l 1
 107 554 l 1
EndSplineSet
EndChar

StartChar: zcaron
Encoding: 382 382 198
Width: 638
Flags: MW
HStem: 0 67<396 405 405 431.5 396 590> 0 149 435 65<223 268.5>
LayerCount: 2
Fore
SplineSet
312 77 m 1x00
 343 71 369 67 396 67 c 2
 405 67 l 2
 458 67 494 86 510 153 c 1
 551 152 588 151 630 149 c 1xa0
 620 91 609 47 590 0 c 1
 19 0 l 1
 93 133 194 289 315 430 c 1
 296 434 283 435 254 435 c 0
 192 435 142 399 130 342 c 1
 99 344 63 346 32 349 c 1
 63 500 l 1
 620 500 l 1
 500 370 398 229 312 77 c 1x00
294 554 m 1
 204 669 l 1x60
 236 669 l 1
 318 607 l 1
 401 669 l 1
 433 669 l 1
 343 554 l 1
 294 554 l 1
EndSplineSet
EndChar

StartChar: ring
Encoding: 730 730 199
Width: 194
Flags: MW
HStem: 553 123<92.5 107>
VStem: 23 55<612.5 624> 119 54<606 612>
LayerCount: 2
Fore
SplineSet
52 558 m 1
 32 573 23 590 23 606 c 0
 23 642 66 676 119 676 c 0
 129 676 139 675 149 672 c 1
 166 657 173 641 173 625 c 0
 173 587 131 553 83 553 c 0
 73 553 62 555 52 558 c 1
86 656 m 1
 81 646 78 635 78 624 c 0
 78 601 89 577 109 568 c 1
 116 577 119 589 119 601 c 0
 119 623 108 646 86 656 c 1
EndSplineSet
EndChar

StartChar: aring
Encoding: 229 229 200
Width: 767
Flags: MW
HStem: 0 21G<68 301 301 301 458 690 690 690> 553 123<418.5 433>
VStem: 61 240<0 118.5> 404 41<595 629.5>
LayerCount: 2
Fore
SplineSet
259 500 m 1
 280 476 299 450 316 423 c 1
 276 345 175 271 81 244 c 1
 69 203 61 147 61 90 c 0
 61 60 63 29 68 0 c 1
 301 0 l 1
 351 35 399 75 441 118 c 1
 449 80 455 41 458 0 c 1
 690 0 l 1
 690 8 l 2
 690 186 655 361 591 500 c 1
 259 500 l 1
423 191 m 1
 389 153 344 120 301 98 c 1
 306 181 324 267 355 359 c 1
 384 305 406 250 423 191 c 1
378 558 m 1
 358 573 349 590 349 606 c 0
 349 642 392 676 445 676 c 0
 455 676 465 675 475 672 c 1
 492 657 499 641 499 625 c 0
 499 587 457 553 409 553 c 0
 399 553 388 555 378 558 c 1
412 656 m 1
 407 646 404 635 404 624 c 0
 404 601 415 577 435 568 c 1
 442 577 445 589 445 601 c 0
 445 623 434 646 412 656 c 1
EndSplineSet
EndChar

StartChar: Aring
Encoding: 197 197 201
Width: 767
Flags: MW
HStem: 0 21G<68 301 301 301 458 690 690 690> 553 123<418.5 433>
VStem: 61 240<0 118.5> 404 41<595 629.5>
LayerCount: 2
Fore
SplineSet
259 500 m 1
 280 476 299 450 316 423 c 1
 276 345 175 271 81 244 c 1
 69 203 61 147 61 90 c 0
 61 60 63 29 68 0 c 1
 301 0 l 1
 351 35 399 75 441 118 c 1
 449 80 455 41 458 0 c 1
 690 0 l 1
 690 8 l 2
 690 186 655 361 591 500 c 1
 259 500 l 1
423 191 m 1
 389 153 344 120 301 98 c 1
 306 181 324 267 355 359 c 1
 384 305 406 250 423 191 c 1
378 558 m 1
 358 573 349 590 349 606 c 0
 349 642 392 676 445 676 c 0
 455 676 465 675 475 672 c 1
 492 657 499 641 499 625 c 0
 499 587 457 553 409 553 c 0
 399 553 388 555 378 558 c 1
412 656 m 1
 407 646 404 635 404 624 c 0
 404 601 415 577 435 568 c 1
 442 577 445 589 445 601 c 0
 445 623 434 646 412 656 c 1
EndSplineSet
EndChar

StartChar: agrave
Encoding: 224 224 202
Width: 767
Flags: MW
HStem: 0 21G<68 301 301 301 458 690 690 690> 660 20G<387 387>
VStem: 61 240<0 118.5>
LayerCount: 2
Fore
SplineSet
259 500 m 1
 280 476 299 450 316 423 c 1
 276 345 175 271 81 244 c 1
 69 203 61 147 61 90 c 0
 61 60 63 29 68 0 c 1
 301 0 l 1
 351 35 399 75 441 118 c 1
 449 80 455 41 458 0 c 1
 690 0 l 1
 690 8 l 2
 690 186 655 361 591 500 c 1
 259 500 l 1
423 191 m 1
 389 153 344 120 301 98 c 1
 306 181 324 267 355 359 c 1
 384 305 406 250 423 191 c 1
387 680 m 1
 407 626 439 583 490 550 c 1
 424 550 l 1
 364 578 305 608 276 666 c 1
 387 680 l 1
EndSplineSet
EndChar

StartChar: aacute
Encoding: 225 225 203
Width: 767
Flags: MW
HStem: 0 21G<68 301 68 68 458 690 458 458> 500 50<276 342 276 591> 660 20G<379 379>
VStem: 61 240<0 118.5>
LayerCount: 2
Fore
SplineSet
259 500 m 1
 591 500 l 1
 655 361 690 186 690 8 c 2
 690 0 l 1
 458 0 l 1
 455 41 449 80 441 118 c 1
 399 75 351 35 301 0 c 1
 68 0 l 1
 63 29 61 60 61 90 c 0
 61 147 69 203 81 244 c 1
 175 271 276 345 316 423 c 1
 299 450 280 476 259 500 c 1
423 191 m 1
 406 250 384 305 355 359 c 1
 324 267 306 181 301 98 c 1
 344 120 389 153 423 191 c 1
379 680 m 1
 490 666 l 1
 461 608 402 578 342 550 c 1
 276 550 l 1
 327 583 359 626 379 680 c 1
EndSplineSet
EndChar

StartChar: acircumflex
Encoding: 226 226 204
Width: 767
Flags: MW
HStem: 0 21G<68 301 301 301 458 690 690 690> 653 20G<374 423 423 423>
VStem: 61 240<0 118.5>
LayerCount: 2
Fore
SplineSet
259 500 m 1
 280 476 299 450 316 423 c 1
 276 345 175 271 81 244 c 1
 69 203 61 147 61 90 c 0
 61 60 63 29 68 0 c 1
 301 0 l 1
 351 35 399 75 441 118 c 1
 449 80 455 41 458 0 c 1
 690 0 l 1
 690 8 l 2
 690 186 655 361 591 500 c 1
 259 500 l 1
423 191 m 1
 389 153 344 120 301 98 c 1
 306 181 324 267 355 359 c 1
 384 305 406 250 423 191 c 1
284 558 m 1
 374 673 l 1
 423 673 l 1
 513 558 l 1
 481 558 l 1
 398 620 l 1
 316 558 l 1
 284 558 l 1
EndSplineSet
EndChar

StartChar: adieresis
Encoding: 228 228 205
Width: 767
Flags: MW
HStem: 0 21G<68 301 68 68 458 690 458 458> 575 97 658 20G
VStem: 61 240<0 118.5>
LayerCount: 2
Fore
SplineSet
259 500 m 1x00
 591 500 l 1
 655 361 690 186 690 8 c 2
 690 0 l 1
 458 0 l 1
 455 41 449 80 441 118 c 1
 399 75 351 35 301 0 c 1
 68 0 l 1
 63 29 61 60 61 90 c 0
 61 147 69 203 81 244 c 1
 175 271 276 345 316 423 c 1
 299 450 280 476 259 500 c 1x00
423 191 m 1
 406 250 384 305 355 359 c 1
 324 267 306 181 301 98 c 1
 344 120 389 153 423 191 c 1
258 678 m 1xb0
 293 675 326 673 360 672 c 1xd0
 353 640 343 608 326 576 c 1
 313 576 300 575 286 575 c 0
 267 575 247 576 228 577 c 1
 242 610 254 645 258 678 c 1xb0
437 678 m 1
 471 675 504 673 539 672 c 1xb0
 531 640 521 608 505 576 c 1
 491 576 477 575 464 575 c 0
 445 575 426 576 407 577 c 1
 420 610 432 645 437 678 c 1
EndSplineSet
EndChar

StartChar: Agrave
Encoding: 192 192 206
Width: 767
Flags: MW
HStem: 0 21G<68 301 301 301 458 690 690 690> 660 20G<387 387>
VStem: 61 240<0 118.5>
LayerCount: 2
Fore
SplineSet
259 500 m 1
 280 476 299 450 316 423 c 1
 276 345 175 271 81 244 c 1
 69 203 61 147 61 90 c 0
 61 60 63 29 68 0 c 1
 301 0 l 1
 351 35 399 75 441 118 c 1
 449 80 455 41 458 0 c 1
 690 0 l 1
 690 8 l 2
 690 186 655 361 591 500 c 1
 259 500 l 1
423 191 m 1
 389 153 344 120 301 98 c 1
 306 181 324 267 355 359 c 1
 384 305 406 250 423 191 c 1
387 680 m 1
 407 626 439 583 490 550 c 1
 424 550 l 1
 364 578 305 608 276 666 c 1
 387 680 l 1
EndSplineSet
EndChar

StartChar: Aacute
Encoding: 193 193 207
Width: 767
Flags: MW
HStem: 0 21G<68 301 68 68 458 690 458 458> 500 50<276 342 276 591> 660 20G<379 379>
VStem: 61 240<0 118.5>
LayerCount: 2
Fore
SplineSet
259 500 m 1
 591 500 l 1
 655 361 690 186 690 8 c 2
 690 0 l 1
 458 0 l 1
 455 41 449 80 441 118 c 1
 399 75 351 35 301 0 c 1
 68 0 l 1
 63 29 61 60 61 90 c 0
 61 147 69 203 81 244 c 1
 175 271 276 345 316 423 c 1
 299 450 280 476 259 500 c 1
423 191 m 1
 406 250 384 305 355 359 c 1
 324 267 306 181 301 98 c 1
 344 120 389 153 423 191 c 1
379 680 m 1
 490 666 l 1
 461 608 402 578 342 550 c 1
 276 550 l 1
 327 583 359 626 379 680 c 1
EndSplineSet
EndChar

StartChar: Atilde
Encoding: 195 195 208
Width: 767
Flags: MW
HStem: 0 21G<68 301 68 68 458 690 458 458> 575 63<434 452> 616 44<323 335 323 340> 665 20G
VStem: 61 240<0 118.5>
LayerCount: 2
Fore
SplineSet
259 500 m 1x00
 591 500 l 1
 655 361 690 186 690 8 c 2
 690 0 l 1
 458 0 l 1
 455 41 449 80 441 118 c 1
 399 75 351 35 301 0 c 1
 68 0 l 1
 63 29 61 60 61 90 c 0
 61 147 69 203 81 244 c 1
 175 271 276 345 316 423 c 1
 299 450 280 476 259 500 c 1x00
423 191 m 1
 406 250 384 305 355 359 c 1
 324 267 306 181 301 98 c 1
 344 120 389 153 423 191 c 1
543 685 m 1
 527 649 520 630 507 598 c 1
 491 585 470 575 434 575 c 0
 382 576 358 616 322 616 c 0xb8
 294 616 272 601 256 583 c 1
 269 623 l 1
 283 640 311 660 335 660 c 0
 386 659 398 638 444 638 c 0xd8
 484 638 516 657 543 685 c 1
EndSplineSet
EndChar

StartChar: Adieresis
Encoding: 196 196 209
Width: 767
Flags: MW
HStem: 0 21G<68 301 68 68 458 690 458 458> 575 97 658 20G
VStem: 61 240<0 118.5>
LayerCount: 2
Fore
SplineSet
259 500 m 1x00
 591 500 l 1
 655 361 690 186 690 8 c 2
 690 0 l 1
 458 0 l 1
 455 41 449 80 441 118 c 1
 399 75 351 35 301 0 c 1
 68 0 l 1
 63 29 61 60 61 90 c 0
 61 147 69 203 81 244 c 1
 175 271 276 345 316 423 c 1
 299 450 280 476 259 500 c 1x00
423 191 m 1
 406 250 384 305 355 359 c 1
 324 267 306 181 301 98 c 1
 344 120 389 153 423 191 c 1
258 678 m 1xb0
 293 675 326 673 360 672 c 1xd0
 353 640 343 608 326 576 c 1
 313 576 300 575 286 575 c 0
 267 575 247 576 228 577 c 1
 242 610 254 645 258 678 c 1xb0
437 678 m 1
 471 675 504 673 539 672 c 1xb0
 531 640 521 608 505 576 c 1
 491 576 477 575 464 575 c 0
 445 575 426 576 407 577 c 1
 420 610 432 645 437 678 c 1
EndSplineSet
EndChar

StartChar: atilde
Encoding: 227 227 210
Width: 767
Flags: MW
HStem: 0 21G<68 301 68 68 458 690 458 458> 575 63<434 452> 616 44<323 335 323 340> 665 20G
VStem: 61 240<0 118.5>
LayerCount: 2
Fore
SplineSet
259 500 m 1x00
 591 500 l 1
 655 361 690 186 690 8 c 2
 690 0 l 1
 458 0 l 1
 455 41 449 80 441 118 c 1
 399 75 351 35 301 0 c 1
 68 0 l 1
 63 29 61 60 61 90 c 0
 61 147 69 203 81 244 c 1
 175 271 276 345 316 423 c 1
 299 450 280 476 259 500 c 1x00
423 191 m 1
 406 250 384 305 355 359 c 1
 324 267 306 181 301 98 c 1
 344 120 389 153 423 191 c 1
543 685 m 1
 527 649 520 630 507 598 c 1
 491 585 470 575 434 575 c 0
 382 576 358 616 322 616 c 0xb8
 294 616 272 601 256 583 c 1
 269 623 l 1
 283 640 311 660 335 660 c 0
 386 659 398 638 444 638 c 0xd8
 484 638 516 657 543 685 c 1
EndSplineSet
EndChar

StartChar: Acircumflex
Encoding: 194 194 211
Width: 767
Flags: MW
HStem: 0 21G<68 301 301 301 458 690 690 690> 653 20G<374 423 423 423>
VStem: 61 240<0 118.5>
LayerCount: 2
Fore
SplineSet
259 500 m 1
 280 476 299 450 316 423 c 1
 276 345 175 271 81 244 c 1
 69 203 61 147 61 90 c 0
 61 60 63 29 68 0 c 1
 301 0 l 1
 351 35 399 75 441 118 c 1
 449 80 455 41 458 0 c 1
 690 0 l 1
 690 8 l 2
 690 186 655 361 591 500 c 1
 259 500 l 1
423 191 m 1
 389 153 344 120 301 98 c 1
 306 181 324 267 355 359 c 1
 384 305 406 250 423 191 c 1
284 558 m 1
 374 673 l 1
 423 673 l 1
 513 558 l 1
 481 558 l 1
 398 620 l 1
 316 558 l 1
 284 558 l 1
EndSplineSet
EndChar

StartChar: ae
Encoding: 230 230 212
Width: 1027
Flags: MW
HStem: 0 66<736 745 745 772 736 931> 226 66 343 157<829 829> 434 66<756.5 788.5>
VStem: 41 239<0 121>
LayerCount: 2
Fore
SplineSet
238 500 m 1x00
 970 500 l 1
 963 458 949 386 937 348 c 1
 829 343 l 1
 835 361 838 375 838 387 c 0
 838 422 812 434 765 434 c 0xd8
 748 434 728 433 706 429 c 1
 693 374 681 318 672 261 c 1
 698 285 736 298 771 298 c 2
 777 298 l 2
 806 298 839 292 869 292 c 0
 875 292 880 293 886 293 c 1
 839 206 l 1
 829 206 l 2
 792 206 757 225 726 226 c 0
 699 226 679 214 661 173 c 1
 658 141 656 108 655 76 c 1
 686 70 710 66 736 66 c 2
 745 66 l 2
 799 66 835 85 850 153 c 1
 971 148 l 1xe8
 961 90 950 47 931 0 c 1
 437 0 l 1
 433 41 428 80 420 118 c 1
 378 75 331 35 280 0 c 1
 48 0 l 1
 43 30 41 61 41 93 c 0
 41 149 48 204 60 244 c 1
 155 271 256 344 296 423 c 1
 278 449 259 475 238 500 c 1x00
402 191 m 1
 385 250 363 306 335 358 c 1
 304 267 286 181 280 98 c 1
 323 120 368 153 402 191 c 1
EndSplineSet
EndChar

StartChar: AE
Encoding: 198 198 213
Width: 1027
Flags: MW
HStem: 0 66<736 745 745 772 736 931> 226 66 343 157<829 829> 434 66<756.5 788.5>
VStem: 41 239<0 121>
LayerCount: 2
Fore
SplineSet
238 500 m 1x00
 970 500 l 1
 963 458 949 386 937 348 c 1
 829 343 l 1
 835 361 838 375 838 387 c 0
 838 422 812 434 765 434 c 0xd8
 748 434 728 433 706 429 c 1
 693 374 681 318 672 261 c 1
 698 285 736 298 771 298 c 2
 777 298 l 2
 806 298 839 292 869 292 c 0
 875 292 880 293 886 293 c 1
 839 206 l 1
 829 206 l 2
 792 206 757 225 726 226 c 0
 699 226 679 214 661 173 c 1
 658 141 656 108 655 76 c 1
 686 70 710 66 736 66 c 2
 745 66 l 2
 799 66 835 85 850 153 c 1
 971 148 l 1xe8
 961 90 950 47 931 0 c 1
 437 0 l 1
 433 41 428 80 420 118 c 1
 378 75 331 35 280 0 c 1
 48 0 l 1
 43 30 41 61 41 93 c 0
 41 149 48 204 60 244 c 1
 155 271 256 344 296 423 c 1
 278 449 259 475 238 500 c 1x00
402 191 m 1
 385 250 363 306 335 358 c 1
 304 267 286 181 280 98 c 1
 323 120 368 153 402 191 c 1
EndSplineSet
EndChar

StartChar: ccedilla
Encoding: 231 231 214
Width: 632
Flags: MW
HStem: -189 21G<273 273> -21 21G<231 254 231 231> 445 78<372 395.5>
VStem: 38 250<252.5 254>
LayerCount: 2
Fore
SplineSet
602 498 m 1
 593 463 576 412 562 379 c 1
 520 375 474 373 432 373 c 1
 439 393 445 418 449 439 c 1
 426 443 406 445 385 445 c 0
 359 445 332 441 303 434 c 1
 292 388 288 347 288 311 c 0
 288 194 341 124 426 73 c 1
 490 115 542 163 592 225 c 1
 595 188 596 149 597 103 c 1
 530 51 450 -3 320 -17 c 1
 308 -52 l 2
 309 -52 311 -50 312 -50 c 0
 325 -47 338 -45 351 -45 c 0
 355 -45 359 -46 363 -46 c 0
 380 -48 397 -64 399 -79 c 1
 399 -84 l 2
 399 -105 389 -134 367 -152 c 1
 348 -172 308 -188 273 -189 c 1
 267 -168 l 1
 311 -168 330 -142 330 -121 c 0
 330 -118 330 -115 329 -113 c 0
 325 -102 314 -95 298 -95 c 0
 287 -95 268 -104 252 -110 c 1
 283 -20 l 1
 273 -21 264 -21 254 -21 c 2
 231 -21 l 1
 107 32 38 145 38 254 c 0
 39 392 149 523 397 523 c 0
 458 523 525 516 602 498 c 1
EndSplineSet
EndChar

StartChar: Ccedilla
Encoding: 199 199 215
Width: 632
Flags: MW
HStem: -189 21G<273 273> -21 21G<231 254 231 231> 445 78<372 395.5>
VStem: 38 250<252.5 254>
LayerCount: 2
Fore
SplineSet
602 498 m 1
 593 463 576 412 562 379 c 1
 520 375 474 373 432 373 c 1
 439 393 445 418 449 439 c 1
 426 443 406 445 385 445 c 0
 359 445 332 441 303 434 c 1
 292 388 288 347 288 311 c 0
 288 194 341 124 426 73 c 1
 490 115 542 163 592 225 c 1
 595 188 596 149 597 103 c 1
 530 51 450 -3 320 -17 c 1
 308 -52 l 2
 309 -52 311 -50 312 -50 c 0
 325 -47 338 -45 351 -45 c 0
 355 -45 359 -46 363 -46 c 0
 380 -48 397 -64 399 -79 c 1
 399 -84 l 2
 399 -105 389 -134 367 -152 c 1
 348 -172 308 -188 273 -189 c 1
 267 -168 l 1
 311 -168 330 -142 330 -121 c 0
 330 -118 330 -115 329 -113 c 0
 325 -102 314 -95 298 -95 c 0
 287 -95 268 -104 252 -110 c 1
 283 -20 l 1
 273 -21 264 -21 254 -21 c 2
 231 -21 l 1
 107 32 38 145 38 254 c 0
 39 392 149 523 397 523 c 0
 458 523 525 516 602 498 c 1
EndSplineSet
EndChar

StartChar: egrave
Encoding: 232 232 216
Width: 671
Flags: MW
HStem: 0 66<367.5 381 381 390 367.5 575> 0 148<84 615 575 615> 227 72<357.5 430> 348 152 435 65<401 410> 660 20G<339 339>
LayerCount: 2
Fore
SplineSet
614 500 m 1x00
 78 500 l 1
 68 429 64 354 64 280 c 0
 64 179 72 81 84 0 c 1
 575 0 l 1
 594 47 605 90 615 148 c 1xac
 495 153 l 1
 479 85 444 66 390 66 c 2
 381 66 l 2
 354 66 330 70 299 76 c 1
 300 108 302 141 305 174 c 1
 324 216 345 227 370 227 c 0
 401 226 437 206 474 206 c 2
 483 206 l 1
 530 294 l 1
 523 293 516 293 509 293 c 0
 478 293 445 299 415 299 c 0
 380 299 342 286 316 262 c 1
 325 318 337 374 350 429 c 1
 372 433 392 435 410 435 c 0xb4
 457 434 482 423 482 387 c 0
 482 375 480 361 474 344 c 1
 515 345 540 346 582 348 c 1
 594 387 607 459 614 500 c 1x00
339 680 m 1
 359 626 391 583 442 550 c 1
 376 550 l 1x74
 316 578 257 608 228 666 c 1
 339 680 l 1
EndSplineSet
EndChar

StartChar: eacute
Encoding: 233 233 217
Width: 671
Flags: MW
HStem: 0 66<381 390 390 417 381 575> 66 161<357.5 390 357.5 417> 227 72<357.5 430> 299 49 348 152 435 65<401 410> 660 20G<331 331>
LayerCount: 2
Fore
SplineSet
78 500 m 1x00
 614 500 l 1
 607 459 594 387 582 348 c 1
 540 346 515 345 474 344 c 1
 480 361 482 375 482 387 c 0
 482 423 457 434 410 435 c 0
 392 435 372 433 350 429 c 1
 337 374 325 318 316 262 c 1
 342 286 380 299 415 299 c 0
 445 299 478 293 509 293 c 0
 516 293 523 293 530 294 c 1
 483 206 l 1
 474 206 l 2
 437 206 401 226 370 227 c 0x4a
 345 227 324 216 305 174 c 1
 302 141 300 108 299 76 c 1
 330 70 354 66 381 66 c 2
 390 66 l 2
 444 66 479 85 495 153 c 1
 615 148 l 1
 605 90 594 47 575 0 c 1x96
 84 0 l 1
 72 81 64 179 64 280 c 0
 64 354 68 429 78 500 c 1x00
331 680 m 1
 442 666 l 1
 413 608 354 578 294 550 c 1xaa
 228 550 l 1
 279 583 311 626 331 680 c 1
EndSplineSet
EndChar

StartChar: ecircumflex
Encoding: 234 234 218
Width: 671
Flags: MW
HStem: 0 66<367.5 381 381 390 367.5 575> 0 148<84 615 575 615> 227 72<357.5 430> 348 152 435 65<401 410> 653 20G<311 360 360 360>
LayerCount: 2
Fore
SplineSet
614 500 m 1x00
 78 500 l 1
 68 429 64 354 64 280 c 0
 64 179 72 81 84 0 c 1
 575 0 l 1
 594 47 605 90 615 148 c 1xac
 495 153 l 1
 479 85 444 66 390 66 c 2
 381 66 l 2
 354 66 330 70 299 76 c 1
 300 108 302 141 305 174 c 1
 324 216 345 227 370 227 c 0
 401 226 437 206 474 206 c 2
 483 206 l 1
 530 294 l 1
 523 293 516 293 509 293 c 0
 478 293 445 299 415 299 c 0
 380 299 342 286 316 262 c 1
 325 318 337 374 350 429 c 1
 372 433 392 435 410 435 c 0xb4
 457 434 482 423 482 387 c 0
 482 375 480 361 474 344 c 1
 515 345 540 346 582 348 c 1
 594 387 607 459 614 500 c 1x00
221 558 m 1x74
 311 673 l 1
 360 673 l 1
 450 558 l 1
 418 558 l 1
 335 620 l 1
 253 558 l 1
 221 558 l 1x74
EndSplineSet
EndChar

StartChar: edieresis
Encoding: 235 235 219
Width: 671
Flags: MW
HStem: 0 66<381 390 390 417 381 575> 0 148<84 615> 227 72<357.5 430> 348 152 435 65<401 410> 575 97 658 20G
LayerCount: 2
Fore
SplineSet
78 500 m 1x00
 614 500 l 1
 607 459 594 387 582 348 c 1
 540 346 515 345 474 344 c 1
 480 361 482 375 482 387 c 0
 482 423 457 434 410 435 c 0xac
 392 435 372 433 350 429 c 1
 337 374 325 318 316 262 c 1
 342 286 380 299 415 299 c 0
 445 299 478 293 509 293 c 0
 516 293 523 293 530 294 c 1
 483 206 l 1
 474 206 l 2
 437 206 401 226 370 227 c 0
 345 227 324 216 305 174 c 1
 302 141 300 108 299 76 c 1
 330 70 354 66 381 66 c 2
 390 66 l 2
 444 66 479 85 495 153 c 1
 615 148 l 1xb4
 605 90 594 47 575 0 c 1
 84 0 l 1
 72 81 64 179 64 280 c 0
 64 354 68 429 78 500 c 1x00
210 678 m 1x72
 245 675 278 673 312 672 c 1xb4
 305 640 295 608 278 576 c 1
 265 576 252 575 238 575 c 0
 219 575 199 576 180 577 c 1
 194 610 206 645 210 678 c 1x72
389 678 m 1xb2
 423 675 456 673 491 672 c 1xb4
 483 640 473 608 457 576 c 1
 443 576 429 575 416 575 c 0
 397 575 378 576 359 577 c 1
 372 610 384 645 389 678 c 1xb2
EndSplineSet
EndChar

StartChar: Egrave
Encoding: 200 200 220
Width: 671
Flags: MW
HStem: 0 66<367.5 381 381 390 367.5 575> 0 148<84 615 575 615> 227 72<357.5 430> 348 152 435 65<401 410> 660 20G<339 339>
LayerCount: 2
Fore
SplineSet
614 500 m 1x00
 78 500 l 1
 68 429 64 354 64 280 c 0
 64 179 72 81 84 0 c 1
 575 0 l 1
 594 47 605 90 615 148 c 1xac
 495 153 l 1
 479 85 444 66 390 66 c 2
 381 66 l 2
 354 66 330 70 299 76 c 1
 300 108 302 141 305 174 c 1
 324 216 345 227 370 227 c 0
 401 226 437 206 474 206 c 2
 483 206 l 1
 530 294 l 1
 523 293 516 293 509 293 c 0
 478 293 445 299 415 299 c 0
 380 299 342 286 316 262 c 1
 325 318 337 374 350 429 c 1
 372 433 392 435 410 435 c 0xb4
 457 434 482 423 482 387 c 0
 482 375 480 361 474 344 c 1
 515 345 540 346 582 348 c 1
 594 387 607 459 614 500 c 1x00
339 680 m 1
 359 626 391 583 442 550 c 1
 376 550 l 1x74
 316 578 257 608 228 666 c 1
 339 680 l 1
EndSplineSet
EndChar

StartChar: Eacute
Encoding: 201 201 221
Width: 671
Flags: MW
HStem: 0 66<381 390 390 417 381 575> 66 161<357.5 390 357.5 417> 227 72<357.5 430> 299 49 348 152 435 65<401 410> 660 20G<331 331>
LayerCount: 2
Fore
SplineSet
78 500 m 1x00
 614 500 l 1
 607 459 594 387 582 348 c 1
 540 346 515 345 474 344 c 1
 480 361 482 375 482 387 c 0
 482 423 457 434 410 435 c 0
 392 435 372 433 350 429 c 1
 337 374 325 318 316 262 c 1
 342 286 380 299 415 299 c 0
 445 299 478 293 509 293 c 0
 516 293 523 293 530 294 c 1
 483 206 l 1
 474 206 l 2
 437 206 401 226 370 227 c 0x4a
 345 227 324 216 305 174 c 1
 302 141 300 108 299 76 c 1
 330 70 354 66 381 66 c 2
 390 66 l 2
 444 66 479 85 495 153 c 1
 615 148 l 1
 605 90 594 47 575 0 c 1x96
 84 0 l 1
 72 81 64 179 64 280 c 0
 64 354 68 429 78 500 c 1x00
331 680 m 1
 442 666 l 1
 413 608 354 578 294 550 c 1xaa
 228 550 l 1
 279 583 311 626 331 680 c 1
EndSplineSet
EndChar

StartChar: Ecircumflex
Encoding: 202 202 222
Width: 671
Flags: MW
HStem: 0 66<381 390 390 417.5 381 575> 0 148<84 615> 227 72<357.5 430.5> 348 152 435 65<401 410> 653 20G<311 360 360 360>
LayerCount: 2
Fore
SplineSet
78 500 m 1x00
 614 500 l 1
 606 459 593 388 582 348 c 1
 539 345 515 345 474 344 c 1
 479 359 482 374 482 387 c 0
 482 423 457 434 410 435 c 0
 392 435 372 433 350 429 c 1
 337 373 325 318 316 262 c 1
 343 286 380 299 415 299 c 0
 446 299 478 293 509 293 c 0
 516 293 523 293 530 294 c 1
 483 206 l 1
 474 206 l 2
 437 206 401 226 370 227 c 0
 345 227 324 217 305 174 c 1
 302 141 300 109 299 76 c 1
 330 69 354 66 381 66 c 2
 390 66 l 2x74
 445 66 479 85 495 153 c 1
 615 148 l 1xac
 604 89 594 47 575 0 c 1
 84 0 l 1
 72 81 64 179 64 280 c 0
 64 355 67 428 78 500 c 1x00
221 558 m 1xac
 311 673 l 1
 360 673 l 1
 450 558 l 1
 418 558 l 1
 335 620 l 1
 253 558 l 1
 221 558 l 1xac
EndSplineSet
EndChar

StartChar: Edieresis
Encoding: 203 203 223
Width: 671
Flags: MW
HStem: 0 66<381 390 390 417.5 381 575> 0 148<84 615> 227 72<357.5 430.5> 348 152 435 65<401 410> 575 97 658 20G
LayerCount: 2
Fore
SplineSet
78 500 m 1x00
 614 500 l 1
 606 459 593 388 582 348 c 1xac
 539 345 515 345 474 344 c 1
 479 359 482 374 482 387 c 0
 482 423 457 434 410 435 c 0
 392 435 372 433 350 429 c 1
 337 373 325 318 316 262 c 1
 343 286 380 299 415 299 c 0
 446 299 478 293 509 293 c 0
 516 293 523 293 530 294 c 1
 483 206 l 1
 474 206 l 2
 437 206 401 226 370 227 c 0
 345 227 324 217 305 174 c 1
 302 141 300 109 299 76 c 1
 330 69 354 66 381 66 c 2
 390 66 l 2x74
 445 66 479 85 495 153 c 1
 615 148 l 1xac
 604 89 594 47 575 0 c 1
 84 0 l 1
 72 81 64 179 64 280 c 0
 64 355 67 428 78 500 c 1x00
210 678 m 1
 245 675 279 673 312 672 c 1
 305 640 295 608 278 576 c 1
 265 576 253 575 238 575 c 0xaa
 219 575 199 576 180 577 c 1
 195 610 206 645 210 678 c 1
389 678 m 1
 424 675 458 673 491 672 c 1
 483 640 473 608 457 576 c 1
 442 576 429 575 416 575 c 0xb2
 397 575 378 576 359 577 c 1
 372 610 384 645 389 678 c 1
EndSplineSet
EndChar

StartChar: igrave
Encoding: 236 236 224
Width: 396
Flags: MW
HStem: 0 21G<68 308 308 308> 660 20G<202 202>
LayerCount: 2
Fore
SplineSet
341 500 m 1
 71 500 l 1
 80 406 87 312 87 222 c 0
 87 143 82 68 68 0 c 1
 308 0 l 1
 333 158 341 316 341 473 c 2
 341 500 l 1
202 680 m 1
 222 626 254 583 305 550 c 1
 239 550 l 1
 179 578 120 608 91 666 c 1
 202 680 l 1
EndSplineSet
EndChar

StartChar: iacute
Encoding: 237 237 225
Width: 396
Flags: MW
HStem: 0 21G<68 308 68 68> 500 50<91 157 91 341> 660 20G<194 194>
LayerCount: 2
Fore
SplineSet
71 500 m 1
 341 500 l 1
 341 473 l 2
 341 316 333 158 308 0 c 1
 68 0 l 1
 82 68 87 143 87 222 c 0
 87 312 80 406 71 500 c 1
194 680 m 1
 305 666 l 1
 276 608 217 578 157 550 c 1
 91 550 l 1
 142 583 174 626 194 680 c 1
EndSplineSet
EndChar

StartChar: icircumflex
Encoding: 238 238 226
Width: 396
Flags: MW
HStem: 0 21G<68 308 308 308> 653 20G<173 222 222 222>
LayerCount: 2
Fore
SplineSet
341 500 m 1
 71 500 l 1
 80 406 87 312 87 222 c 0
 87 143 82 68 68 0 c 1
 308 0 l 1
 333 158 341 316 341 473 c 2
 341 500 l 1
83 558 m 1
 173 673 l 1
 222 673 l 1
 312 558 l 1
 280 558 l 1
 197 620 l 1
 115 558 l 1
 83 558 l 1
EndSplineSet
EndChar

StartChar: idieresis
Encoding: 239 239 227
Width: 396
Flags: MW
HStem: 0 21G<68 308 68 68> 575 97 658 20G
LayerCount: 2
Fore
SplineSet
71 500 m 1x00
 341 500 l 1
 341 473 l 2
 341 316 333 158 308 0 c 1
 68 0 l 1
 82 68 87 143 87 222 c 0
 87 312 80 406 71 500 c 1x00
72 678 m 1xa0
 107 675 140 673 174 672 c 1xc0
 167 640 157 608 140 576 c 1
 127 576 114 575 100 575 c 0
 81 575 61 576 42 577 c 1
 56 610 68 645 72 678 c 1xa0
251 678 m 1xa0
 285 675 318 673 353 672 c 1xc0
 345 640 335 608 319 576 c 1
 305 576 291 575 278 575 c 0
 259 575 240 576 221 577 c 1
 234 610 246 645 251 678 c 1xa0
EndSplineSet
EndChar

StartChar: Igrave
Encoding: 204 204 228
Width: 396
Flags: MW
HStem: 0 21G<68 308 308 308> 660 20G<202 202>
LayerCount: 2
Fore
SplineSet
341 500 m 1
 71 500 l 1
 80 406 87 312 87 222 c 0
 87 143 82 68 68 0 c 1
 308 0 l 1
 333 158 341 316 341 473 c 2
 341 500 l 1
202 680 m 1
 222 626 254 583 305 550 c 1
 239 550 l 1
 179 578 120 608 91 666 c 1
 202 680 l 1
EndSplineSet
EndChar

StartChar: Iacute
Encoding: 205 205 229
Width: 396
Flags: MW
HStem: 0 21G<68 308 68 68> 500 50<91 157 91 341> 660 20G<194 194>
LayerCount: 2
Fore
SplineSet
71 500 m 1
 341 500 l 1
 341 473 l 2
 341 316 333 158 308 0 c 1
 68 0 l 1
 82 68 87 143 87 222 c 0
 87 312 80 406 71 500 c 1
194 680 m 1
 305 666 l 1
 276 608 217 578 157 550 c 1
 91 550 l 1
 142 583 174 626 194 680 c 1
EndSplineSet
EndChar

StartChar: Icircumflex
Encoding: 206 206 230
Width: 396
Flags: MW
HStem: 0 21G<68 308 308 308> 653 20G<173 222 222 222>
LayerCount: 2
Fore
SplineSet
341 500 m 1
 71 500 l 1
 80 406 87 312 87 222 c 0
 87 143 82 68 68 0 c 1
 308 0 l 1
 333 158 341 316 341 473 c 2
 341 500 l 1
83 558 m 1
 173 673 l 1
 222 673 l 1
 312 558 l 1
 280 558 l 1
 197 620 l 1
 115 558 l 1
 83 558 l 1
EndSplineSet
EndChar

StartChar: Idieresis
Encoding: 207 207 231
Width: 396
Flags: MW
HStem: 0 21G<68 308 68 68> 575 97 658 20G
LayerCount: 2
Fore
SplineSet
71 500 m 1x00
 341 500 l 1
 341 473 l 2
 341 316 333 158 308 0 c 1
 68 0 l 1
 82 68 87 143 87 222 c 0
 87 312 80 406 71 500 c 1x00
72 678 m 1xa0
 107 675 140 673 174 672 c 1xc0
 167 640 157 608 140 576 c 1
 127 576 114 575 100 575 c 0
 81 575 61 576 42 577 c 1
 56 610 68 645 72 678 c 1xa0
251 678 m 1xa0
 285 675 318 673 353 672 c 1xc0
 345 640 335 608 319 576 c 1
 305 576 291 575 278 575 c 0
 259 575 240 576 221 577 c 1
 234 610 246 645 251 678 c 1xa0
EndSplineSet
EndChar

StartChar: Eth
Encoding: 208 208 232
Width: 730
Flags: MW
HStem: -22 21G<293 372.5> 233 51 503 20G<302.5 404.5>
VStem: 473 231<262 323.5>
LayerCount: 2
Fore
SplineSet
101 506 m 1
 185 518 266 523 339 523 c 0
 470 523 580 505 659 474 c 1
 688 418 704 356 704 298 c 0
 704 226 680 156 627 99 c 0
 536 1 425 -22 320 -22 c 0
 266 -22 212 -16 166 -10 c 2
 136 -6 l 1
 120 74 108 154 101 233 c 1
 61 236 26 238 0 242 c 1
 19 256 38 275 58 284 c 1
 97 284 l 1
 95 313 95 341 95 369 c 0
 95 415 97 461 101 506 c 1
358 288 m 1
 387 289 427 292 442 296 c 1
 426 268 414 250 391 228 c 1
 355 228 l 1
 354 200 353 171 353 142 c 0
 353 109 354 75 356 39 c 1
 432 80 473 187 473 281 c 0
 473 366 440 441 371 448 c 1
 366 395 362 343 358 288 c 1
EndSplineSet
EndChar

StartChar: eth
Encoding: 240 240 233
Width: 730
Flags: MW
HStem: -22 21G<293 372.5> 233 51 503 20G<302.5 404.5>
VStem: 473 231<262 323.5>
LayerCount: 2
Fore
SplineSet
101 506 m 1
 185 518 266 523 339 523 c 0
 470 523 580 505 659 474 c 1
 688 418 704 356 704 298 c 0
 704 226 680 156 627 99 c 0
 536 1 425 -22 320 -22 c 0
 266 -22 212 -16 166 -10 c 2
 136 -6 l 1
 120 74 108 154 101 233 c 1
 61 236 26 238 0 242 c 1
 19 256 38 275 58 284 c 1
 97 284 l 1
 95 313 95 341 95 369 c 0
 95 415 97 461 101 506 c 1
358 288 m 1
 387 289 427 292 442 296 c 1
 426 268 414 250 391 228 c 1
 355 228 l 1
 354 200 353 171 353 142 c 0
 353 109 354 75 356 39 c 1
 432 80 473 187 473 281 c 0
 473 366 440 441 371 448 c 1
 366 395 362 343 358 288 c 1
EndSplineSet
EndChar

StartChar: ntilde
Encoding: 241 241 234
Width: 715
Flags: MW
HStem: 0 21G<76 193 76 76 546 642 546 546> 616 44<281 293 281 298> 665 20G
VStem: 96 102<112.5 272> 560 92<241.5 275.5>
LayerCount: 2
Fore
SplineSet
527 500 m 1
 646 500 l 1
 650 430 652 360 652 290 c 0
 652 193 648 97 642 0 c 1
 546 0 l 1
 404 76 275 189 190 283 c 1
 195 241 198 189 198 134 c 0
 198 91 196 45 193 0 c 1
 76 0 l 1
 89 80 96 166 96 245 c 0
 96 299 93 350 86 393 c 1
 64 426 50 445 23 500 c 1
 307 500 l 1
 364 401 475 288 560 232 c 1
 560 319 554 400 527 500 c 1
501 685 m 1
 485 649 478 630 465 598 c 1
 449 585 428 575 392 575 c 0
 340 576 316 616 280 616 c 0
 252 616 230 601 214 583 c 1
 227 623 l 1
 241 640 269 660 293 660 c 0
 344 659 356 638 402 638 c 0xf8
 442 638 474 657 501 685 c 1
EndSplineSet
EndChar

StartChar: ograve
Encoding: 242 242 235
Width: 658
Flags: MW
HStem: -22 21G<239.5 261> 503 20G<390 416.5> 660 20G<333 333>
VStem: 34 206<241.5 244> 420 207<165 335>
LayerCount: 2
Fore
SplineSet
123 3 m 1
 170 -13 218 -22 261 -22 c 0
 436 -21 578 88 617 228 c 0
 624 251 627 277 627 303 c 0
 627 367 605 435 555 498 c 1
 499 515 443 523 390 523 c 0
 212 522 80 433 44 305 c 0
 38 282 34 256 34 232 c 0
 34 159 62 81 123 3 c 1
275 436 m 1
 368 388 420 287 420 191 c 0
 420 139 405 88 373 47 c 1
 289 88 240 190 240 293 c 0
 240 343 250 393 275 436 c 1
333 680 m 1
 353 626 385 583 436 550 c 1
 370 550 l 1
 310 578 251 608 222 666 c 1
 333 680 l 1
EndSplineSet
EndChar

StartChar: oacute
Encoding: 243 243 236
Width: 658
Flags: MW
HStem: -22 21G<239.5 261> 523 27 660 20G<325 325>
VStem: 34 206<241.5 244> 420 207<165 335>
LayerCount: 2
Fore
SplineSet
123 3 m 1
 62 81 34 159 34 232 c 0
 34 256 38 282 44 305 c 0
 80 433 212 522 390 523 c 0
 443 523 499 515 555 498 c 1
 605 435 627 367 627 303 c 0
 627 277 624 251 617 228 c 0
 578 88 436 -21 261 -22 c 0
 218 -22 170 -13 123 3 c 1
275 436 m 1
 250 393 240 343 240 293 c 0
 240 190 289 88 373 47 c 1
 405 88 420 139 420 191 c 0
 420 287 368 388 275 436 c 1
325 680 m 1
 436 666 l 1
 407 608 348 578 288 550 c 1
 222 550 l 1
 273 583 305 626 325 680 c 1
EndSplineSet
EndChar

StartChar: ocircumflex
Encoding: 244 244 237
Width: 658
Flags: MW
HStem: -22 21G<239.5 261> 503 20G<390 416.5> 653 20G<304 353 353 353>
VStem: 34 206<241.5 244> 420 207<165 335>
LayerCount: 2
Fore
SplineSet
123 3 m 1
 170 -13 218 -22 261 -22 c 0
 436 -21 578 88 617 228 c 0
 624 251 627 277 627 303 c 0
 627 367 605 435 555 498 c 1
 499 515 443 523 390 523 c 0
 212 522 80 433 44 305 c 0
 38 282 34 256 34 232 c 0
 34 159 62 81 123 3 c 1
275 436 m 1
 368 388 420 287 420 191 c 0
 420 139 405 88 373 47 c 1
 289 88 240 190 240 293 c 0
 240 343 250 393 275 436 c 1
214 558 m 1
 304 673 l 1
 353 673 l 1
 443 558 l 1
 411 558 l 1
 328 620 l 1
 246 558 l 1
 214 558 l 1
EndSplineSet
EndChar

StartChar: otilde
Encoding: 245 245 238
Width: 658
Flags: MW
HStem: -22 21G<239.5 261> 503 20G<390 416.5> 575 63<363 381> 616 44<252 264 252 269> 665 20G
VStem: 34 206<241.5 244> 420 207<165 335>
LayerCount: 2
Fore
SplineSet
123 3 m 1x00
 62 81 34 159 34 232 c 0
 34 256 38 282 44 305 c 0
 80 433 212 522 390 523 c 0
 443 523 499 515 555 498 c 1
 605 435 627 367 627 303 c 0
 627 277 624 251 617 228 c 0
 578 88 436 -21 261 -22 c 0
 218 -22 170 -13 123 3 c 1x00
275 436 m 1
 250 393 240 343 240 293 c 0
 240 190 289 88 373 47 c 1
 405 88 420 139 420 191 c 0
 420 287 368 388 275 436 c 1
472 685 m 1
 456 649 449 630 436 598 c 1
 420 585 399 575 363 575 c 0
 311 576 287 616 251 616 c 0xde
 223 616 201 601 185 583 c 1
 198 623 l 1
 212 640 240 660 264 660 c 0
 315 659 327 638 373 638 c 0xee
 413 638 445 657 472 685 c 1
EndSplineSet
EndChar

StartChar: odieresis
Encoding: 246 246 239
Width: 658
Flags: MW
HStem: -22 21G<239.5 261> 503 20G<390 416.5> 575 97 658 20G
VStem: 34 206<241.5 244> 420 207<165 335>
LayerCount: 2
Fore
SplineSet
123 3 m 1x00
 62 81 34 159 34 232 c 0
 34 256 38 282 44 305 c 0
 80 433 212 522 390 523 c 0
 443 523 499 515 555 498 c 1
 605 435 627 367 627 303 c 0
 627 277 624 251 617 228 c 0
 578 88 436 -21 261 -22 c 0
 218 -22 170 -13 123 3 c 1x00
275 436 m 1
 250 393 240 343 240 293 c 0
 240 190 289 88 373 47 c 1
 405 88 420 139 420 191 c 0
 420 287 368 388 275 436 c 1
203 678 m 1xdc
 238 675 271 673 305 672 c 1xec
 298 640 288 608 271 576 c 1
 258 576 245 575 231 575 c 0
 212 575 192 576 173 577 c 1
 187 610 199 645 203 678 c 1xdc
382 678 m 1xdc
 416 675 449 673 484 672 c 1xec
 476 640 466 608 450 576 c 1
 436 576 422 575 409 575 c 0
 390 575 371 576 352 577 c 1
 365 610 377 645 382 678 c 1xdc
EndSplineSet
EndChar

StartChar: Ntilde
Encoding: 209 209 240
Width: 715
Flags: MW
HStem: 0 21G<76 193 76 76 546 642 546 546> 616 44<281 293 281 298> 665 20G
VStem: 96 102<112.5 272> 560 92<241.5 275.5>
LayerCount: 2
Fore
SplineSet
527 500 m 1
 646 500 l 1
 650 430 652 360 652 290 c 0
 652 193 648 97 642 0 c 1
 546 0 l 1
 404 76 275 189 190 283 c 1
 195 241 198 189 198 134 c 0
 198 91 196 45 193 0 c 1
 76 0 l 1
 89 80 96 166 96 245 c 0
 96 299 93 350 86 393 c 1
 64 426 50 445 23 500 c 1
 307 500 l 1
 364 401 475 288 560 232 c 1
 560 319 554 400 527 500 c 1
501 685 m 1
 485 649 478 630 465 598 c 1
 449 585 428 575 392 575 c 0
 340 576 316 616 280 616 c 0
 252 616 230 601 214 583 c 1
 227 623 l 1
 241 640 269 660 293 660 c 0
 344 659 356 638 402 638 c 0xf8
 442 638 474 657 501 685 c 1
EndSplineSet
EndChar

StartChar: Ograve
Encoding: 210 210 241
Width: 658
Flags: MW
HStem: -22 21G<239.5 261> 503 20G<390 416.5> 660 20G<333 333>
VStem: 34 206<241.5 244> 420 207<165 335>
LayerCount: 2
Fore
SplineSet
123 3 m 1
 170 -13 218 -22 261 -22 c 0
 436 -21 578 88 617 228 c 0
 624 251 627 277 627 303 c 0
 627 367 605 435 555 498 c 1
 499 515 443 523 390 523 c 0
 212 522 80 433 44 305 c 0
 38 282 34 256 34 232 c 0
 34 159 62 81 123 3 c 1
275 436 m 1
 368 388 420 287 420 191 c 0
 420 139 405 88 373 47 c 1
 289 88 240 190 240 293 c 0
 240 343 250 393 275 436 c 1
333 680 m 1
 353 626 385 583 436 550 c 1
 370 550 l 1
 310 578 251 608 222 666 c 1
 333 680 l 1
EndSplineSet
EndChar

StartChar: Oacute
Encoding: 211 211 242
Width: 658
Flags: MW
HStem: -22 21G<239.5 261> 523 27 660 20G<325 325>
VStem: 34 206<241.5 244> 420 207<165 335>
LayerCount: 2
Fore
SplineSet
123 3 m 1
 62 81 34 159 34 232 c 0
 34 256 38 282 44 305 c 0
 80 433 212 522 390 523 c 0
 443 523 499 515 555 498 c 1
 605 435 627 367 627 303 c 0
 627 277 624 251 617 228 c 0
 578 88 436 -21 261 -22 c 0
 218 -22 170 -13 123 3 c 1
275 436 m 1
 250 393 240 343 240 293 c 0
 240 190 289 88 373 47 c 1
 405 88 420 139 420 191 c 0
 420 287 368 388 275 436 c 1
325 680 m 1
 436 666 l 1
 407 608 348 578 288 550 c 1
 222 550 l 1
 273 583 305 626 325 680 c 1
EndSplineSet
EndChar

StartChar: Ocircumflex
Encoding: 212 212 243
Width: 658
Flags: MW
HStem: -22 21G<239.5 261> 503 20G<390 416.5> 653 20G<304 353 353 353>
VStem: 34 206<241.5 244> 420 207<165 335>
LayerCount: 2
Fore
SplineSet
123 3 m 1
 170 -13 218 -22 261 -22 c 0
 436 -21 578 88 617 228 c 0
 624 251 627 277 627 303 c 0
 627 367 605 435 555 498 c 1
 499 515 443 523 390 523 c 0
 212 522 80 433 44 305 c 0
 38 282 34 256 34 232 c 0
 34 159 62 81 123 3 c 1
275 436 m 1
 368 388 420 287 420 191 c 0
 420 139 405 88 373 47 c 1
 289 88 240 190 240 293 c 0
 240 343 250 393 275 436 c 1
214 558 m 1
 304 673 l 1
 353 673 l 1
 443 558 l 1
 411 558 l 1
 328 620 l 1
 246 558 l 1
 214 558 l 1
EndSplineSet
EndChar

StartChar: Otilde
Encoding: 213 213 244
Width: 658
Flags: MW
HStem: -22 21G<239.5 261> 503 20G<390 416.5> 575 63<363 381> 616 44<252 264 252 269> 665 20G
VStem: 34 206<241.5 244> 420 207<165 335>
LayerCount: 2
Fore
SplineSet
123 3 m 1x00
 62 81 34 159 34 232 c 0
 34 256 38 282 44 305 c 0
 80 433 212 522 390 523 c 0
 443 523 499 515 555 498 c 1
 605 435 627 367 627 303 c 0
 627 277 624 251 617 228 c 0
 578 88 436 -21 261 -22 c 0
 218 -22 170 -13 123 3 c 1x00
275 436 m 1
 250 393 240 343 240 293 c 0
 240 190 289 88 373 47 c 1
 405 88 420 139 420 191 c 0
 420 287 368 388 275 436 c 1
472 685 m 1
 456 649 449 630 436 598 c 1
 420 585 399 575 363 575 c 0
 311 576 287 616 251 616 c 0xde
 223 616 201 601 185 583 c 1
 198 623 l 1
 212 640 240 660 264 660 c 0
 315 659 327 638 373 638 c 0xee
 413 638 445 657 472 685 c 1
EndSplineSet
EndChar

StartChar: Odieresis
Encoding: 214 214 245
Width: 658
Flags: MW
HStem: -22 21G<239.5 261> 503 20G<390 416.5> 575 97 658 20G
VStem: 34 206<241.5 244> 420 207<165 335>
LayerCount: 2
Fore
SplineSet
123 3 m 1x00
 62 81 34 159 34 232 c 0
 34 256 38 282 44 305 c 0
 80 433 212 522 390 523 c 0
 443 523 499 515 555 498 c 1
 605 435 627 367 627 303 c 0
 627 277 624 251 617 228 c 0
 578 88 436 -21 261 -22 c 0
 218 -22 170 -13 123 3 c 1x00
275 436 m 1
 250 393 240 343 240 293 c 0
 240 190 289 88 373 47 c 1
 405 88 420 139 420 191 c 0
 420 287 368 388 275 436 c 1
203 678 m 1xdc
 238 675 271 673 305 672 c 1xec
 298 640 288 608 271 576 c 1
 258 576 245 575 231 575 c 0
 212 575 192 576 173 577 c 1
 187 610 199 645 203 678 c 1xdc
382 678 m 1xdc
 416 675 449 673 484 672 c 1xec
 476 640 466 608 450 576 c 1
 436 576 422 575 409 575 c 0
 390 575 371 576 352 577 c 1
 365 610 377 645 382 678 c 1xdc
EndSplineSet
EndChar

StartChar: Oslash
Encoding: 216 216 246
Width: 623
Flags: MW
HStem: -41 21G<-15 54 -15 -15> 503 20G<374 394.5> 525 20G<644 644>
VStem: 18 206<203.5 317.5> 402 208<165.5 329>
LayerCount: 2
Fore
SplineSet
107 3 m 1
 101 10 l 1
 54 -41 l 1
 -15 -41 l 1
 74 49 l 1
 36 113 18 175 18 232 c 0
 18 257 22 281 28 303 c 0
 65 432 196 522 374 523 c 0
 415 523 460 518 506 507 c 1
 525 529 l 1
 565 537 605 542 644 545 c 1
 561 466 l 1
 595 412 610 356 610 302 c 0
 610 277 607 251 600 227 c 0
 561 89 419 -22 245 -22 c 0xf8
 202 -22 154 -13 107 3 c 1
383 296 m 1
 338 252 293 208 250 164 c 1
 273 113 310 70 356 48 c 1
 388 89 402 139 402 192 c 0
 402 226 396 262 383 296 c 1
233 213 m 1
 275 256 317 300 357 344 c 1
 333 382 301 414 259 435 c 1
 234 392 224 342 224 293 c 0
 224 266 227 238 233 213 c 1
EndSplineSet
EndChar

StartChar: oslash
Encoding: 248 248 247
Width: 623
Flags: MW
HStem: -41 21G<-15 54 -15 -15> 503 20G<374 394.5> 525 20G<644 644>
VStem: 18 206<203.5 317.5> 402 208<165.5 329>
LayerCount: 2
Fore
SplineSet
107 3 m 1
 101 10 l 1
 54 -41 l 1
 -15 -41 l 1
 74 49 l 1
 36 113 18 175 18 232 c 0
 18 257 22 281 28 303 c 0
 65 432 196 522 374 523 c 0
 415 523 460 518 506 507 c 1
 525 529 l 1
 565 537 605 542 644 545 c 1
 561 466 l 1
 595 412 610 356 610 302 c 0
 610 277 607 251 600 227 c 0
 561 89 419 -22 245 -22 c 0xf8
 202 -22 154 -13 107 3 c 1
383 296 m 1
 338 252 293 208 250 164 c 1
 273 113 310 70 356 48 c 1
 388 89 402 139 402 192 c 0
 402 226 396 262 383 296 c 1
233 213 m 1
 275 256 317 300 357 344 c 1
 333 382 301 414 259 435 c 1
 234 392 224 342 224 293 c 0
 224 266 227 238 233 213 c 1
EndSplineSet
EndChar

StartChar: ugrave
Encoding: 249 249 248
Width: 701
Flags: MW
HStem: -22 67<405.5 443.5> 660 20G<354 354>
VStem: 72 242 558 104<152.5 375.5>
LayerCount: 2
Fore
SplineSet
658 500 m 1
 530 500 l 1
 549 382 558 278 558 168 c 0
 558 137 558 106 556 73 c 1
 535 59 504 45 438 45 c 0
 373 45 333 66 314 83 c 1
 315 215 329 355 356 500 c 1
 87 500 l 1
 77 404 72 327 72 251 c 0
 72 185 76 120 85 45 c 1
 165 0 270 -22 397 -22 c 0
 490 -22 581 3 646 45 c 1
 657 142 662 247 662 350 c 0
 662 401 661 451 658 500 c 1
354 680 m 1
 374 626 406 583 457 550 c 1
 391 550 l 1
 331 578 272 608 243 666 c 1
 354 680 l 1
EndSplineSet
EndChar

StartChar: uacute
Encoding: 250 250 249
Width: 701
Flags: MW
HStem: -22 67<405.5 443.5> 500 50<243 309 243 356 243 356> 660 20G<346 346>
VStem: 72 242 558 104<152.5 375.5>
LayerCount: 2
Fore
SplineSet
530 500 m 1
 658 500 l 1
 661 451 662 401 662 350 c 0
 662 247 657 142 646 45 c 1
 581 3 490 -22 397 -22 c 0
 270 -22 165 0 85 45 c 1
 76 120 72 185 72 251 c 0
 72 327 77 404 87 500 c 1
 356 500 l 1
 329 355 315 215 314 83 c 1
 333 66 373 45 438 45 c 0
 504 45 535 59 556 73 c 1
 558 106 558 137 558 168 c 0
 558 278 549 382 530 500 c 1
346 680 m 1
 457 666 l 1
 428 608 369 578 309 550 c 1
 243 550 l 1
 294 583 326 626 346 680 c 1
EndSplineSet
EndChar

StartChar: ucircumflex
Encoding: 251 251 250
Width: 701
Flags: MW
HStem: -22 67<405.5 443.5> 653 20G<326 375 375 375>
VStem: 72 242 558 104<152.5 375.5>
LayerCount: 2
Fore
SplineSet
658 500 m 1
 530 500 l 1
 549 382 558 278 558 168 c 0
 558 137 558 106 556 73 c 1
 535 59 504 45 438 45 c 0
 373 45 333 66 314 83 c 1
 315 215 329 355 356 500 c 1
 87 500 l 1
 77 404 72 327 72 251 c 0
 72 185 76 120 85 45 c 1
 165 0 270 -22 397 -22 c 0
 490 -22 581 3 646 45 c 1
 657 142 662 247 662 350 c 0
 662 401 661 451 658 500 c 1
236 558 m 1
 326 673 l 1
 375 673 l 1
 465 558 l 1
 433 558 l 1
 350 620 l 1
 268 558 l 1
 236 558 l 1
EndSplineSet
EndChar

StartChar: udieresis
Encoding: 252 252 251
Width: 701
Flags: MW
HStem: -22 67<405.5 443.5> 575 97 658 20G
VStem: 72 242 558 104<152.5 375.5>
LayerCount: 2
Fore
SplineSet
530 500 m 1x00
 658 500 l 1
 661 451 662 401 662 350 c 0
 662 247 657 142 646 45 c 1
 581 3 490 -22 397 -22 c 0
 270 -22 165 0 85 45 c 1
 76 120 72 185 72 251 c 0
 72 327 77 404 87 500 c 1
 356 500 l 1
 329 355 315 215 314 83 c 1
 333 66 373 45 438 45 c 0
 504 45 535 59 556 73 c 1
 558 106 558 137 558 168 c 0
 558 278 549 382 530 500 c 1x00
225 678 m 1xb8
 260 675 293 673 327 672 c 1xd8
 320 640 310 608 293 576 c 1
 280 576 267 575 253 575 c 0
 234 575 214 576 195 577 c 1
 209 610 221 645 225 678 c 1xb8
404 678 m 1xb8
 438 675 471 673 506 672 c 1xd8
 498 640 488 608 472 576 c 1
 458 576 444 575 431 575 c 0
 412 575 393 576 374 577 c 1
 387 610 399 645 404 678 c 1xb8
EndSplineSet
EndChar

StartChar: yacute
Encoding: 253 253 252
Width: 732
Flags: MW
HStem: -397 21G 0 21G<161 368 161 161> 500 50<259 325 259 371 259 371> 660 20G<362 362>
LayerCount: 2
Fore
SplineSet
616 556 m 1
 664 571 719 560 760 587 c 1
 741 543 726 514 704 481 c 1
 683 476 663 473 643 473 c 0
 630 473 617 474 603 476 c 1
 537 397 505 257 482 146 c 0
 453 8 402 -224 330 -368 c 1
 294 -379 249 -389 206 -397 c 1
 287 -258 339 -105 368 0 c 1
 161 0 l 1
 111 162 81 331 79 500 c 1
 371 500 l 1
 357 438 350 377 350 316 c 0
 350 232 363 147 384 64 c 1
 444 292 481 509 616 556 c 1
362 680 m 1
 473 666 l 1
 444 608 385 578 325 550 c 1
 259 550 l 1
 310 583 342 626 362 680 c 1
EndSplineSet
EndChar

StartChar: Ugrave
Encoding: 217 217 253
Width: 701
Flags: MW
HStem: -22 67<405.5 443.5> 660 20G<354 354>
VStem: 72 242 558 104<152.5 375.5>
LayerCount: 2
Fore
SplineSet
658 500 m 1
 530 500 l 1
 549 382 558 278 558 168 c 0
 558 137 558 106 556 73 c 1
 535 59 504 45 438 45 c 0
 373 45 333 66 314 83 c 1
 315 215 329 355 356 500 c 1
 87 500 l 1
 77 404 72 327 72 251 c 0
 72 185 76 120 85 45 c 1
 165 0 270 -22 397 -22 c 0
 490 -22 581 3 646 45 c 1
 657 142 662 247 662 350 c 0
 662 401 661 451 658 500 c 1
354 680 m 1
 374 626 406 583 457 550 c 1
 391 550 l 1
 331 578 272 608 243 666 c 1
 354 680 l 1
EndSplineSet
EndChar

StartChar: Uacute
Encoding: 218 218 254
Width: 701
Flags: MW
HStem: -22 67<405.5 443.5> 500 50<243 309 243 356 243 356> 660 20G<346 346>
VStem: 72 242 558 104<152.5 375.5>
LayerCount: 2
Fore
SplineSet
530 500 m 1
 658 500 l 1
 661 451 662 401 662 350 c 0
 662 247 657 142 646 45 c 1
 581 3 490 -22 397 -22 c 0
 270 -22 165 0 85 45 c 1
 76 120 72 185 72 251 c 0
 72 327 77 404 87 500 c 1
 356 500 l 1
 329 355 315 215 314 83 c 1
 333 66 373 45 438 45 c 0
 504 45 535 59 556 73 c 1
 558 106 558 137 558 168 c 0
 558 278 549 382 530 500 c 1
346 680 m 1
 457 666 l 1
 428 608 369 578 309 550 c 1
 243 550 l 1
 294 583 326 626 346 680 c 1
EndSplineSet
EndChar

StartChar: Ucircumflex
Encoding: 219 219 255
Width: 701
Flags: MW
HStem: -22 67<405.5 443.5> 653 20G<326 375 375 375>
VStem: 72 242 558 104<152.5 375.5>
LayerCount: 2
Fore
SplineSet
658 500 m 1
 530 500 l 1
 549 382 558 278 558 168 c 0
 558 137 558 106 556 73 c 1
 535 59 504 45 438 45 c 0
 373 45 333 66 314 83 c 1
 315 215 329 355 356 500 c 1
 87 500 l 1
 77 404 72 327 72 251 c 0
 72 185 76 120 85 45 c 1
 165 0 270 -22 397 -22 c 0
 490 -22 581 3 646 45 c 1
 657 142 662 247 662 350 c 0
 662 401 661 451 658 500 c 1
236 558 m 1
 326 673 l 1
 375 673 l 1
 465 558 l 1
 433 558 l 1
 350 620 l 1
 268 558 l 1
 236 558 l 1
EndSplineSet
EndChar

StartChar: Udieresis
Encoding: 220 220 256
Width: 701
Flags: MW
HStem: -22 67<405.5 443.5> 575 97 658 20G
VStem: 72 242 558 104<152.5 375.5>
LayerCount: 2
Fore
SplineSet
530 500 m 1x00
 658 500 l 1
 661 451 662 401 662 350 c 0
 662 247 657 142 646 45 c 1
 581 3 490 -22 397 -22 c 0
 270 -22 165 0 85 45 c 1
 76 120 72 185 72 251 c 0
 72 327 77 404 87 500 c 1
 356 500 l 1
 329 355 315 215 314 83 c 1
 333 66 373 45 438 45 c 0
 504 45 535 59 556 73 c 1
 558 106 558 137 558 168 c 0
 558 278 549 382 530 500 c 1x00
225 678 m 1xb8
 260 675 293 673 327 672 c 1xd8
 320 640 310 608 293 576 c 1
 280 576 267 575 253 575 c 0
 234 575 214 576 195 577 c 1
 209 610 221 645 225 678 c 1xb8
404 678 m 1xb8
 438 675 471 673 506 672 c 1xd8
 498 640 488 608 472 576 c 1
 458 576 444 575 431 575 c 0
 412 575 393 576 374 577 c 1
 387 610 399 645 404 678 c 1xb8
EndSplineSet
EndChar

StartChar: Yacute
Encoding: 221 221 257
Width: 732
Flags: MW
HStem: -397 21G 0 21G<161 368 161 161> 500 50<259 325 259 371 259 371> 660 20G<362 362>
LayerCount: 2
Fore
SplineSet
616 556 m 1
 664 571 719 560 760 587 c 1
 741 543 726 514 704 481 c 1
 683 476 663 473 643 473 c 0
 630 473 617 474 603 476 c 1
 537 397 505 257 482 146 c 0
 453 8 402 -224 330 -368 c 1
 294 -379 249 -389 206 -397 c 1
 287 -258 339 -105 368 0 c 1
 161 0 l 1
 111 162 81 331 79 500 c 1
 371 500 l 1
 357 438 350 377 350 316 c 0
 350 232 363 147 384 64 c 1
 444 292 481 509 616 556 c 1
362 680 m 1
 473 666 l 1
 444 608 385 578 325 550 c 1
 259 550 l 1
 310 583 342 626 362 680 c 1
EndSplineSet
EndChar

StartChar: Thorn
Encoding: 222 222 258
Width: 676
Flags: MW
HStem: 0 21G<82 335 82 82> 596 20G
VStem: 87 248<0 231> 87 249
LayerCount: 2
Fore
SplineSet
344 152 m 1
 342 101 339 50 335 0 c 1
 82 0 l 1
 86 51 87 104 87 156 c 0
 87 306 73 463 45 616 c 1
 142 599 238 583 334 567 c 1
 338 500 l 1
 603 500 l 1
 624 444 636 387 636 322 c 0
 636 292 633 260 628 226 c 1
 542 184 451 162 344 152 c 1
342 432 m 1
 344 379 345 326 345 274 c 2
 345 222 l 1
 378 225 406 230 436 242 c 1
 426 305 377 388 342 432 c 1
EndSplineSet
EndChar

StartChar: thorn
Encoding: 254 254 259
Width: 676
Flags: MW
HStem: 0 21G<82 335 82 82> 596 20G
VStem: 87 248<0 231> 87 249
LayerCount: 2
Fore
SplineSet
344 152 m 1
 342 101 339 50 335 0 c 1
 82 0 l 1
 86 51 87 104 87 156 c 0
 87 306 73 463 45 616 c 1
 142 599 238 583 334 567 c 1
 338 500 l 1
 603 500 l 1
 624 444 636 387 636 322 c 0
 636 292 633 260 628 226 c 1
 542 184 451 162 344 152 c 1
342 432 m 1
 344 379 345 326 345 274 c 2
 345 222 l 1
 378 225 406 230 436 242 c 1
 426 305 377 388 342 432 c 1
EndSplineSet
EndChar

StartChar: germandbls
Encoding: 223 223 260
Width: 638
Flags: MW
HStem: 0 21G<87 269 87 87 319 319 319 526> 590 20G<193 429 429 429>
VStem: 64 202<94.5 332.5>
LayerCount: 2
Fore
SplineSet
269 0 m 1
 87 0 l 1
 72 105 64 205 64 313 c 0
 64 352 65 391 67 433 c 1
 97 495 147 566 193 610 c 1
 429 610 l 1
 473 572 518 519 540 465 c 1
 513 419 476 376 442 350 c 1
 504 307 560 247 598 172 c 1
 579 107 555 47 526 0 c 1
 319 0 l 1
 290 110 l 1
 315 84 342 67 369 67 c 1
 371 81 373 95 373 110 c 0xe0
 373 179 346 257 299 313 c 1
 355 347 406 403 434 454 c 1
 414 492 350 532 296 544 c 1
 276 407 266 249 266 115 c 0
 266 74 267 35 269 0 c 1
EndSplineSet
EndChar

StartChar: ydieresis
Encoding: 255 255 261
Width: 732
Flags: MW
HStem: -397 21G 0 21G<161 368 161 161> 575 97 658 20G
LayerCount: 2
Fore
SplineSet
616 556 m 1x00
 664 571 719 560 760 587 c 1
 741 543 726 514 704 481 c 1
 683 476 663 473 643 473 c 0
 630 473 617 474 603 476 c 1
 537 397 505 257 482 146 c 0
 453 8 402 -224 330 -368 c 1
 294 -379 249 -389 206 -397 c 1
 287 -258 339 -105 368 0 c 1
 161 0 l 1
 111 162 81 331 79 500 c 1
 371 500 l 1
 357 438 350 377 350 316 c 0
 350 232 363 147 384 64 c 1
 444 292 481 509 616 556 c 1x00
240 678 m 1xd0
 275 675 308 673 342 672 c 1xe0
 335 640 325 608 308 576 c 1
 295 576 282 575 268 575 c 0
 249 575 229 576 210 577 c 1
 224 610 236 645 240 678 c 1xd0
419 678 m 1xd0
 453 675 486 673 521 672 c 1xe0
 513 640 503 608 487 576 c 1
 473 576 459 575 446 575 c 0
 427 575 408 576 389 577 c 1
 402 610 414 645 419 678 c 1xd0
EndSplineSet
EndChar

StartChar: Ydieresis
Encoding: 376 376 262
Width: 732
Flags: MW
HStem: -397 21G 0 21G<161 368 161 161> 575 97 658 20G
LayerCount: 2
Fore
SplineSet
616 556 m 1x00
 664 571 719 560 760 587 c 1
 741 543 726 514 704 481 c 1
 683 476 663 473 643 473 c 0
 630 473 617 474 603 476 c 1
 537 397 505 257 482 146 c 0
 453 8 402 -224 330 -368 c 1
 294 -379 249 -389 206 -397 c 1
 287 -258 339 -105 368 0 c 1
 161 0 l 1
 111 162 81 331 79 500 c 1
 371 500 l 1
 357 438 350 377 350 316 c 0
 350 232 363 147 384 64 c 1
 444 292 481 509 616 556 c 1x00
240 678 m 1xd0
 275 675 308 673 342 672 c 1xe0
 335 640 325 608 308 576 c 1
 295 576 282 575 268 575 c 0
 249 575 229 576 210 577 c 1
 224 610 236 645 240 678 c 1xd0
419 678 m 1xd0
 453 675 486 673 521 672 c 1xe0
 513 640 503 608 487 576 c 1
 473 576 459 575 446 575 c 0
 427 575 408 576 389 577 c 1
 402 610 414 645 419 678 c 1xd0
EndSplineSet
EndChar

StartChar: scaron
Encoding: 353 353 263
Width: 635
Flags: MW
HStem: -112 21G -54 21 -54 101<62 115.5> 374 149<406 407 334 427> 446 77<334 351.5> 649 20G<203 235 235 235 400 432 432 432>
LayerCount: 2
Fore
SplineSet
575 499 m 1x00
 566 463 550 413 536 380 c 1
 494 377 448 374 406 374 c 1
 414 395 419 419 423 440 c 1
 396 444 366 446 337 446 c 0xac
 309 446 278 444 249 440 c 1
 310 337 401 321 490 261 c 0
 537 230 615 150 631 61 c 1
 568 -21 453 -91 342 -112 c 1
 231 -103 154 -54 77 -54 c 0
 47 -54 18 -61 -14 -81 c 1
 1 -38 22 4 45 47 c 1
 53 47 l 2
 202 47 266 -32 361 -33 c 0xd4
 371 -33 383 -32 393 -29 c 1
 393 63 330 106 267 150 c 2
 250 162 l 2
 178 212 103 271 74 377 c 1
 91 415 119 470 137 500 c 1
 199 515 265 523 334 523 c 2
 378 523 l 2
 436 523 501 515 575 499 c 1x00
293 554 m 1
 203 669 l 1
 235 669 l 1
 317 607 l 1
 400 669 l 1
 432 669 l 1
 342 554 l 1
 293 554 l 1
EndSplineSet
EndChar

StartChar: Scaron
Encoding: 352 352 264
Width: 635
Flags: MW
HStem: -112 21G -54 21 -54 101<62 115.5> 374 149<406 407 334 427> 446 77<334 351.5> 649 20G<203 235 235 235 400 432 432 432>
LayerCount: 2
Fore
SplineSet
575 499 m 1x00
 566 463 550 413 536 380 c 1
 494 377 448 374 406 374 c 1
 414 395 419 419 423 440 c 1
 396 444 366 446 337 446 c 0xac
 309 446 278 444 249 440 c 1
 310 337 401 321 490 261 c 0
 537 230 615 150 631 61 c 1
 568 -21 453 -91 342 -112 c 1
 231 -103 154 -54 77 -54 c 0
 47 -54 18 -61 -14 -81 c 1
 1 -38 22 4 45 47 c 1
 53 47 l 2
 202 47 266 -32 361 -33 c 0xd4
 371 -33 383 -32 393 -29 c 1
 393 63 330 106 267 150 c 2
 250 162 l 2
 178 212 103 271 74 377 c 1
 91 415 119 470 137 500 c 1
 199 515 265 523 334 523 c 2
 378 523 l 2
 436 523 501 515 575 499 c 1x00
293 554 m 1
 203 669 l 1
 235 669 l 1
 317 607 l 1
 400 669 l 1
 432 669 l 1
 342 554 l 1
 293 554 l 1
EndSplineSet
EndChar

StartChar: cent
Encoding: 162 162 265
Width: 663
Flags: MW
HStem: -57 21G<251 305 251 251> -22 21G<230 258 230 230> 540 20G<366 420 420 420>
VStem: 38 249<292 318.5>
LayerCount: 2
Fore
SplineSet
602 498 m 1
 593 461 576 411 562 378 c 1
 520 374 474 372 432 371 c 1
 438 393 444 418 448 439 c 1
 430 442 412 444 395 445 c 1
 374 341 355 247 338 147 c 1
 361 118 391 94 427 73 c 1
 489 114 542 163 591 225 c 1
 594 188 596 147 597 103 c 1
 530 50 446 -6 311 -19 c 1
 305 -57 l 1
 251 -57 l 1
 254 -45 256 -34 258 -22 c 1
 230 -22 l 1
 106 31 38 144 38 253 c 0
 38 384 137 509 359 522 c 1
 362 534 364 547 366 560 c 1
 420 560 l 1
 417 547 414 535 412 523 c 1
 468 522 532 514 602 498 c 1
346 442 m 1
 332 440 318 437 303 434 c 1
 292 388 287 347 287 312 c 0
 287 272 294 238 305 209 c 1
 320 285 332 360 346 442 c 1
EndSplineSet
EndChar

StartChar: sterling
Encoding: 163 163 266
Width: 588
Flags: MW
HStem: -49 89<420.5 528> 223 52<114 216> 224 51 496 52
VStem: 219 195
LayerCount: 2
Fore
SplineSet
37 57 m 1
 82 70 116 76 155 77 c 1
 193 119 215 173 219 227 c 1
 184 226 149 225 114 223 c 1
 114 275 l 1
 216 275 l 1
 205 325 175 376 132 427 c 1
 157 473 195 517 231 548 c 1
 329 547 382 538 436 509 c 1
 436 478 433 444 430 414 c 1
 387 473 322 496 264 496 c 1
 294 440 368 357 399 273 c 1
 430 273 461 274 492 275 c 1
 492 223 l 1
 412 226 l 1
 414 204 l 1
 414 155 410 96 368 44 c 1
 389 41 410 40 431 40 c 0
 484 40 537 49 586 72 c 1
 567 25 548 -14 528 -49 c 1
 463 -49 393 -30 330 1 c 1
 280 -19 227 -27 171 -27 c 2
 161 -27 l 1
 102 -26 59 -16 20 1 c 1
 24 19 30 39 37 57 c 1
EndSplineSet
EndChar

StartChar: Zcaron
Encoding: 381 381 267
Width: 638
Flags: MW
HStem: 0 67<396 405 405 431.5 396 590> 0 149 435 65<223 268.5>
LayerCount: 2
Fore
SplineSet
312 77 m 1x00
 343 71 369 67 396 67 c 2
 405 67 l 2
 458 67 494 86 510 153 c 1
 551 152 588 151 630 149 c 1xa0
 620 91 609 47 590 0 c 1
 19 0 l 1
 93 133 194 289 315 430 c 1
 296 434 283 435 254 435 c 0
 192 435 142 399 130 342 c 1
 99 344 63 346 32 349 c 1
 63 500 l 1
 620 500 l 1
 500 370 398 229 312 77 c 1x00
294 554 m 1
 204 669 l 1x60
 236 669 l 1
 318 607 l 1
 401 669 l 1
 433 669 l 1
 343 554 l 1
 294 554 l 1
EndSplineSet
EndChar

StartChar: yen
Encoding: 165 165 268
Width: 734
Flags: MW
HStem: 0 21G<212 475 212 212> 182 53<717 717> 281 51 281 219<651 662>
VStem: 462 240<316 479>
LayerCount: 2
Fore
SplineSet
495 143 m 1x00
 493 101 485 41 475 0 c 1
 212 0 l 1
 235 44 256 97 262 146 c 1
 245 158 229 171 214 186 c 1
 119 186 l 2
 87 186 56 186 25 185 c 1
 25 235 l 1
 171 235 l 1
 158 248 145 265 134 282 c 1
 97 281 61 281 25 279 c 1
 25 332 l 1
 51 332 78 331 105 331 c 1
 78 382 56 438 40 500 c 1xd8
 313 500 l 1
 320 382 334 283 395 189 c 1
 442 239 462 286 462 346 c 0
 462 389 451 438 434 500 c 1
 702 500 l 1
 702 479 l 2
 702 422 692 373 676 332 c 1xe8
 717 332 l 1
 717 279 l 1
 695 280 673 281 651 281 c 1
 640 263 628 247 615 233 c 1
 649 233 683 234 717 235 c 1
 717 182 l 1
 564 182 l 1
 540 167 516 153 495 143 c 1x00
EndSplineSet
EndChar

StartChar: greater
Encoding: 62 62 269
Width: 350
Flags: MW
HStem: 0 21G<33 124 33 33> 421 20G<33 124 124 124>
LayerCount: 2
Fore
SplineSet
344 221 m 1
 124 0 l 1
 33 0 l 1
 220 221 l 1
 33 441 l 1
 124 441 l 1
 344 221 l 1
EndSplineSet
EndChar

StartChar: less
Encoding: 60 60 270
Width: 350
Flags: MW
HStem: 0 21G<240 240 240 331> 421 20G<240 331 331 331>
LayerCount: 2
Fore
SplineSet
240 0 m 1
 20 221 l 1
 240 441 l 1
 331 441 l 1
 144 221 l 1
 331 0 l 1
 240 0 l 1
EndSplineSet
EndChar

StartChar: backslash
Encoding: 92 92 271
Width: 372
Flags: MW
HStem: -114 21G<410 434> 587 20G<-44 -17.5>
LayerCount: 2
Fore
SplineSet
90 587 m 1
 193 351 303 118 434 -114 c 1
 386 -114 356 -107 311 -96 c 1
 301 -94 l 1
 197 142 87 376 -44 607 c 1
 9 607 39 600 90 587 c 1
EndSplineSet
EndChar

StartChar: asciicircum
Encoding: 94 94 272
Width: 430
Flags: MW
HStem: 341 21G<13 106 13 13 323 323 323 415> 480 20G<165 264 264 264>
LayerCount: 2
Fore
SplineSet
106 341 m 1
 13 341 l 1
 165 500 l 1
 264 500 l 1
 415 341 l 1
 323 341 l 1
 214 428 l 1
 106 341 l 1
EndSplineSet
EndChar

StartChar: exclamdown
Encoding: 161 161 273
Width: 302
Flags: MW
HStem: -32 21G<15 15> 425 98<125.5 190 125.5 223>
VStem: 88 195
LayerCount: 2
Fore
SplineSet
283 0 m 1
 15 -32 l 1
 65 102 83 214 88 363 c 1
 112 370 160 377 188 379 c 1
 232 297 276 133 283 0 c 1
55 415 m 1
 54 449 48 484 33 517 c 1
 58 521 106 523 145 523 c 0
 162 523 177 523 188 522 c 1
 205 490 215 457 223 425 c 1
 190 425 l 2
 144 425 101 423 55 415 c 1
EndSplineSet
EndChar

StartChar: questiondown
Encoding: 191 191 274
Width: 489
Flags: MW
HStem: -23 69<195.5 211 195.5 310> 425 98<223.5 318>
VStem: 274 195<119 121 81.5 173>
LayerCount: 2
Fore
SplineSet
15 0 m 1
 97 -18 155 -23 216 -23 c 0
 404 -23 469 42 469 121 c 1
 456 228 314 290 283 387 c 1
 246 383 220 381 183 372 c 1
 206 290 274 215 274 131 c 0
 274 107 268 81 254 55 c 1
 237 49 220 46 202 46 c 0
 189 46 177 48 164 51 c 1
 168 73 175 102 181 124 c 1
 140 124 94 121 53 117 c 1
 38 86 23 42 15 0 c 1
150 415 m 1
 149 449 143 483 128 517 c 1
 154 521 203 523 244 523 c 0
 258 523 272 523 283 522 c 1
 300 489 310 457 318 425 c 1
 261 425 207 425 150 415 c 1
EndSplineSet
EndChar

StartChar: asciitilde
Encoding: 126 126 275
Width: 449
Flags: MW
HStem: 183 21G<29 29> 224 70<142.5 161.5>
LayerCount: 2
Fore
SplineSet
134 224 m 0
 87 224 50 200 29 183 c 1
 66 272 l 1
 88 283 115 294 170 294 c 0
 226 294 272 257 328 257 c 0xc0
 374 257 411 281 432 298 c 1
 395 209 l 1
 373 197 346 187 291 187 c 0
 235 187 189 224 134 224 c 0
EndSplineSet
EndChar

StartChar: quoteleft
Encoding: 8216 8216 276
Width: 192
Flags: MW
HStem: 421 21G 587 20G
LayerCount: 2
Fore
SplineSet
167 421 m 1
 122 429 80 431 35 431 c 2
 3 431 l 1
 13 492 37 557 71 607 c 1
 87 605 102 602 117 599 c 1
 105 577 95 547 95 527 c 1
 129 527 167 525 189 521 c 1
 174 489 168 455 167 421 c 1
EndSplineSet
EndChar

StartChar: quoteright
Encoding: 8217 8217 277
Width: 193
Flags: MW
HStem: 413 21G 579 20G
LayerCount: 2
Fore
SplineSet
25 599 m 1
 81 589 130 588 190 588 c 1
 179 529 155 463 121 413 c 1
 105 415 90 417 75 421 c 1
 87 443 97 473 98 493 c 1
 63 493 25 495 3 499 c 1
 18 532 24 566 25 599 c 1
EndSplineSet
EndChar

StartChar: quotedblleft
Encoding: 8220 8220 278
Width: 399
Flags: MW
HStem: 424 21G 590 20G
LayerCount: 2
Fore
SplineSet
167 424 m 1
 122 432 80 434 35 434 c 2
 3 434 l 1
 13 495 37 560 71 610 c 1
 87 608 102 605 117 602 c 1
 105 580 95 550 95 530 c 1
 129 530 167 528 189 524 c 1
 174 492 168 458 167 424 c 1
374 424 m 1
 329 432 287 434 242 434 c 2
 210 434 l 1
 220 495 244 560 278 610 c 1
 294 608 309 605 324 602 c 1
 312 580 302 550 302 530 c 1
 336 530 374 528 396 524 c 1
 381 492 375 458 374 424 c 1
EndSplineSet
EndChar

StartChar: quotedblright
Encoding: 8221 8221 279
Width: 402
Flags: MW
HStem: 413 21G 579 20G
LayerCount: 2
Fore
SplineSet
25 599 m 1
 81 589 130 588 190 588 c 1
 179 529 155 463 121 413 c 1
 105 415 90 417 75 421 c 1
 87 443 97 473 98 493 c 1
 63 493 25 495 3 499 c 1
 18 532 24 566 25 599 c 1
234 599 m 1
 290 589 339 588 399 588 c 1
 388 529 364 463 330 413 c 1
 314 415 299 417 284 421 c 1
 296 443 306 473 307 493 c 1
 272 493 234 495 212 499 c 1
 227 532 233 566 234 599 c 1
EndSplineSet
EndChar

StartChar: quotesingle
Encoding: 39 39 280
Width: 128
Flags: MW
HStem: 353 21G<31 98 31 31> 554 20G<30 97 97 97>
VStem: 38 54<443 479>
LayerCount: 2
Fore
SplineSet
98 353 m 1
 31 353 l 1
 34 389 38 425 38 460 c 0
 38 498 33 536 30 574 c 1
 97 574 l 1
 93 536 92 499 92 461 c 0
 92 425 94 389 98 353 c 1
EndSplineSet
EndChar

StartChar: quotedbl
Encoding: 34 34 281
Width: 231
Flags: MW
HStem: 353 221<22 88 21 89 22 22 145 211 21 212 145 145>
VStem: 29 54<443 479> 152 54<443 479>
LayerCount: 2
Fore
SplineSet
212 353 m 1
 145 353 l 1
 148 389 152 425 152 460 c 0
 152 498 147 536 144 574 c 1
 211 574 l 1
 207 536 206 499 206 461 c 0
 206 425 208 389 212 353 c 1
89 353 m 1
 22 353 l 1
 25 389 29 425 29 460 c 0
 29 498 24 536 21 574 c 1
 88 574 l 1
 84 536 83 499 83 461 c 0
 83 425 85 389 89 353 c 1
EndSplineSet
EndChar

StartChar: mu
Encoding: 181 181 282
Width: 767
Flags: MW
HStem: -248 21G<83 229 83 83> -7 92<348.5 353> 0 21G<473 698 473 473> 480 20G<60 334 334 334 462 732 732 732>
VStem: 58 144
LayerCount: 2
Fore
SplineSet
462 500 m 1x00
 732 500 l 1
 732 334 725 166 698 0 c 1
 473 0 l 1
 477 18 479 38 480 57 c 1
 451 16 387 -7 319 -7 c 0xd8
 280 -7 231 0 202 23 c 1
 203 -69 214 -161 229 -248 c 1
 83 -248 l 1
 65 -60 58 131 58 320 c 0
 58 380 59 440 60 500 c 1
 334 500 l 1
 320 396 313 288 307 177 c 1xb8
 307 163 l 2
 307 109 324 85 373 85 c 0
 424 85 458 116 476 163 c 1
 477 185 478 208 478 231 c 0
 478 318 471 410 462 500 c 1x00
EndSplineSet
EndChar

StartChar: bullet
Encoding: 8226 8226 283
Width: 178
Flags: MW
HStem: 171 172<68 115.5>
VStem: 5 172<234 281.5>
LayerCount: 2
Fore
SplineSet
92 343 m 0
 139 343 177 305 177 258 c 0
 177 210 139 171 92 171 c 0
 44 171 5 210 5 258 c 0
 5 305 44 343 92 343 c 0
EndSplineSet
EndChar

StartChar: periodcentered
Encoding: 183 183 284
Width: 133
Flags: MW
HStem: 206 100<51.5 79>
VStem: 15 100<242.5 270>
LayerCount: 2
Fore
SplineSet
65 306 m 0
 93 306 115 284 115 256 c 0
 115 229 93 206 65 206 c 0
 38 206 15 229 15 256 c 0
 15 284 38 306 65 306 c 0
EndSplineSet
EndChar

StartChar: currency
Encoding: 164 164 285
Width: 312
Flags: MW
HStem: 70 21G<52 52 262 262> 98 44<145.5 168.5> 302 44<145.5 168.5 145.5 179> 354 20G<52 52 262 262>
VStem: 33 44<210.5 233.5> 237 44<210.5 233.5 210.5 244>
LayerCount: 2
Fore
SplineSet
157 346 m 0
 180 346 202 340 220 329 c 1
 262 374 l 1
 277 358 293 342 309 327 c 1
 263 286 l 1
 275 267 281 245 281 222 c 0
 281 199 275 177 264 159 c 1
 309 117 l 1
 293 101 277 86 262 70 c 1
 221 116 l 1
 202 104 180 98 157 98 c 0
 134 98 112 104 93 116 c 1
 52 70 l 1
 5 117 l 1
 50 159 l 1
 39 177 33 199 33 222 c 0
 33 245 39 267 51 286 c 1
 5 327 l 1
 21 342 36 358 52 374 c 1
 94 329 l 1
 112 340 134 346 157 346 c 0
157 302 m 0
 113 302 77 266 77 222 c 0
 77 178 113 142 157 142 c 0
 201 142 237 178 237 222 c 0
 237 266 201 302 157 302 c 0
EndSplineSet
EndChar

StartChar: emdash
Encoding: 8212 8212 286
Width: 597
Flags: MW
HStem: 156 21G<50 50 547 547> 163 55<258.5 340.5 257.5 341.5> 203 20G<50 50 547 547>
LayerCount: 2
Fore
SplineSet
50 156 m 1x00
 50 223 l 1
 133 220 216 218 299 218 c 0xa0
 382 218 464 220 547 223 c 1x40
 547 156 l 1
 465 160 383 163 300 163 c 0xa0
 217 163 133 160 50 156 c 1x00
EndSplineSet
EndChar

StartChar: bar
Encoding: 124 124 287
Width: 129
Flags: MW
HStem: -119 21G<31 99 31 31> 579 20G<30 99 99 99>
VStem: 39 51<189 303 183.5 309>
LayerCount: 2
Fore
SplineSet
99 -119 m 1
 31 -119 l 1
 34 -3 39 131 39 247 c 0
 39 371 34 476 30 599 c 1
 99 599 l 1
 94 483 90 361 90 245 c 0
 90 122 94 4 99 -119 c 1
EndSplineSet
EndChar

StartChar: brokenbar
Encoding: 166 166 288
Width: 117
Flags: MW
HStem: -120 21G<25 92 25 25> 579 20G<25 92 92 92>
VStem: 30 56<-8.5 37 435 480>
LayerCount: 2
Fore
SplineSet
92 323 m 1
 25 323 l 1
 28 367 30 412 30 456 c 0
 30 504 28 551 25 599 c 1
 92 599 l 1
 88 552 86 505 86 457 c 0
 86 413 88 368 92 323 c 1
92 -120 m 1
 25 -120 l 1
 28 -76 30 -31 30 13 c 0
 30 61 28 109 25 157 c 1
 92 157 l 1
 88 109 86 62 86 14 c 0
 86 -31 88 -75 92 -120 c 1
EndSplineSet
EndChar

StartChar: logicalnot
Encoding: 172 172 289
Width: 615
Flags: MW
HStem: 44 173<263.5 565 263.5 498> 202 20G<50 50>
VStem: 501 61<128 144 115.5 158 115.5 158>
LayerCount: 2
Fore
SplineSet
50 155 m 1x00
 50 222 l 1
 133 219 220 217 307 217 c 0xa0
 394 217 482 219 565 222 c 1x60
 563 188 562 159 562 129 c 0
 562 102 563 75 565 44 c 1xa0
 498 44 l 1
 500 78 501 100 501 128 c 2
 501 158 l 1
 439 161 374 162 309 162 c 0x60
 222 162 135 160 50 155 c 1x00
EndSplineSet
EndChar

StartChar: degree
Encoding: 176 176 290
Width: 245
Flags: MW
HStem: 406 213<110.5 136.5>
VStem: 14 84<520 537.5> 149 86<501 502>
LayerCount: 2
Fore
SplineSet
104 585 m 1
 100 572 98 557 98 542 c 0
 98 498 114 451 140 434 c 1
 146 448 149 465 149 482 c 0
 149 522 133 565 104 585 c 1
47 415 m 1
 24 446 14 477 14 505 c 0
 14 570 70 619 151 619 c 0
 169 619 187 617 207 612 c 1
 226 587 235 561 235 535 c 0
 235 467 175 406 98 406 c 0
 82 406 64 409 47 415 c 1
EndSplineSet
EndChar

StartChar: paragraph
Encoding: 182 182 291
Width: 434
Flags: MW
HStem: -114 21G<202 268 202 202 314 381 314 314> 539 47<267 272.5 302.5 307 307 311 311 315>
VStem: 206 56<192 262 262 262> 319 56<161 260.5>
LayerCount: 2
Fore
SplineSet
205 586 m 1
 381 586 l 1
 377 464 375 342 375 219 c 0
 375 103 377 2 381 -114 c 1
 314 -114 l 1
 317 -3 319 94 319 205 c 0
 319 316 317 427 315 539 c 1
 311 539 l 2
 308 539 307 539 307 539 c 2
 298 539 294 540 289 540 c 0
 284 540 278 539 267 539 c 1
 264 432 262 325 262 217 c 0
 262 102 264 2 268 -114 c 1
 202 -114 l 1
 204 -7 206 84 206 192 c 2
 206 262 l 1
 109 262 32 334 32 424 c 0xf0
 32 512 108 584 205 586 c 1
EndSplineSet
EndChar

StartChar: uni0452
Encoding: 1106 1106 292
Width: 774
Flags: MW
HStem: -168 21G 0 21G<242 460 242 242> 320 180 434 66<478 502.5>
VStem: 208 247 537 221<124.5 131>
LayerCount: 2
Fore
SplineSet
478 434 m 1x00
 470 387 464 339 460 293 c 1
 582 279 664 256 757 208 c 1
 757 194 758 179 758 165 c 0
 758 84 750 -2 727 -69 c 1
 665 -112 602 -143 536 -168 c 1
 477 -155 440 -144 389 -124 c 1
 389 -82 391 -51 394 -14 c 1
 436 -52 478 -81 512 -98 c 1
 528 -40 537 37 537 118 c 0
 537 144 536 170 534 197 c 1
 511 209 486 220 455 223 c 1
 451 148 453 74 460 0 c 1
 242 0 l 1
 218 113 208 226 208 341 c 0
 208 372 209 403 210 434 c 1xec
 148 417 119 377 107 320 c 1
 76 322 39 324 8 327 c 1
 44 500 l 1
 708 500 l 1
 696 434 684 380 663 320 c 1xdc
 627 322 597 324 561 327 c 1
 564 339 565 349 565 359 c 0
 565 412 527 434 478 434 c 1x00
EndSplineSet
EndChar

StartChar: uni0453
Encoding: 1107 1107 293
Width: 603
Flags: MW
HStem: 0 21G<71 288 71 71> 500 50<203 269 203 600> 660 20G<306 306>
VStem: 51 235<54 318>
LayerCount: 2
Fore
SplineSet
306 680 m 1
 417 666 l 1
 388 608 329 578 269 550 c 1
 203 550 l 1
 254 583 286 626 306 680 c 1
65 500 m 1
 600 500 l 1
 593 459 579 387 568 348 c 1
 526 347 501 346 460 344 c 1
 466 361 468 375 468 387 c 0
 468 423 443 434 396 435 c 0xf0
 379 435 358 433 336 429 c 1
 307 310 286 184 286 65 c 0
 286 43 286 21 288 0 c 1
 71 0 l 1
 59 81 51 180 51 281 c 0
 51 355 55 430 65 500 c 1
EndSplineSet
EndChar

StartChar: uni0403
Encoding: 1027 1027 294
Width: 603
Flags: MW
HStem: 0 21G<71 288 71 105.5> 500 50<203 269 203 600> 660 20G<306 306>
LayerCount: 2
Fore
SplineSet
306 680 m 1
 417 666 l 1
 388 608 329 578 269 550 c 1
 203 550 l 1
 254 583 286 626 306 680 c 1
600 500 m 1
 593 459 579 387 568 348 c 1
 526 347 501 346 460 344 c 1
 483 414 458 434 396 435 c 0xe0
 379 435 358 433 336 429 c 1
 302 288 278 137 288 0 c 1
 219 0 140 0 71 0 c 1
 50 141 42 334 65 500 c 1
 243 500 422 500 600 500 c 1
 600 500 l 1
EndSplineSet
EndChar

StartChar: uni040E
Encoding: 1038 1038 295
Width: 732
Flags: MW
HStem: -397 21G 0 21G<161 368 161 161> 538 55<369 455.5>
LayerCount: 2
Fore
SplineSet
292 569 m 1
 278 577 l 1
 285 613 309 682 311 680 c 1
 334 621 386 593 439 593 c 0
 472 593 505 604 530 626 c 0
 531 626 498 550 426 540 c 0
 414 539 405 538 395 538 c 0
 343 538 316 554 292 569 c 1
616 556 m 1
 664 571 719 560 760 587 c 1
 741 543 726 514 704 481 c 1
 683 476 663 473 643 473 c 0
 630 473 617 474 603 476 c 1
 537 397 505 257 482 146 c 0
 453 8 402 -224 330 -368 c 1
 294 -379 249 -389 206 -397 c 1
 287 -258 339 -105 368 0 c 1
 161 0 l 1
 111 162 81 331 79 500 c 1
 371 500 l 1
 357 438 350 377 350 316 c 0
 350 232 363 147 384 64 c 1
 444 292 481 509 616 556 c 1
EndSplineSet
EndChar

StartChar: uni040C
Encoding: 1036 1036 296
Width: 707
Flags: MW
HStem: 0 244 409 91 660 20G<354 354>
VStem: 41 236<68 300.5>
LayerCount: 2
Fore
SplineSet
293 292 m 1
 348 382 408 453 505 502 c 1
 526 506 548 507 570 507 c 2
 603 507 l 2
 636 507 669 508 698 522 c 1
 671 482 643 444 613 409 c 1
 597 409 l 2
 563 409 531 414 498 425 c 1
 447 383 416 337 389 276 c 1
 457 259 530 248 625 244 c 1
 648 187 661 80 666 0 c 1
 407 0 l 1
 385 98 334 191 284 222 c 1
 280 175 277 128 277 82 c 0
 277 54 278 27 280 0 c 1
 60 0 l 1
 49 85 41 173 41 261 c 0
 41 340 48 420 56 500 c 1
 334 500 l 1
 317 429 302 359 293 292 c 1
354 680 m 1
 465 666 l 1
 436 608 377 578 317 550 c 1xf0
 251 550 l 1
 302 583 334 626 354 680 c 1
EndSplineSet
EndChar

StartChar: OE
Encoding: 338 338 297
Width: 952
Flags: MW
HStem: -22 21G<230.5 252> 0 66<661 670 670 697 661 855> 0 148<439 895> 227 72<636.5 710> 348 152 435 65<681 713.5> 503 20G<287.5 400>
VStem: 30 201<240.5 244.5>
LayerCount: 2
Fore
SplineSet
855 0 m 1x00
 439 0 l 1
 357 -19 320 -21 252 -22 c 0
 209 -22 163 -14 117 1 c 1
 57 79 30 162 30 232 c 0
 30 257 33 280 40 303 c 0
 75 428 200 523 375 523 c 0
 425 523 465 510 510 500 c 1
 894 500 l 1
 887 458 874 387 862 348 c 1xd7
 820 346 795 345 754 344 c 1
 760 361 763 376 763 388 c 0
 763 424 737 435 690 435 c 0
 672 435 652 434 630 430 c 1
 617 375 605 318 596 262 c 1
 622 286 660 299 695 299 c 0
 725 299 758 293 789 293 c 0
 796 293 803 293 810 294 c 1
 763 206 l 1
 754 206 l 2
 717 206 681 226 650 227 c 0
 623 227 603 214 585 174 c 1
 582 141 580 108 579 76 c 1
 610 70 634 66 661 66 c 2
 670 66 l 2xbb
 724 66 759 85 775 153 c 1
 895 148 l 1
 885 90 874 47 855 0 c 1x00
266 431 m 1
 242 389 231 340 231 291 c 0
 231 190 279 90 361 51 c 1
 395 95 413 152 413 210 c 0xbb
 413 301 367 393 266 431 c 1
EndSplineSet
EndChar

StartChar: oe
Encoding: 339 339 298
Width: 952
Flags: MW
HStem: -22 21G<230.5 252> 0 66<661 670 670 697 661 855> 0 148<439 895> 227 72<636.5 710> 348 152 435 65<681 713.5> 503 20G<287.5 400>
VStem: 30 201<240.5 244.5>
LayerCount: 2
Fore
SplineSet
855 0 m 1x00
 439 0 l 1
 357 -19 320 -21 252 -22 c 0
 209 -22 163 -14 117 1 c 1
 57 79 30 162 30 232 c 0
 30 257 33 280 40 303 c 0
 75 428 200 523 375 523 c 0
 425 523 465 510 510 500 c 1
 894 500 l 1
 887 458 874 387 862 348 c 1xd7
 820 346 795 345 754 344 c 1
 760 361 763 376 763 388 c 0
 763 424 737 435 690 435 c 0
 672 435 652 434 630 430 c 1
 617 375 605 318 596 262 c 1
 622 286 660 299 695 299 c 0
 725 299 758 293 789 293 c 0
 796 293 803 293 810 294 c 1
 763 206 l 1
 754 206 l 2
 717 206 681 226 650 227 c 0
 623 227 603 214 585 174 c 1
 582 141 580 108 579 76 c 1
 610 70 634 66 661 66 c 2
 670 66 l 2xbb
 724 66 759 85 775 153 c 1
 895 148 l 1
 885 90 874 47 855 0 c 1x00
266 431 m 1
 242 389 231 340 231 291 c 0
 231 190 279 90 361 51 c 1
 395 95 413 152 413 210 c 0xbb
 413 301 367 393 266 431 c 1
EndSplineSet
EndChar

StartChar: florin
Encoding: 402 402 299
Width: 565
Flags: MW
HStem: -115 21G 220 51 221 50 528 20G
VStem: 221 216
LayerCount: 2
Fore
SplineSet
221 224 m 1
 191 223 161 222 131 220 c 1
 131 273 l 1
 222 270 l 1
 222 346 221 423 216 499 c 1
 281 525 325 537 388 548 c 1
 451 544 496 535 547 519 c 1
 547 477 546 446 542 413 c 1
 500 453 457 479 409 496 c 1
 420 421 428 346 433 271 c 1
 459 271 486 272 513 273 c 1
 513 220 l 1
 435 223 l 1
 436 189 437 155 437 121 c 0
 437 81 436 42 434 2 c 1
 371 -57 297 -86 235 -115 c 1
 145 -108 82 -95 19 -70 c 1
 20 -28 22 14 25 51 c 1
 92 2 143 -24 204 -45 c 1
 212 38 218 129 221 224 c 1
EndSplineSet
EndChar

StartChar: divide
Encoding: 247 247 300
Width: 358
Flags: MW
HStem: 237 44<158.5 200.5 157.5 201.5> 281 34<171.5 186.5 171.5 200.5> 349 20G<171.5 186.5>
VStem: 152 54<168.5 183 334.5 349.5>
LayerCount: 2
Fore
SplineSet
50 232 m 1x00
 50 285 l 1
 93 282 136 281 179 281 c 0
 222 281 265 282 308 285 c 1
 308 232 l 1
 265 235 223 237 180 237 c 0
 137 237 93 235 50 232 c 1x00
179 369 m 0
 194 369 206 357 206 342 c 0
 206 327 194 315 179 315 c 0xb0
 164 315 152 327 152 342 c 0
 152 357 164 369 179 369 c 0
179 202 m 0
 194 202 206 190 206 176 c 0
 206 161 194 149 179 149 c 0x70
 164 149 152 161 152 176 c 0
 152 190 164 202 179 202 c 0
EndSplineSet
EndChar

StartChar: multiply
Encoding: 215 215 301
Width: 319
Flags: MW
HStem: 149 21G 349 20G<87 87 232 232>
LayerCount: 2
Fore
SplineSet
50 186 m 1
 76 210 102 234 127 259 c 1
 102 284 76 308 50 331 c 1
 87 369 l 1
 110 342 134 316 159 290 c 1
 184 316 208 342 232 369 c 1
 269 331 l 1
 242 308 216 284 190 259 c 1
 215 234 242 210 269 186 c 1
 257 174 245 161 232 149 c 1
 208 176 184 202 159 228 c 1
 134 202 110 176 87 149 c 1
 74 161 62 174 50 186 c 1
EndSplineSet
EndChar

StartChar: ordfeminine
Encoding: 170 170 302
Width: 503
Flags: MW
HStem: 222 21G<26 197 26 26 311 481 311 311> 567 20G<166 408 408 408>
VStem: 21 176<222 308>
LayerCount: 2
Fore
SplineSet
166 587 m 1
 408 587 l 1
 456 484 481 354 481 222 c 1
 311 222 l 1
 309 252 305 280 299 308 c 1
 268 276 234 248 197 222 c 1
 26 222 l 1
 23 243 21 265 21 287 c 0
 21 329 27 370 36 400 c 1
 105 420 179 474 208 531 c 1
 195 551 181 569 166 587 c 1
286 362 m 1
 273 405 257 446 237 484 c 1
 214 418 201 354 197 293 c 1
 228 310 261 334 286 362 c 1
EndSplineSet
EndChar

StartChar: onequarter
Encoding: 188 188 303
Width: 859
Flags: MW
HStem: -114 21G<147 171> -81 201<604 770 602 788> -26 146<604 610 776 788 604 813 776 776> 587 20G
VStem: 94 178<309 502>
LayerCount: 2
Fore
SplineSet
184 587 m 1x00
 270 587 l 1
 271 553 272 519 272 485 c 0
 272 398 268 310 256 222 c 1
 90 222 l 1
 93 259 94 292 94 326 c 0
 94 369 92 412 86 459 c 1
 73 449 57 438 38 425 c 1
 5 483 l 1
 63 505 133 545 184 587 c 1x00
781 22 m 1
 808 27 821 33 845 48 c 1
 831 14 825 -2 813 -26 c 1
 776 -26 l 1
 770 -81 l 1xd8
 602 -81 l 1
 605 -64 608 -45 610 -26 c 1xb8
 445 -26 l 1
 433 38 l 1
 496 103 542 207 554 285 c 1
 713 285 l 1
 675 192 575 106 505 46 c 1
 493 35 l 1
 524 27 575 22 612 22 c 1
 612 39 l 2
 612 65 610 81 606 109 c 1
 604 120 l 1
 788 120 l 1
 787 78 784 66 781 22 c 1
491 587 m 1
 542 600 572 607 625 607 c 1
 494 376 384 142 280 -94 c 1
 270 -96 l 1
 225 -107 195 -114 147 -114 c 1
 278 118 388 351 491 587 c 1
EndSplineSet
EndChar

StartChar: onehalf
Encoding: 189 189 304
Width: 945
Flags: MW
HStem: -114 21G<196 220> -81 47<706.5 749.5 706.5 859> 587 20G
VStem: 127 177<312.5 502>
LayerCount: 2
Fore
SplineSet
216 587 m 1
 302 587 l 1
 303 553 304 519 304 485 c 0
 304 398 300 310 288 222 c 1
 123 222 l 1
 123 231 l 2
 123 234 124 236 124 239 c 0
 126 270 127 299 127 326 c 0
 127 369 124 410 118 459 c 1
 105 449 89 438 70 425 c 1
 37 483 l 1
 95 505 166 545 216 587 c 1
608 284 m 1
 807 284 l 1
 837 262 869 223 883 184 c 1
 846 114 758 34 644 -29 c 1
 668 -32 694 -34 719 -34 c 0
 780 -34 805 -9 820 30 c 1
 889 27 l 1xf0
 884 -11 872 -57 859 -81 c 1
 512 -81 l 1
 560 -35 683 83 683 173 c 0
 683 199 673 223 647 242 c 1
 624 225 604 202 591 173 c 1
 522 194 l 1
 547 234 579 266 608 284 c 1
540 587 m 1
 591 600 621 607 674 607 c 1
 543 376 433 142 329 -94 c 1
 319 -96 l 1
 274 -107 244 -114 196 -114 c 1
 327 118 437 351 540 587 c 1
EndSplineSet
EndChar

StartChar: threequarters
Encoding: 190 190 305
Width: 921
Flags: MW
HStem: -114 21G<213 237> -81 201<668 834 666 852> -26 146<668 673 840 852 668 877 840 840> 587 20G<664.5 691>
VStem: 676 169<22 22>
LayerCount: 2
Fore
SplineSet
845 22 m 1x00
 872 27 885 33 909 48 c 1
 895 14 889 -2 877 -26 c 1
 840 -26 l 1
 834 -81 l 1xd8
 666 -81 l 1
 669 -64 672 -45 673 -26 c 1xb8
 509 -26 l 1
 497 38 l 1
 560 103 606 206 617 284 c 1
 776 284 l 1
 739 191 639 105 569 45 c 0
 565 41 561 38 557 35 c 1
 588 27 639 22 676 22 c 1
 676 28 676 34 676 39 c 0
 676 65 674 81 670 109 c 1
 668 120 l 1
 852 120 l 1
 851 78 848 66 845 22 c 1x00
46 586 m 1
 370 586 l 1
 342 524 280 469 222 434 c 1
 270 421 338 393 376 366 c 1
 359 326 325 268 269 221 c 1
 40 221 l 1
 102 260 186 337 212 387 c 1
 192 402 149 422 121 428 c 1
 162 451 194 498 210 534 c 1
 202 537 177 539 166 539 c 0
 95 539 90 515 84 487 c 0
 84 485 84 482 83 480 c 1
 66 480 42 481 22 482 c 1
 30 523 38 555 46 586 c 1
557 587 m 1
 608 600 638 607 691 607 c 1
 560 376 450 142 346 -94 c 1
 336 -96 l 1
 291 -107 261 -114 213 -114 c 1
 344 118 454 351 557 587 c 1
EndSplineSet
EndChar

StartChar: ordmasculine
Encoding: 186 186 306
Width: 422
Flags: MW
HStem: 209 21G<148 233.5> 578 20G<184.5 275>
VStem: 7 155<417.5 448> 255 157<328.5 466.5>
LayerCount: 2
Fore
SplineSet
68 225 m 1
 26 281 7 338 7 389 c 0
 7 507 110 598 259 598 c 0
 291 598 325 594 361 585 c 1
 396 539 412 490 412 443 c 0
 412 319 304 209 163 209 c 0
 133 209 101 214 68 225 c 1
172 535 m 1
 165 512 162 485 162 458 c 0
 162 377 191 290 239 258 c 1
 250 283 255 313 255 344 c 0
 255 418 226 499 172 535 c 1
EndSplineSet
EndChar

StartChar: onesuperior
Encoding: 185 185 307
Width: 298
Flags: MW
HStem: 221 21G<97 263 97 97> 567 20G<191 276 276 276>
VStem: 101 177<306.5 499.5>
LayerCount: 2
Fore
SplineSet
191 587 m 1
 276 587 l 1
 277 552 278 517 278 482 c 0
 278 395 274 308 263 221 c 1
 97 221 l 1
 100 257 101 290 101 323 c 0
 101 367 98 410 92 458 c 1
 79 448 63 437 44 424 c 1
 11 482 l 1
 69 504 140 544 191 587 c 1
EndSplineSet
EndChar

StartChar: twosuperior
Encoding: 178 178 308
Width: 426
Flags: MW
HStem: 221 47<222.5 265.5 222.5 376> 567 20G<124 323 323 323>
LayerCount: 2
Fore
SplineSet
124 587 m 1
 323 587 l 1
 353 565 385 526 399 487 c 1
 362 416 274 336 160 273 c 1
 184 270 210 268 235 268 c 0
 296 268 322 294 336 332 c 1
 366 331 375 331 405 329 c 1xc0
 401 291 388 246 376 221 c 1
 29 221 l 1
 76 267 199 385 199 475 c 0
 199 501 189 525 163 544 c 1
 140 527 120 505 107 475 c 1
 84 482 62 490 38 497 c 1
 63 536 95 568 124 587 c 1
EndSplineSet
EndChar

StartChar: threesuperior
Encoding: 179 179 309
Width: 398
Flags: MW
HStem: 221 21G<49 278 49 49> 539 48<140 181>
LayerCount: 2
Fore
SplineSet
55 587 m 1
 379 587 l 1
 351 524 289 469 231 435 c 1
 280 422 348 393 385 366 c 1
 369 326 335 268 278 221 c 1
 49 221 l 1
 112 260 195 337 222 387 c 1
 202 402 159 422 130 428 c 1
 172 451 203 498 219 534 c 1
 211 537 187 539 175 539 c 0
 105 539 101 516 95 488 c 2
 93 480 l 1
 76 480 51 481 32 482 c 1
 39 523 47 555 55 587 c 1
EndSplineSet
EndChar

StartChar: ogonek
Encoding: 731 731 310
Width: 176
Flags: MW
HStem: -174 38<104 109.5> -9 20G<104 148 148 148>
VStem: 16 65<-110 -77.5>
LayerCount: 2
Fore
SplineSet
112 -136 m 0
 129 -136 141 -130 154 -118 c 1
 155 -125 157 -133 159 -139 c 1
 150 -151 127 -174 92 -174 c 0
 45 -174 16 -139 16 -106 c 0
 16 -49 72 -5 104 11 c 1
 148 11 l 1
 117 -10 81 -49 81 -96 c 0
 81 -124 96 -136 112 -136 c 0
EndSplineSet
EndChar

StartChar: eogonek
Encoding: 281 281 311
Width: 671
Flags: MW
HStem: -174 38<349 354.5> 0 66<84 390 378 390 381 390 390 417 381 575> 0 148<378 615> 227 72<357.5 430> 348 152 435 65<401 410>
LayerCount: 2
Fore
SplineSet
357 -136 m 0x00
 374 -136 386 -130 399 -118 c 1
 400 -125 402 -133 404 -139 c 1
 395 -151 372 -174 337 -174 c 0
 290 -174 261 -139 261 -106 c 0
 261 -59 299 -21 330 0 c 1
 84 0 l 1
 72 81 64 179 64 280 c 0
 64 354 68 429 78 500 c 1
 614 500 l 1
 607 459 594 387 582 348 c 1xd4
 540 346 515 345 474 344 c 1
 480 361 482 375 482 387 c 0
 482 423 457 434 410 435 c 0
 392 435 372 433 350 429 c 1
 337 374 325 318 316 262 c 1
 342 286 380 299 415 299 c 0
 445 299 478 293 509 293 c 0
 516 293 523 293 530 294 c 1
 483 206 l 1
 474 206 l 2
 437 206 401 226 370 227 c 0
 345 227 324 216 305 174 c 1
 302 141 300 108 299 76 c 1
 330 70 354 66 381 66 c 2
 390 66 l 2xb8
 444 66 479 85 495 153 c 1
 615 148 l 1xd8
 605 90 594 47 575 0 c 1
 378 0 l 1
 351 -22 326 -56 326 -96 c 0
 326 -124 341 -136 357 -136 c 0x00
EndSplineSet
EndChar

StartChar: Eogonek
Encoding: 280 280 312
Width: 671
Flags: MW
HStem: -174 38<349 354.5> 0 66<84 390 378 390 381 390 390 417 381 575> 0 148<378 615> 227 72<357.5 430> 348 152 435 65<401 410>
LayerCount: 2
Fore
SplineSet
357 -136 m 0x00
 374 -136 386 -130 399 -118 c 1
 400 -125 402 -133 404 -139 c 1
 395 -151 372 -174 337 -174 c 0
 290 -174 261 -139 261 -106 c 0
 261 -59 299 -21 330 0 c 1
 84 0 l 1
 72 81 64 179 64 280 c 0
 64 354 68 429 78 500 c 1
 614 500 l 1
 607 459 594 387 582 348 c 1xd4
 540 346 515 345 474 344 c 1
 480 361 482 375 482 387 c 0
 482 423 457 434 410 435 c 0
 392 435 372 433 350 429 c 1
 337 374 325 318 316 262 c 1
 342 286 380 299 415 299 c 0
 445 299 478 293 509 293 c 0
 516 293 523 293 530 294 c 1
 483 206 l 1
 474 206 l 2
 437 206 401 226 370 227 c 0
 345 227 324 216 305 174 c 1
 302 141 300 108 299 76 c 1
 330 70 354 66 381 66 c 2
 390 66 l 2xb8
 444 66 479 85 495 153 c 1
 615 148 l 1xd8
 605 90 594 47 575 0 c 1
 378 0 l 1
 351 -22 326 -56 326 -96 c 0
 326 -124 341 -136 357 -136 c 0x00
EndSplineSet
EndChar

StartChar: aogonek
Encoding: 261 261 313
Width: 749
Flags: MW
HStem: -174 38<582 587.5> 0 21G<64 297 64 64 454 563 454 454 611 611 611 686> 480 20G<255 587 587 587>
VStem: 57 240<0 118.5> 494 65<-110 -82.5>
LayerCount: 2
Fore
SplineSet
590 -136 m 0
 607 -136 619 -130 632 -118 c 1
 633 -125 635 -133 637 -139 c 1
 628 -151 605 -174 570 -174 c 0
 523 -174 494 -139 494 -106 c 0
 494 -59 532 -21 563 0 c 1
 454 0 l 1
 451 41 445 80 437 118 c 1
 395 75 347 35 297 0 c 1
 64 0 l 1
 59 29 57 60 57 90 c 0
 57 147 65 203 77 244 c 1
 171 271 272 345 312 423 c 1
 295 450 276 476 255 500 c 1
 587 500 l 1
 651 361 686 186 686 8 c 2
 686 0 l 1
 611 0 l 1
 584 -22 559 -56 559 -96 c 0
 559 -124 574 -136 590 -136 c 0
419 191 m 1
 402 250 380 305 351 359 c 1
 320 267 302 181 297 98 c 1
 340 120 385 153 419 191 c 1
EndSplineSet
EndChar

StartChar: Aogonek
Encoding: 260 260 314
Width: 749
Flags: MW
HStem: -174 38<582 587.5> 0 21G<64 297 64 64 454 563 454 454 611 611 611 686> 480 20G<255 587 587 587>
VStem: 57 240<0 118.5> 494 65<-110 -82.5>
LayerCount: 2
Fore
SplineSet
590 -136 m 0
 607 -136 619 -130 632 -118 c 1
 633 -125 635 -133 637 -139 c 1
 628 -151 605 -174 570 -174 c 0
 523 -174 494 -139 494 -106 c 0
 494 -59 532 -21 563 0 c 1
 454 0 l 1
 451 41 445 80 437 118 c 1
 395 75 347 35 297 0 c 1
 64 0 l 1
 59 29 57 60 57 90 c 0
 57 147 65 203 77 244 c 1
 171 271 272 345 312 423 c 1
 295 450 276 476 255 500 c 1
 587 500 l 1
 651 361 686 186 686 8 c 2
 686 0 l 1
 611 0 l 1
 584 -22 559 -56 559 -96 c 0
 559 -124 574 -136 590 -136 c 0
419 191 m 1
 402 250 380 305 351 359 c 1
 320 267 302 181 297 98 c 1
 340 120 385 153 419 191 c 1
EndSplineSet
EndChar

StartChar: Lslash
Encoding: 321 321 315
Width: 617
Flags: MW
HStem: 0 65<364 379 364 565> 480 20G<68 357 357 357>
VStem: 54 235
LayerCount: 2
Fore
SplineSet
319 335 m 1
 362 359 400 383 428 406 c 1
 419 370 407 337 392 307 c 1
 368 297 337 283 307 269 c 1
 297 204 290 139 289 76 c 1
 323 69 349 65 379 65 c 0
 433 66 469 85 484 153 c 1
 605 148 l 1xe0
 595 90 584 46 565 0 c 1
 74 0 l 1
 67 43 62 92 59 143 c 1
 12 116 l 1
 12 128 11 138 11 148 c 0
 11 161 12 174 13 188 c 0
 13 191 42 203 55 208 c 1
 54 230 54 253 54 276 c 0
 54 351 58 428 68 500 c 1
 357 500 l 1
 343 447 330 391 319 335 c 1
EndSplineSet
EndChar

StartChar: lslash
Encoding: 322 322 316
Width: 617
Flags: MW
HStem: 0 65<364 379 364 565> 480 20G<68 357 357 357>
VStem: 54 235
LayerCount: 2
Fore
SplineSet
319 335 m 1
 362 359 400 383 428 406 c 1
 419 370 407 337 392 307 c 1
 368 297 337 283 307 269 c 1
 297 204 290 139 289 76 c 1
 323 69 349 65 379 65 c 0
 433 66 469 85 484 153 c 1
 605 148 l 1xe0
 595 90 584 46 565 0 c 1
 74 0 l 1
 67 43 62 92 59 143 c 1
 12 116 l 1
 12 128 11 138 11 148 c 0
 11 161 12 174 13 188 c 0
 13 191 42 203 55 208 c 1
 54 230 54 253 54 276 c 0
 54 351 58 428 68 500 c 1
 357 500 l 1
 343 447 330 391 319 335 c 1
EndSplineSet
EndChar

StartChar: racute
Encoding: 341 341 317
Width: 706
Flags: MW
HStem: 0 202<587 608 587 679 420 608> 500 50<246 312 246 599> 660 20G<349 349>
VStem: 63 245
LayerCount: 2
Fore
SplineSet
421 225 m 1
 481 209 531 202 587 202 c 2
 608 202 l 1
 642 152 668 84 679 0 c 1
 420 0 l 1
 407 93 363 165 305 189 c 1
 304 172 304 156 304 140 c 0
 304 93 306 47 310 0 c 1
 92 0 l 1
 73 95 63 194 63 293 c 0
 63 362 68 432 77 500 c 1
 599 500 l 1
 615 430 622 383 622 326 c 0
 622 315 621 304 621 292 c 1
 565 262 496 240 421 225 c 1
326 433 m 1
 318 374 312 316 308 260 c 1
 342 265 374 278 398 299 c 1
 383 353 361 389 326 433 c 1
349 680 m 1
 460 666 l 1
 431 608 372 578 312 550 c 1
 246 550 l 1
 297 583 329 626 349 680 c 1
EndSplineSet
EndChar

StartChar: Racute
Encoding: 340 340 318
Width: 706
Flags: MW
HStem: 0 202<587 608 587 679 420 608> 500 50<246 312 246 599> 660 20G<349 349>
VStem: 63 245
LayerCount: 2
Fore
SplineSet
421 225 m 1
 481 209 531 202 587 202 c 2
 608 202 l 1
 642 152 668 84 679 0 c 1
 420 0 l 1
 407 93 363 165 305 189 c 1
 304 172 304 156 304 140 c 0
 304 93 306 47 310 0 c 1
 92 0 l 1
 73 95 63 194 63 293 c 0
 63 362 68 432 77 500 c 1
 599 500 l 1
 615 430 622 383 622 326 c 0
 622 315 621 304 621 292 c 1
 565 262 496 240 421 225 c 1
326 433 m 1
 318 374 312 316 308 260 c 1
 342 265 374 278 398 299 c 1
 383 353 361 389 326 433 c 1
349 680 m 1
 460 666 l 1
 431 608 372 578 312 550 c 1
 246 550 l 1
 297 583 329 626 349 680 c 1
EndSplineSet
EndChar

StartChar: Abreve
Encoding: 258 258 319
Width: 767
Flags: MW
HStem: 0 21G<68 301 68 68 458 690 458 458> 538 55<369 455.5>
VStem: 61 240<0 118.5>
LayerCount: 2
Fore
SplineSet
259 500 m 1
 591 500 l 1
 655 361 690 186 690 8 c 2
 690 0 l 1
 458 0 l 1
 455 41 449 80 441 118 c 1
 399 75 351 35 301 0 c 1
 68 0 l 1
 63 29 61 60 61 90 c 0
 61 147 69 203 81 244 c 1
 175 271 276 345 316 423 c 1
 299 450 280 476 259 500 c 1
423 191 m 1
 406 250 384 305 355 359 c 1
 324 267 306 181 301 98 c 1
 344 120 389 153 423 191 c 1
292 569 m 1
 278 577 l 1
 285 613 309 682 311 680 c 1
 334 621 386 593 439 593 c 0
 472 593 505 604 530 626 c 0
 531 626 498 550 426 540 c 0
 414 539 405 538 395 538 c 0
 343 538 316 554 292 569 c 1
EndSplineSet
EndChar

StartChar: lacute
Encoding: 314 314 320
Width: 602
Flags: MW
HStem: 0 66<349 364 349 550> 500 50<145 211 145 342> 660 20G<248 248>
VStem: 40 234
LayerCount: 2
Fore
SplineSet
274 77 m 1
 308 69 334 66 364 66 c 0
 418 67 454 86 470 153 c 1
 590 149 l 1
 580 91 569 46 550 0 c 1
 59 0 l 1
 47 81 40 180 40 281 c 0
 40 355 44 430 54 500 c 1
 342 500 l 1
 307 365 276 216 274 77 c 1
248 680 m 1
 359 666 l 1
 330 608 271 578 211 550 c 1
 145 550 l 1
 196 583 228 626 248 680 c 1
EndSplineSet
EndChar

StartChar: Lacute
Encoding: 313 313 321
Width: 602
Flags: MW
HStem: 0 66<349 364 349 550> 500 50<145 211 145 342> 660 20G<248 248>
VStem: 40 234
LayerCount: 2
Fore
SplineSet
274 77 m 1
 308 69 334 66 364 66 c 0
 418 67 454 86 470 153 c 1
 590 149 l 1
 580 91 569 46 550 0 c 1
 59 0 l 1
 47 81 40 180 40 281 c 0
 40 355 44 430 54 500 c 1
 342 500 l 1
 307 365 276 216 274 77 c 1
248 680 m 1
 359 666 l 1
 330 608 271 578 211 550 c 1
 145 550 l 1
 196 583 228 626 248 680 c 1
EndSplineSet
EndChar

StartChar: cacute
Encoding: 263 263 322
Width: 632
Flags: MW
HStem: -21 21G<231 254 231 231> 445 78<372 395.5> 660 20G<312 312>
VStem: 38 250<252.5 254>
LayerCount: 2
Fore
SplineSet
602 498 m 1
 593 463 576 412 562 379 c 1
 520 375 474 373 432 373 c 1
 439 393 445 418 449 439 c 1
 426 443 406 445 385 445 c 0
 359 445 332 441 303 434 c 1
 292 388 288 347 288 311 c 0
 288 194 341 124 426 73 c 1
 490 115 542 163 592 225 c 1
 595 188 596 149 597 103 c 1
 520 43 425 -21 254 -21 c 2
 231 -21 l 1
 107 32 38 145 38 254 c 0
 39 392 149 523 397 523 c 0
 458 523 525 516 602 498 c 1
312 680 m 1
 423 666 l 1
 394 608 335 578 275 550 c 1xf0
 209 550 l 1
 260 583 292 626 312 680 c 1
EndSplineSet
EndChar

